<?xml version="1.0" standalone="no"?>
<!DOCTYPE svg PUBLIC "-//W3C//DTD SVG 1.1//EN" "http://www.w3.org/Graphics/SVG/1.1/DTD/svg11.dtd" >
<svg>
<metadata>
Created by FontForge 20090914 at Tue Mar 18 01:24:15 2014
 By www-data
Copyright (c) 2010 by Font Diner, Inc DBA Sideshow. All rights reserved.
</metadata>
<defs>
<font id="Slackey" horiz-adv-x="957" >
  <font-face 
    font-family="Slackey"
    font-weight="400"
    font-stretch="normal"
    units-per-em="1024"
    panose-1="2 0 0 0 0 0 0 0 0 0"
    ascent="819"
    descent="-205"
    x-height="575"
    cap-height="734"
    bbox="-107.997 -351.001 1333 1078"
    underline-thickness="51"
    underline-position="-52"
    unicode-range="U+0020-U+FB02"
  />
<missing-glyph horiz-adv-x="412" 
 />
    <glyph glyph-name=".notdef" horiz-adv-x="412" 
 />
    <glyph glyph-name="space" unicode=" " horiz-adv-x="412" 
 />
    <glyph glyph-name="exclam" unicode="!" horiz-adv-x="325" 
d="M294 769c-0.666992 -17.333 -1.50195 -36.335 -2.50195 -57.002s-2.16699 -41.667 -3.5 -63s-3.16602 -42.166 -5.49902 -62.499s-5.16602 -39.166 -8.49902 -56.499l-30.5 -148l-30.5 -148l-110 -10l-25 252c-4.66699 45.333 -8 90.833 -10 136.5
s-4.33301 91.5 -7 137.5zM275.998 79.998c0 -11.333 -3.49707 -22.499 -10.4971 -33.499s-15.833 -20.833 -26.5 -29.5s-22.334 -15.5 -35.001 -20.5s-24.334 -7.5 -35.001 -7.5c-10 0 -20.5 1.83301 -31.5 5.5s-21 8.66699 -30 15s-16.333 14.166 -22 23.499
s-8.5 20 -8.5 32c0 12.667 3.83301 24.167 11.5 34.5s17 19 28 26s23 12.333 36 16s25.167 5.5 36.5 5.5c18.667 0 35.5 -4.33301 50.5 -13s26.167 -21.667 33.5 -39c1.33301 -2.66699 2.16602 -5.16699 2.49902 -7.5s0.5 -4.83301 0.5 -7.5z" />
    <glyph glyph-name="quotedbl" unicode="&#x22;" horiz-adv-x="425" 
d="M394 756c-5.33301 -54 -9.66895 -107.501 -13.002 -160.501s-7 -106.5 -11 -160.5l-116 6c-1.33301 51.333 -3.66602 101.833 -6.99902 151.5s-5.66602 99.834 -6.99902 150.501zM189.997 742.999c-1.33301 -50.667 -3.66797 -100.833 -7.00098 -150.5
s-5.66602 -100.167 -6.99902 -151.5l-116 -6c-3.33301 54 -6.83301 107.5 -10.5 160.5s-8.16699 106.5 -13.5 160.5z" />
    <glyph glyph-name="numbersign" unicode="#" horiz-adv-x="693" 
d="M693 539l-19.998 -90l-98 -10l-37 -116l93 -5l-21 -77l-100 -9l-52 -155l-90 -5l30 143l-152 -9l-42 -156l-108 -8l49 164h-114l20 95l115 9l32 139h-137c0.666992 1.33301 2.16699 6.83301 4.5 16.5s5.16602 20.167 8.49902 31.5c3.33301 12.667 7.33301 26.667 12 42
c7.33301 0 14 0.333008 20 1c5.33301 0 10.333 0.166992 15 0.5s7.66699 0.5 9 0.5c14.667 0 29.167 -0.166992 43.5 -0.5s29.166 -0.833008 44.499 -1.5l38 181l77 -17l-35 -173l187 5l53 159l79 -17l-34 -129zM461.002 461l-160 -8l-41 -156l159 4z" />
    <glyph glyph-name="dollar" unicode="$" horiz-adv-x="727" 
d="M707 247c0 -14.667 -1.33203 -27.6641 -3.99902 -38.9971c-4.66699 -24 -14.334 -44.667 -29.001 -62s-31.667 -32 -51 -44s-39.666 -21.667 -60.999 -29s-41 -13.333 -59 -18s-33.167 -8.33398 -45.5 -11.001s-19.166 -5.33398 -20.499 -8.00098
c0.666992 -0.666992 1 -0.833984 1 -0.500977s0 -1.66699 0 -6s-0.333008 -12.666 -1 -24.999s-1.33398 -31.5 -2.00098 -57.5l-138 4l3 80l-116.5 16.5c-38.333 5.66699 -76.5 14.167 -114.5 25.5c-1.33301 25.333 -3.66602 50.5 -6.99902 75.5
s-5.66602 50.167 -6.99902 75.5l72 -16l75 -15.5c25.333 -5 50.666 -9 75.999 -12s50 -4.5 74 -4.5c6.66699 0 17.667 0.333008 33 1s31.333 1.83398 48 3.50098s32.334 3.83398 47.001 6.50098s24.667 5.66699 30 9c14.667 9.33301 22 24.333 22 45
c0 6 -0.833008 12.667 -2.5 20s-5.16699 13.666 -10.5 18.999c-2.66699 2 -13.5 4.16699 -32.5 6.5s-42.167 5 -69.5 8s-57 6 -89 9s-62.5 6.33301 -91.5 10s-54.5 7.66699 -76.5 12s-36.333 9.16602 -43 14.499c-10 7.33301 -19.5 17 -28.5 29s-17 25.167 -24 39.5
s-12.667 28.833 -17 43.5s-6.5 28 -6.5 40c0 27.333 9 51.333 27 72s39.833 38 65.5 52s52.834 24.833 81.501 32.5s54 12.5 76 14.5v109l144 -16l-3 -93c8.66699 0.666992 17.167 1 25.5 1h24.5c30 0 59.333 -1.66699 88 -5s58 -8.66602 88 -15.999
c-4 -22 -8.33301 -44 -13 -66s-9 -44 -13 -66c-30.667 2 -61.167 3.66699 -91.5 5s-60.5 2 -90.5 2c-7.33301 0 -19.5 -0.166992 -36.5 -0.5s-35 -1 -54 -2s-36.833 -2.33301 -53.5 -4s-28.334 -3.83398 -35.001 -6.50098c-16 -7.33301 -24 -20.333 -24 -39
c0 -13.333 4.66699 -25.333 14 -36c3.33301 -3.33301 14.666 -6 33.999 -8s42.666 -4 69.999 -6l88 -6.5c31.333 -2.33301 61.166 -5 89.499 -8s53 -6.83301 74 -11.5s34.833 -10.334 41.5 -17.001c16 -16.667 28.167 -36.167 36.5 -58.5s12.5 -44.833 12.5 -67.5z" />
    <glyph glyph-name="percent" unicode="%" horiz-adv-x="780" 
d="M760 133c0 -28 -3.16699 -50.1689 -9.5 -66.502s-16 -29 -29 -38s-29 -14.833 -48 -17.5s-41.167 -4 -66.5 -4c-8 0 -18.833 0.333008 -32.5 1s-27.667 2.33398 -42 5.00098s-27.833 6 -40.5 10s-21.667 9.66699 -27 17c-4 5.33301 -7.33301 12.333 -10 21
s-4.83398 17.5 -6.50098 26.5s-2.66699 18 -3 27s-0.5 16.5 -0.5 22.5c0 8 0.333008 18.167 1 30.5s2 24.833 4 37.5s4.66699 24.5 8 35.5s7.66602 19.5 12.999 25.5s14.5 11 27.5 15s27 7.16699 42 9.5s29.5 3.83301 43.5 4.5s24.667 1 32 1
c6.66699 0 15.334 -0.166992 26.001 -0.5s21.5 -1.33301 32.5 -3s21.333 -4.16699 31 -7.5s16.834 -7.66602 21.501 -12.999c6 -6.66699 11 -16 15 -28s7.33301 -24.833 10 -38.5s4.66699 -27 6 -40s2 -23.833 2 -32.5zM608 721.998l-57.5 -113.5l-55.5 -113.5l-27 -56
c-8.66699 -18.667 -16.667 -37.667 -24 -57l-75.5 -196.5l-74.5 -196.5l-132 2l58 123l58 123l33 71l31 72l67.5 171.5l64.5 173.5zM326 571.998c0 -6.66699 -0.331055 -14.832 -0.998047 -24.499s-1.66699 -19.667 -3 -30s-3.5 -20.166 -6.5 -29.499
s-6.5 -16.666 -10.5 -21.999c-6 -7.33301 -16.333 -13.333 -31 -18s-30.834 -8.5 -48.501 -11.5s-34.667 -5.16699 -51 -6.5s-28.833 -2 -37.5 -2c-5.33301 0 -12.166 0.166992 -20.499 0.5s-16.833 1.16602 -25.5 2.49902s-16.667 3.16602 -24 5.49902s-13 5.5 -17 9.5
c-6.66699 7.33301 -12.5 17.666 -17.5 30.999s-9.16699 27.333 -12.5 42s-5.83301 29.167 -7.5 43.5s-2.5 26.166 -2.5 35.499c0 16 1.83301 32.5 5.5 49.5s12.167 31.167 25.5 42.5c6.66699 6 16.167 10.833 28.5 14.5s25.5 6.5 39.5 8.5s27.5 3.33301 40.5 4
s23.833 1 32.5 1c7.33301 0 16.666 -0.333008 27.999 -1s22.833 -2 34.5 -4s22.5 -4.66699 32.5 -8s17.667 -7.66602 23 -12.999c5.33301 -6 9.66602 -14.167 12.999 -24.5s6 -21.333 8 -33s3.33301 -23 4 -34s1 -20.5 1 -28.5zM677.002 134
c0 6 -0.333008 12.6641 -1 19.9971s-2 14.666 -4 21.999s-4.5 14.333 -7.5 21s-6.5 12 -10.5 16c-5.33301 5.33301 -12 8.83301 -20 10.5s-15.667 2.5 -23 2.5c-10.667 0 -22.834 -1.66699 -36.501 -5s-24.167 -8.66602 -31.5 -15.999s-12.166 -16.333 -14.499 -27
s-3.5 -20.667 -3.5 -30c0 -15.333 1.33301 -27.666 4 -36.999s7.16699 -16.666 13.5 -21.999s14.5 -8.83301 24.5 -10.5s22 -2.5 36 -2.5c12.667 0 23.667 0.5 33 1.5s17 3.33301 23 7s10.5 9.33398 13.5 17.001s4.5 18.5 4.5 32.5zM246.002 572.997
c0 9.33301 -1.16602 20.498 -3.49902 33.498s-7.16602 23.167 -14.499 30.5c-5.33301 5.33301 -13.666 8.66602 -24.999 9.99902s-20.666 2 -27.999 2c-3.33301 0 -8.66602 -0.166992 -15.999 -0.5s-14.833 -1.16602 -22.5 -2.49902s-14.834 -3.16602 -21.501 -5.49902
s-11.334 -5.16602 -14.001 -8.49902c-3.33301 -5.33301 -5.5 -11.5 -6.5 -18.5s-1.5 -13.5 -1.5 -19.5s0.5 -13 1.5 -21s2.66699 -16.167 5 -24.5s5.16602 -16 8.49902 -23s7.33301 -12.5 12 -16.5c5.33301 -4.66699 11.166 -7.5 17.499 -8.5s13.166 -1.5 20.499 -1.5
c11.333 0 24.333 2 39 6s26 10 34 18c6 6 10 13.833 12 23.5s3 18.5 3 26.5z" />
    <glyph glyph-name="ampersand" unicode="&#x26;" horiz-adv-x="859" 
d="M859 11l-102.003 -77.0049l-146 104l-38 -22l-38 -21c-40 -21.333 -79.833 -37.833 -119.5 -49.5s-82.5 -17.5 -128.5 -17.5c-22 0 -44.167 1.33301 -66.5 4s-44.5 6.66699 -66.5 12c-13.333 2.66699 -24.666 5.83398 -33.999 9.50098s-17.833 8 -25.5 13
s-15 11.167 -22 18.5s-14.5 16 -22.5 26c-8.66699 11.333 -14 24.333 -16 39s-3 28.667 -3 42c0 19.333 1.33301 38.833 4 58.5s6.66699 38.834 12 57.501c3.33301 12.667 11.666 28.834 24.999 48.501s28.333 39.667 45 60l48.5 57.5l36.5 41
c-5.33301 4 -13.666 10.667 -24.999 20l-36 30.5c-12.667 11 -24.334 21.667 -35.001 32s-17.334 18.166 -20.001 23.499c-5.33301 10 -8 22.333 -8 37c0 11.333 1.5 25.833 4.5 43.5s7.16699 35.834 12.5 54.501s11.5 36 18.5 52s14.833 27.667 23.5 35
c9.33301 8.66699 24.666 15.167 45.999 19.5s44.166 7.5 68.499 9.5s47.833 3.33301 70.5 4s40.667 1.33398 54 2.00098c5.33301 0.666992 11 1 17 1h18c16.667 0 35.334 -1.16699 56.001 -3.5s41.334 -6.33301 62.001 -12s40.334 -13 59.001 -22s34 -20.167 46 -33.5
c3.33301 -3.33301 5.33301 -8.83301 6 -16.5s1 -13.5 1 -17.5c0 -16.667 -2 -34.334 -6 -53.001s-8.66699 -36 -14 -52l-187 -10c0.666992 10 1.16699 19.833 1.5 29.5s0.5 19.167 0.5 28.5c0 1.33301 -0.166992 5.5 -0.5 12.5s-0.666016 14.5 -0.999023 22.5
s-1 15.333 -2 22s-2.5 10.334 -4.5 11.001c-5.33301 2 -10.5 3.16699 -15.5 3.5s-10.5 0.5 -16.5 0.5c-4 0 -10.667 -0.166992 -20 -0.5s-19.333 -1 -30 -2s-20.5 -2.16699 -29.5 -3.5s-14.833 -2.66602 -17.5 -3.99902c-6.66699 -3.33301 -10.667 -10 -12 -20
s-2 -18 -2 -24s0.333008 -12.167 1 -18.5s1.66699 -12.5 3 -18.5c2.66699 -13.333 9.16699 -29 19.5 -47s22 -36 35 -54s26.333 -35 40 -51s25.167 -28.667 34.5 -38c15.333 -16 32.333 -32 51 -48l57.5 -47l59.5 -45l57 -41c10 6 22 13.833 36 23.5s24.667 19.5 32 29.5
l14 17.5c4.66699 5.66699 9.66699 11.167 15 16.5l107 -96c-15.333 -19.333 -31.166 -36.833 -47.499 -52.5s-34.166 -31.5 -53.499 -47.5zM520.997 150.995l-112.496 88l-112.5 89l-22 -26c-9.33301 -11.333 -18.5 -23.166 -27.5 -35.499s-16.833 -24.833 -23.5 -37.5
s-10 -23.334 -10 -32.001c0 -16 6.16699 -31.667 18.5 -47s27.166 -29.166 44.499 -41.499s35.666 -22.333 54.999 -30s36 -11.5 50 -11.5c3.33301 0 6.16602 0.166992 8.49902 0.5s5.16602 1.16602 8.49902 2.49902c7.33301 2.66699 16.833 7.5 28.5 14.5
s23.5 14.667 35.5 23l34 24c10.667 7.66699 19 14.167 25 19.5z" />
    <glyph glyph-name="quotesingle" unicode="'" horiz-adv-x="221" 
d="M190 743c-1.33301 -50.667 -3.66797 -100.833 -7.00098 -150.5s-5.66602 -100.167 -6.99902 -151.5l-116 -6c-3.33301 54 -6.83301 107.5 -10.5 160.5s-8.16699 106.5 -13.5 160.5z" />
    <glyph glyph-name="parenleft" unicode="(" horiz-adv-x="351" 
d="M341 -82c-33.333 23.333 -66.6641 53.334 -99.9971 90.001s-63.333 76.667 -90 120s-48.334 88.333 -65.001 135s-25 91.667 -25 135c0 41.333 5.33301 82.5 16 123.5s25.167 80.833 43.5 119.5s39.666 75.667 63.999 111s50.166 68 77.499 98l25 -75
c-20 -20 -36.5 -43.167 -49.5 -69.5s-23.167 -54 -30.5 -83s-12.5 -58.333 -15.5 -88s-4.5 -57.834 -4.5 -84.501c0 -34 3.16699 -72.5 9.5 -115.5s15.833 -85.833 28.5 -128.5s28.5 -82.667 47.5 -120s40.833 -67 65.5 -89z" />
    <glyph glyph-name="parenright" unicode=")" horiz-adv-x="353" 
d="M292 372c0 -42 -7.16602 -84.498 -21.499 -127.498s-33 -84.833 -56 -125.5s-49.167 -78.834 -78.5 -114.501s-58.666 -66.834 -87.999 -93.501l-17 75c24.667 21.333 45.5 47.666 62.5 78.999s30.667 64.833 41 100.5s17.833 71.834 22.5 108.501s7 70.667 7 102
c0 28 -2 60.167 -6 96.5s-10.5 72.833 -19.5 109.5s-20.5 71.167 -34.5 103.5s-31 58.833 -51 79.5l4 79c32.667 -26 63.167 -57.167 91.5 -93.5s53.166 -75.333 74.499 -117s38.166 -85 50.499 -130s18.5 -88.833 18.5 -131.5z" />
    <glyph glyph-name="asterisk" unicode="*" horiz-adv-x="538" 
d="M507 515c-34 -3.33301 -67.334 -5.33301 -100.001 -6s-66 -1.66699 -100 -3c29.333 -19.333 56.833 -39.833 82.5 -61.5l78.5 -64.5l-123 -76c-7.33301 14 -15.333 30.667 -24 50l-25 56l-28 64l-47 -52l-43 -50c-15.333 -18 -28.666 -35.667 -39.999 -53l-94 91l84.5 45
c25.667 14 51.5 32.333 77.5 55c-28 20.667 -56.667 40 -86 58l-89 53l92 82l60.5 -73.5c21 -25 44.833 -46.167 71.5 -63.5l17 51c4.66699 14.667 8.5 29 11.5 43s5.83301 28.5 8.5 43.5s6 32.167 10 51.5c22 -6 43.667 -12.5 65 -19.5s43 -12.5 65 -16.5l-34 -42
l-28.5 -37c-9 -12 -18 -24.667 -27 -38l-29.5 -45l173 70z" />
    <glyph glyph-name="plus" unicode="+" horiz-adv-x="542" 
d="M511 414l-3 -73c-32 -3.33301 -63.167 -5.66602 -93.5 -6.99902s-61.166 -3 -92.499 -5c0 -35.333 0.5 -70.5 1.5 -105.5s2.16699 -70.167 3.5 -105.5l-89 1c-2.66699 34.667 -4.5 69.167 -5.5 103.5s-2.5 69.166 -4.5 104.499h-191l-6 77c32 0 64.167 0.666992 96.5 2
l96.5 4l-4 191l86 1c2 -32 4.33301 -63.333 7 -94s5.66699 -62 9 -94l46.5 2c15.667 0.666992 31.167 1 46.5 1s31.166 -0.333008 47.499 -1z" />
    <glyph glyph-name="comma" unicode="," horiz-adv-x="279" 
d="M248 2c0 -23.333 -4.5 -45.666 -13.5 -66.999s-19.167 -42 -30.5 -62h-110c14 16 27.667 32.667 41 50s20 37.666 20 60.999v11l-95 2c-4 9.33301 -8.16699 21.833 -12.5 37.5s-6.5 28.5 -6.5 38.5c0 13.333 3.33301 27 10 41s14.667 26.333 24 37l150 -13
c15.333 -44.667 23 -90 23 -136z" />
    <glyph glyph-name="hyphen" unicode="-" horiz-adv-x="446" 
d="M416 318h-385l4 81c60.667 2 122.667 3 186 3h187z" />
    <glyph glyph-name="period" unicode="." horiz-adv-x="250" 
d="M209 37l-0.000976562 -13.0029c0 -5.33301 -0.333008 -10.666 -1 -15.999s-1.66699 -10.5 -3 -15.5s-3 -8.5 -5 -10.5c-2.66699 -2 -8 -3.83301 -16 -5.5s-16.667 -3 -26 -4s-18.166 -1.66699 -26.499 -2s-14.5 -0.5 -18.5 -0.5s-8.83301 0.166992 -14.5 0.5
s-11.5 0.833008 -17.5 1.5s-11.5 1.83398 -16.5 3.50098s-8.5 3.83398 -10.5 6.50098c-2.66699 2.66699 -4.83398 7.5 -6.50098 14.5s-3 14.5 -4 22.5s-1.66699 15.667 -2 23s-0.5 13 -0.5 17c0 8 0.666992 18.333 2 31s5 21.667 11 27c2 2 6.83301 3.5 14.5 4.5s16 2 25 3
s17.833 1.66699 26.5 2s14.667 0.5 18 0.5c7.33301 0 17.833 -0.5 31.5 -1.5s23.167 -3.83301 28.5 -8.5c2 -3.33301 3.83301 -8.5 5.5 -15.5s2.83398 -14.667 3.50098 -23s1.16699 -16.333 1.5 -24s0.5 -13.5 0.5 -17.5z" />
    <glyph glyph-name="slash" unicode="/" horiz-adv-x="504" 
d="M524 753l-95 -174.501l-98 -172.5l-116.5 -210.5l-113.5 -212.5l-121 -10l98.5 197.5c33 65.667 67.833 130.834 104.5 195.501l112 193.5l113 193.5h116z" />
    <glyph glyph-name="zero" unicode="0" horiz-adv-x="729" 
d="M678 472v-48.4971c0 -20.333 -0.333008 -43 -1 -68s-1.66699 -50.667 -3 -77s-3.33301 -51.333 -6 -75s-6.16699 -44.5 -10.5 -62.5s-9.5 -31 -15.5 -39c-8 -9.33301 -17.167 -19.5 -27.5 -30.5s-21.5 -21.667 -33.5 -32s-24.167 -19.5 -36.5 -27.5
s-24.5 -13.667 -36.5 -17c-10.667 -3.33301 -25.5 -6 -44.5 -8s-38.667 -3.5 -59 -4.5s-40.166 -1.66699 -59.499 -2s-35 -0.5 -47 -0.5h-25.5c-11 0 -22.5 0.5 -34.5 1.5s-23.333 2.16699 -34 3.5s-18.334 3.66602 -23.001 6.99902
c-14.667 9.33301 -28.167 20.5 -40.5 33.5s-23.166 27.167 -32.499 42.5c-8.66699 14 -15.334 30 -20.001 48s-8.66699 35.333 -12 52c-3.33301 18.667 -6.5 39.167 -9.5 61.5s-5.66699 45.166 -8 68.499s-4.16602 46.333 -5.49902 69s-2 44 -2 64
c0 11.333 0.666992 29.166 2 53.499s3.5 49.5 6.5 75.5s6.83301 50.5 11.5 73.5s10.667 38.833 18 47.5c7.33301 9.33301 18.666 17.833 33.999 25.5s32.666 14.5 51.999 20.5s39.833 11.167 61.5 15.5s42.834 8 63.501 11s39.667 5.16699 57 6.5s31.333 2 42 2
c11.333 0 24 -0.166992 38 -0.5s28.167 -1.16602 42.5 -2.49902s28.166 -3.33301 41.499 -6s25.333 -6.33398 36 -11.001c8.66699 -4 19 -10.167 31 -18.5s23.5 -17.5 34.5 -27.5s21 -20.333 30 -31s15.167 -20 18.5 -28c2 -4 3.33301 -13.833 4 -29.5
s1.33398 -32.5 2.00098 -50.5s1 -35.167 1 -51.5v-33.5zM482 354.003c0 7.33301 -0.329102 18.8291 -0.996094 34.4961s-1.5 33.334 -2.5 53.001s-2.16699 40 -3.5 61s-3.16602 40.833 -5.49902 59.5s-4.83301 34.834 -7.5 48.501s-5.66699 22.834 -9 27.501
c-5.33301 7.33301 -13.333 11.833 -24 13.5s-20.334 2.5 -29.001 2.5c-7.33301 0 -17.833 -0.666992 -31.5 -2s-27.834 -3.5 -42.501 -6.5s-28.334 -6.5 -41.001 -10.5s-21.667 -8.66699 -27 -14c-8 -8 -14.167 -23.833 -18.5 -47.5s-7.5 -49.5 -9.5 -77.5
s-3.16699 -55 -3.5 -81s-0.5 -45.333 -0.5 -58c0 -7.33301 0.333008 -18.5 1 -33.5s1.5 -32 2.5 -51s2.33301 -38.667 4 -59s3.5 -39.333 5.5 -57s4.16699 -32.667 6.5 -45s5.16602 -20.166 8.49902 -23.499c2.66699 -2.66699 6.5 -4.66699 11.5 -6s10.5 -2.33301 16.5 -3
s11.667 -1 17 -1h13c7.33301 0 16.5 0.333008 27.5 1s22.333 1.66699 34 3s22.667 3 33 5s18.833 4.66699 25.5 8s12.667 11 18 23s9.83301 26.333 13.5 43s6.66699 34.5 9 53.5s4.16602 37.5 5.49902 55.5s2.33301 34.5 3 49.5s1 26.5 1 34.5z" />
    <glyph glyph-name="one" unicode="1" horiz-adv-x="426" 
d="M349 3c-40.667 3.33301 -80.832 5.83203 -120.499 7.49902s-79.5 2.83398 -119.5 3.50098l27 534l-80 8c10.667 32 18 64 22 96s8.66699 64.333 14 97l215 6c8 -126 15.167 -251.333 21.5 -376s13.166 -250 20.499 -376z" />
    <glyph glyph-name="two" unicode="2" horiz-adv-x="666" 
d="M625 239c-1.33301 -40 -2.33594 -79.999 -3.00293 -119.999s-2 -80 -4 -120l-523 -19c-3.33301 50.667 -7.16602 101.167 -11.499 151.5s-8.5 101.166 -12.5 152.499c26.667 10 54 21.167 82 33.5s55.333 26.166 82 41.499s52.334 32 77.001 50s46.667 37.667 66 59
c10 11.333 18.833 22.5 26.5 33.5s11.5 24.167 11.5 39.5c0 36 -7.16699 59.833 -21.5 71.5s-37.166 17.5 -68.499 17.5c-13.333 0 -26.833 -0.166992 -40.5 -0.5s-26.5 -1.5 -38.5 -3.5c-19.333 -3.33301 -31.166 -9.66602 -35.499 -18.999s-6.5 -23 -6.5 -41
c0 -5.33301 0.166992 -11 0.5 -17s0.833008 -12 1.5 -18l-155 -21c-4 30 -6 59.667 -6 89c0 7.33301 0.5 18 1.5 32s3 28.333 6 43s6.83301 28.334 11.5 41.001s11 21.334 19 26.001c12 7.33301 31 13.666 57 18.999s53.833 9.5 83.5 12.5s58.167 5.16699 85.5 6.5
s48.333 2 63 2c25.333 0 49.166 -0.666992 71.499 -2s42.666 -5.5 60.999 -12.5s34.166 -18.333 47.499 -34s23.333 -37.5 30 -65.5c3.33301 -15.333 5.33301 -31 6 -47s1 -31.667 1 -47c0 -6 -0.166992 -14 -0.5 -24s-0.833008 -20.333 -1.5 -31s-2 -20.667 -4 -30
s-4.33301 -17 -7 -23c-4 -7.33301 -11.833 -16.833 -23.5 -28.5s-24.5 -23.334 -38.5 -35.001l-41 -33l-31 -23.5c-11.333 -8 -23.166 -15.5 -35.499 -22.5s-24.166 -14.167 -35.499 -21.5l-66.5 -37.5l-67.5 -36.5c128.667 2 257.667 6 387 12z" />
    <glyph glyph-name="three" unicode="3" horiz-adv-x="684" 
d="M653 205c0 -10 -0.501953 -21.9971 -1.50195 -35.9971s-2.66699 -28.167 -5 -42.5s-5.5 -28.166 -9.5 -41.499s-9 -24 -15 -32c-7.33301 -9.33301 -21.166 -18.166 -41.499 -26.499s-42.333 -15.833 -66 -22.5s-46.667 -12.167 -69 -16.5s-39.166 -7.5 -50.499 -9.5
c-36 -5.33301 -74 -8.66602 -114 -9.99902s-78.333 -2 -115 -2c-17.333 0 -34.833 0.166992 -52.5 0.5s-35.5 0.833008 -53.5 1.5v146c0 32 1 64 3 96h39.5h67.5c25.333 0 52 0.166992 80 0.5s53.833 1 77.5 2s43.5 2 59.5 3s25 2.5 27 4.5
c3.33301 3.33301 5.33301 6.16602 6 8.49902s1 6.16602 1 11.499c0 10 -2.16699 21.5 -6.5 34.5s-9.83301 23.833 -16.5 32.5c-1.33301 2 -8.16602 3.83301 -20.499 5.5s-27.166 3.16699 -44.499 4.5s-36.166 2.33301 -56.499 3s-39.5 1.16699 -57.5 1.5
s-33.333 0.666016 -46 0.999023s-20.334 0.5 -23.001 0.5c-2.66699 12.667 -4 26.667 -4 42v45l258 129c-57.333 1.33301 -114.5 2.83301 -171.5 4.5s-114.5 2.5 -172.5 2.5c0.666992 16.667 1.16699 33 1.5 49s0.5 32 0.5 48c0 14.667 -0.666992 29 -2 43l-4 43
c78.667 5.33301 156.667 10.333 234 15s155.333 7 234 7h60c0.666992 -22.667 1 -45.334 1 -68.001v-68c0 -21.333 -0.166992 -42.333 -0.5 -63s-0.833008 -41.667 -1.5 -63c-60.667 -28.667 -120.334 -59 -179.001 -91c4.66699 -1.33301 12.667 -3.16602 24 -5.49902
s24.166 -5.16602 38.499 -8.49902l45.5 -11c16 -4 31.167 -8 45.5 -12s26.833 -7.83301 37.5 -11.5s18 -6.83398 22 -9.50098c9.33301 -7.33301 16.5 -16.333 21.5 -27s8.5 -22.334 10.5 -35.001s3.16699 -25.334 3.5 -38.001s0.5 -24.334 0.5 -35.001z" />
    <glyph glyph-name="four" unicode="4" horiz-adv-x="695" 
d="M665 323l-93.002 -2.00098c0 -54 0.833008 -107.5 2.5 -160.5s4.16699 -106.5 7.5 -160.5l-223 -11c-1.33301 52 -2.16602 104.333 -2.49902 157s-1.16602 105.334 -2.49902 158.001l-308 -7c3.33301 72.667 6 145.334 8 218.001s4.66699 145.334 8 218.001l124 11
c9.33301 -46.667 17.5 -93.5 24.5 -140.5s13.5 -94.167 19.5 -141.5l119 3c1.33301 22 2.5 44 3.5 66s1.5 44 1.5 66c0 27.333 -0.333008 54.666 -1 81.999s-1.66699 54.666 -3 81.999c13.333 0 26.333 0.166992 39 0.5s25.667 0.5 39 0.5
c25.333 0 50.833 -0.666992 76.5 -2l77.5 -4l2 -277l66 2c5.33301 -25.333 8.83301 -51.5 10.5 -78.5s3.16699 -53.5 4.5 -79.5z" />
    <glyph glyph-name="five" unicode="5" horiz-adv-x="705" 
d="M674 611l-199.501 -17.999c-66.333 -6 -133.166 -13.667 -200.499 -23l4 -124c14.667 0 35.167 -0.833008 61.5 -2.5s53.666 -4.16699 81.999 -7.5s55.166 -7.83301 80.499 -13.5s45 -12.5 59 -20.5c23.333 -14 41.166 -29.333 53.499 -46s21 -34.667 26 -54
s7.66699 -40 8 -62s0.5 -45.333 0.5 -70v-16.5c0 -7 -0.333008 -14.167 -1 -21.5l-2 -21c-0.666992 -6.66699 -2 -12 -4 -16c-5.33301 -11.333 -14.666 -23.5 -27.999 -36.5s-28 -25.167 -44 -36.5s-32.167 -21.333 -48.5 -30s-30.833 -14.334 -43.5 -17.001
c-14 -3.33301 -28.5 -5.33301 -43.5 -6s-29.833 -1.66699 -44.5 -3c-25.333 -1.33301 -50.5 -2.5 -75.5 -3.5s-50.167 -1.5 -75.5 -1.5h-18c-7.33301 0 -15 0.166992 -23 0.5s-15.5 0.833008 -22.5 1.5s-12.5 1.66699 -16.5 3
c-21.333 7.33301 -38.666 19.166 -51.999 35.499s-23.666 35.166 -30.999 56.499c-2 6 -3.83301 16 -5.5 30s-3.16699 29 -4.5 45s-2.5 31.333 -3.5 46s-1.5 25 -1.5 31l231 6c-3.33301 -18.667 -5 -36 -5 -52c0 -11.333 2.33301 -19.833 7 -25.5
s10.834 -9.66699 18.501 -12s16.167 -3.5 25.5 -3.5h28c15.333 0 28.333 1.16699 39 3.5s19.5 6.5 26.5 12.5s12.167 14.333 15.5 25s5 24.334 5 41.001c0 13.333 -2.33301 26.833 -7 40.5s-13.667 23.167 -27 28.5c-14 6.66699 -31 11.834 -51 15.501
s-40.833 6.5 -62.5 8.5s-43 3.16699 -64 3.5s-38.833 0.5 -53.5 0.5c-16 0 -32.167 -0.166992 -48.5 -0.5s-32.833 -0.833008 -49.5 -1.5l-17 438h70c87.333 0 173.666 1.16699 258.999 3.5s171.333 4.83301 258 7.5z" />
    <glyph glyph-name="six" unicode="6" horiz-adv-x="710" 
d="M674 468l-245.003 -18c0.666992 12 1.16699 24.333 1.5 37s0.5 25 0.5 37v13.5c0 7.66699 -0.333008 16 -1 25s-1.33398 17.167 -2.00098 24.5s-1.66699 11.666 -3 12.999c-2.66699 1.33301 -6.5 2.5 -11.5 3.5s-10.167 1.66699 -15.5 2s-10.5 0.5 -15.5 0.5h-11.5
c-25.333 0 -46.666 -1.33301 -63.999 -4s-31.166 -8.33398 -41.499 -17.001s-17.833 -21.167 -22.5 -37.5s-7 -37.833 -7 -64.5s0.666992 -53.167 2 -79.5l4 -78.5c8.66699 8.66699 21.167 15.834 37.5 21.501s33.666 10.167 51.999 13.5s36.5 5.66602 54.5 6.99902
s33.667 2 47 2c8.66699 0 22.167 -0.5 40.5 -1.5s37.333 -3 57 -6s37.667 -7.33301 54 -13s26.5 -13.5 30.5 -23.5c4 -8.66699 7.5 -21.5 10.5 -38.5s5.5 -35 7.5 -54s3.66699 -37.333 5 -55s2 -31.167 2 -40.5c0 -10 -0.5 -21.167 -1.5 -33.5
s-3.16699 -23.166 -6.5 -32.499c-10.667 -28 -27.834 -52.333 -51.501 -73s-49.5 -34.667 -77.5 -42c-15.333 -4 -32 -6.16699 -50 -6.5s-35 -0.5 -51 -0.5c-14 0 -31.5 0.333008 -52.5 1s-42.667 2.16699 -65 4.5s-43.5 5.5 -63.5 9.5s-36 9.33301 -48 16
c-35.333 18.667 -62.166 40.834 -80.499 66.501s-29.833 58.167 -34.5 97.5c-1.33301 9.33301 -2 18.666 -2 27.999v28c0 14.667 0.333008 33.667 1 57s1.66699 48.833 3 76.5s3.16602 56.5 5.49902 86.5s5 58.333 8 85s6.66699 50.834 11 72.501s9.5 38.5 15.5 50.5
c14 28.667 29.333 51 46 67s35.334 27.5 56.001 34.5s43.167 11.167 67.5 12.5s51.5 2 81.5 2c14.667 0 35.834 -0.166992 63.501 -0.5s56.167 -1.33301 85.5 -3s56.666 -4.5 81.999 -8.5s43 -10 53 -18c4.66699 -4 8.83398 -12 12.501 -24s6.83398 -26.167 9.50098 -42.5
s5 -34 7 -53l5.5 -54c1.66699 -17 2.83398 -32 3.50098 -45s1 -22.167 1 -27.5zM476.997 183c0 16.667 -1.50293 30.1689 -4.50293 40.502s-7.66699 18.166 -14 23.499s-15 9 -26 11s-24.5 3 -40.5 3c-6.66699 0 -18.5 -0.833008 -35.5 -2.5s-34.667 -3.83398 -53 -6.50098
s-35.666 -5.83398 -51.999 -9.50098s-26.833 -7.83398 -31.5 -12.501c-6 -5.33301 -9.66699 -14.166 -11 -26.499s-2 -22.166 -2 -29.499c0 -4 0.166992 -9.16699 0.5 -15.5s0.833008 -12.833 1.5 -19.5s1.66699 -13 3 -19s3 -11 5 -15c2.66699 -4 12.334 -7.5 29.001 -10.5
s35 -5.33301 55 -7s39 -2.83398 57 -3.50098s30 -1 36 -1h11.5c5 0 10.5 0.166992 16.5 0.5s11.5 0.833008 16.5 1.5s8.83301 1.66699 11.5 3c4.66699 2.66699 8.83398 8.16699 12.501 16.5s6.5 17.5 8.5 27.5s3.5 19.833 4.5 29.5s1.5 16.834 1.5 21.501z" />
    <glyph glyph-name="seven" unicode="7" horiz-adv-x="600" 
d="M595 597c-48 -104.667 -98.6689 -207 -152.002 -307l-159 -301h-227l70 103l70 106l40.5 64l40.5 66c25.333 45.333 49.333 91.666 72 138.999l66 143c-7.33301 0.666992 -14.166 1 -20.499 1h-20.5c-19.333 0 -40.666 -1 -63.999 -3s-44 -6.33301 -62 -13l3 -88
l-187 -10c-5.33301 38 -9 76.333 -11 115s-4.66699 77.667 -8 117l266.5 14c88.333 4.66699 177.5 8.33398 267.5 11.001z" />
    <glyph glyph-name="eight" unicode="8" horiz-adv-x="720" 
d="M658 116c0 -10.667 -0.5 -23.334 -1.5 -38.001s-4.16699 -26.667 -9.5 -36c-3.33301 -5.33301 -7.83301 -11.666 -13.5 -18.999s-12.167 -14.5 -19.5 -21.5s-14.666 -13.167 -21.999 -18.5s-14 -9 -20 -11c-2.66699 -0.666992 -8.16699 -1.33398 -16.5 -2.00098
s-18.666 -1.16699 -30.999 -1.5s-26 -0.5 -41 -0.5h-44.5h-118c-20 -0.666992 -39.667 -1 -59 -1h-53c-18.667 0 -35 0.666992 -49 2c-11.333 0.666992 -21.833 7.33398 -31.5 20.001s-18.167 27.334 -25.5 44.001s-13.5 33.334 -18.5 50.001s-8.5 29.667 -10.5 39
c-3.33301 12 -5.33301 23.333 -6 34s-1 22 -1 34c0 10 0.333008 21.667 1 35s2.16699 26.666 4.5 39.999s5.83301 26 10.5 38s11 21.667 19 29c3.33301 2.66699 8.5 5.5 15.5 8.5s14.5 6 22.5 9l22.5 8.5c7 2.66699 12.5 4.66699 16.5 6c-5.33301 1.33301 -12 3.5 -20 6.5
s-16 6.5 -24 10.5s-15.333 8.66699 -22 14s-11 11 -13 17c-3.33301 9.33301 -6.5 20.333 -9.5 33s-5.83301 25.834 -8.5 39.501s-4.66699 27 -6 40s-2 24.5 -2 34.5v30c0 13.333 0.5 27 1.5 41s2.33301 27 4 39s4.5 20.667 8.5 26c10 13.333 20.833 24 32.5 32
s24 14.167 37 18.5s26.667 7.16602 41 8.49902s29.166 2.33301 44.499 3c24.667 0.666992 49 1.16699 73 1.5s48.333 0.5 73 0.5h30.5h40.5c14 0 27.333 -0.333008 40 -1s22 -1.66699 28 -3c11.333 -2.66699 23.166 -10.334 35.499 -23.001s24 -27 35 -43
s20.333 -32.167 28 -48.5s12.167 -29.833 13.5 -40.5c2.66699 -16 4 -32.167 4 -48.5v-48.5v-17c0 -7.33301 -0.166992 -14.833 -0.5 -22.5s-0.833008 -15 -1.5 -22s-1.66699 -12.167 -3 -15.5c-1.33301 -2.66699 -6.16602 -7.33398 -14.499 -14.001
s-17.666 -13.667 -27.999 -21l-29 -20.5l-16.5 -11.5c6.66699 -3.33301 14.667 -7.66602 24 -12.999s18.666 -11.5 27.999 -18.5s17.666 -14.5 24.999 -22.5s12 -16 14 -24c2.66699 -11.333 5 -24 7 -38s3.66699 -28.5 5 -43.5s2.33301 -29.833 3 -44.5s1 -27.667 1 -39z
M464 512c0 6 -0.329102 16.668 -0.996094 32.001s-2 31.166 -4 47.499s-4.5 31.5 -7.5 45.5s-6.83301 23 -11.5 27c-2 2 -5.66699 3.5 -11 4.5s-10.833 1.66699 -16.5 2l-17 1c-5.66699 0.333008 -9.83398 0.5 -12.501 0.5c-4.66699 0 -14.5 -0.333008 -29.5 -1
s-30.833 -1.66699 -47.5 -3s-32 -3 -46 -5s-22.667 -4.33301 -26 -7c-4 -3.33301 -7.5 -9.16602 -10.5 -17.499s-5.66699 -17.5 -8 -27.5s-4.16602 -19.833 -5.49902 -29.5s-2 -16.834 -2 -21.501c0 -5.33301 0.333008 -14.333 1 -27s1.66699 -25.667 3 -39
s3.16602 -25.833 5.49902 -37.5s5.16602 -19.167 8.49902 -22.5s8.16602 -5.83301 14.499 -7.5s13.166 -3 20.499 -4s14.333 -1.5 21 -1.5h17c9.33301 0 21.5 -0.166992 36.5 -0.5s30.167 0 45.5 1s29.833 3.16699 43.5 6.5s23.5 8.33301 29.5 15
c2 2.66699 3.66699 7.16699 5 13.5s2.33301 13 3 20s1.16699 13.833 1.5 20.5s0.5 11.667 0.5 15zM475.004 217.001c0 6.66699 -0.331055 14.1729 -0.998047 22.5059s-2 16.5 -4 24.5s-4.83301 15.5 -8.5 22.5s-8.5 12.5 -14.5 16.5
c-4.66699 3.33301 -12.834 5.16602 -24.501 5.49902s-20.834 0.5 -27.501 0.5s-18 -0.333008 -34 -1s-32.833 -1.83398 -50.5 -3.50098s-34.167 -3.83398 -49.5 -6.50098s-25.333 -6 -30 -10c-4 -3.33301 -7.5 -8.83301 -10.5 -16.5s-5.5 -16 -7.5 -25
s-3.66699 -17.833 -5 -26.5s-2 -15.334 -2 -20.001c0 -6 1 -15.167 3 -27.5s4.66699 -25 8 -38s7.33301 -24.667 12 -35s10 -16.833 16 -19.5c1.33301 -0.666992 3.66602 -1.16699 6.99902 -1.5s7 -0.5 11 -0.5h11h8c4.66699 0 15.334 0.166992 32.001 0.5
s34 0.833008 52 1.5s34.667 1.66699 50 3s24.333 2.66602 27 3.99902c5.33301 2.66699 10 10 14 22s7.33301 25 10 39s4.66699 27.667 6 41s2 22.666 2 27.999z" />
    <glyph glyph-name="nine" unicode="9" horiz-adv-x="716" 
d="M654 393l0.00292969 -39.0078c0 -18.667 -0.333008 -40.167 -1 -64.5s-1.5 -49.666 -2.5 -75.999s-2.5 -51.166 -4.5 -74.499s-4.66699 -43.333 -8 -60s-7.33301 -27.334 -12 -32.001c-13.333 -12.667 -32.166 -23.167 -56.499 -31.5s-50.5 -15.166 -78.5 -20.499
s-55.5 -9.16602 -82.5 -11.499s-49.5 -3.5 -67.5 -3.5c-37.333 0 -74.166 1.16699 -110.499 3.5s-72.833 5.5 -109.5 9.5c-6 32.667 -9 66 -9 100v93c38 -4 76.667 -7.83301 116 -11.5s78.666 -5.5 117.999 -5.5c10.667 0 23.167 0.333008 37.5 1
s27.833 2.83398 40.5 6.50098s23.334 9.5 32.001 17.5s13 19 13 33c0 12.667 -0.666992 25 -2 37s-3 24.333 -5 37c-18.667 -7.33301 -37.834 -12.5 -57.501 -15.5s-39.167 -4.5 -58.5 -4.5c-6 0 -15.833 0.166992 -29.5 0.5s-29.334 1 -47.001 2s-36 2.16699 -55 3.5
s-36.833 3 -53.5 5s-30.834 4.33301 -42.501 7s-19.167 5.66699 -22.5 9c-7.33301 8.66699 -14 21.834 -20 39.501s-11.167 36.5 -15.5 56.5s-7.83301 39.333 -10.5 58s-4 33 -4 43c0 10.667 1 27.834 3 51.501s4.83301 48.334 8.5 74.001s8.33398 49.167 14.001 70.5
s12.167 35.333 19.5 42c5.33301 4.66699 15.166 9 29.499 13s31.333 7.83301 51 11.5s40.667 6.83398 63 9.50098s43.666 5 63.999 7s38.833 3.5 55.5 4.5s29 1.5 37 1.5c7.33301 0 18 -0.333008 32 -1s29.5 -2 46.5 -4s34.5 -4.5 52.5 -7.5s35 -6.5 51 -10.5
s29.833 -8.83301 41.5 -14.5s19.5 -12.167 23.5 -19.5c2 -4 3.83301 -14.167 5.5 -30.5s3.16699 -36 4.5 -59s2.33301 -47.667 3 -74s1.16699 -51.5 1.5 -75.5s0.666016 -45.167 0.999023 -63.5s0.5 -30.833 0.5 -37.5zM508.003 486.992c0 8 -0.666016 20.667 -1.99902 38
s-3.33301 35.333 -6 54s-6 36 -10 52s-8.66699 27 -14 33c-3.33301 4 -8.33301 7 -15 9s-13.834 3.5 -21.501 4.5s-15.334 1.66699 -23.001 2s-13.834 0.5 -18.501 0.5c-6.66699 0 -17 -0.5 -31 -1.5s-28.5 -2.5 -43.5 -4.5s-29 -4.66699 -42 -8s-21.833 -7.33301 -26.5 -12
c-4 -4 -7.16699 -10.667 -9.5 -20s-4 -19 -5 -29s-1.66699 -19.833 -2 -29.5s-0.5 -17.167 -0.5 -22.5c0 -7.33301 0.333008 -19.5 1 -36.5s2.33398 -34.5 5.00098 -52.5s6.16699 -34.333 10.5 -49s10.166 -23.667 17.499 -27c5.33301 -2 11.833 -3.16699 19.5 -3.5
s14.167 -0.5 19.5 -0.5c8.66699 0 21.834 0.666992 39.501 2s35.834 3.16602 54.501 5.49902s36.167 5.33301 52.5 9s27.833 7.83398 34.5 12.501c4 2.66699 7 7.16699 9 13.5s3.5 13.333 4.5 21s1.66699 15.167 2 22.5s0.5 13 0.5 17z" />
    <glyph glyph-name="colon" unicode=":" horiz-adv-x="251" 
d="M209 322l-0.00195312 -13.002c0 -5.33301 -0.333008 -10.833 -1 -16.5s-1.66699 -10.834 -3 -15.501s-3 -8 -5 -10c-2.66699 -2 -8 -3.83301 -16 -5.5s-16.667 -2.83398 -26 -3.50098s-18.166 -1.16699 -26.499 -1.5s-14.5 -0.5 -18.5 -0.5h-14.5
c-5.66699 0 -11.5 0.333008 -17.5 1s-11.5 1.83398 -16.5 3.50098s-8.5 3.83398 -10.5 6.50098c-2.66699 3.33301 -4.83398 8.5 -6.50098 15.5s-3 14.333 -4 22s-1.66699 15.334 -2 23.001s-0.5 13.5 -0.5 17.5s0.166992 8.66699 0.5 14s0.833008 10.666 1.5 15.999
s1.83398 10.333 3.50098 15s4.16699 8.33398 7.5 11.001c2 2 6.83301 3.83301 14.5 5.5s16 2.83398 25 3.50098s17.833 1.16699 26.5 1.5s14.667 0.5 18 0.5c7.33301 0 17.833 -0.5 31.5 -1.5s23.167 -4.16699 28.5 -9.5c2 -2.66699 3.83301 -7.5 5.5 -14.5
s2.83398 -14.667 3.50098 -23s1.16699 -16.333 1.5 -24s0.5 -13.5 0.5 -17.5zM209.998 43.998l-0.000976562 -12.498c0 -5 -0.333008 -10.333 -1 -16s-1.66699 -10.834 -3 -15.501s-3 -8 -5 -10c-2.66699 -2 -8 -3.83301 -16 -5.5s-16.667 -3 -26 -4
s-18.166 -1.66699 -26.499 -2s-14.5 -0.5 -18.5 -0.5h-13.5c-5.66699 0 -11.5 0.5 -17.5 1.5s-11.667 2.16699 -17 3.5s-9 3.66602 -11 6.99902c-2 2.66699 -3.83301 7.5 -5.5 14.5s-3 14.5 -4 22.5s-1.83301 15.833 -2.5 23.5s-1 13.5 -1 17.5s0.166992 8.66699 0.5 14
s0.833008 10.666 1.5 15.999s1.83398 10.333 3.50098 15s4.16699 8.33398 7.5 11.001c2 2 6.83301 3.66699 14.5 5s16.167 2.33301 25.5 3s18.333 1.16699 27 1.5s14.667 0.5 18 0.5c7.33301 0 17.666 -0.333008 30.999 -1s22.666 -3.66699 27.999 -9
c2 -2.66699 3.83301 -7.5 5.5 -14.5s2.83398 -14.667 3.50098 -23s1.16699 -16.5 1.5 -24.5s0.5 -14 0.5 -18z" />
    <glyph glyph-name="semicolon" unicode=";" horiz-adv-x="291" 
d="M209 327c0 -6.66699 -0.333008 -16.334 -1 -29.001s-3.33398 -21.334 -8.00098 -26.001c-2.66699 -2 -8 -3.83301 -16 -5.5s-16.667 -2.83398 -26 -3.50098s-18.166 -1.16699 -26.499 -1.5s-14.5 -0.5 -18.5 -0.5h-14.5c-5.66699 0 -11.5 0.333008 -17.5 1
s-11.5 1.83398 -16.5 3.50098s-8.5 3.83398 -10.5 6.50098c-2.66699 3.33301 -4.83398 8.5 -6.50098 15.5s-3 14.333 -4 22s-1.66699 15.334 -2 23.001s-0.5 13.5 -0.5 17.5c0 8 0.666992 18.167 2 30.5s5 21.166 11 26.499c2 2 6.83301 3.66699 14.5 5s16 2.33301 25 3
s17.833 1.16699 26.5 1.5s14.667 0.5 18 0.5h13.5c5.66699 0 11.5 -0.333008 17.5 -1s11.667 -1.66699 17 -3s9.33301 -3.33301 12 -6c2 -2.66699 3.83301 -7.66699 5.5 -15s2.83398 -15.166 3.50098 -23.499s1.16699 -16.333 1.5 -24s0.5 -13.5 0.5 -17.5zM250 2
c0 -23.333 -4.66699 -45.667 -14 -67s-19.666 -42 -30.999 -62h-109l21 24.5c7.33301 8.33301 14 17 20 26s10.833 18.5 14.5 28.5s5.5 20.667 5.5 32c0 1.33301 -0.166992 3 -0.5 5s-0.5 4 -0.5 6l-95 2c-4 9.33301 -8.16699 21.833 -12.5 37.5s-6.5 28.5 -6.5 38.5
c0 13.333 3.33301 27 10 41s14.667 26.333 24 37l150 -13c7.33301 -22 13.166 -44.333 17.499 -67s6.5 -45.667 6.5 -69z" />
    <glyph glyph-name="less" unicode="&#x3c;" horiz-adv-x="355" 
d="M325 103l-17 -101.999l-148 135.5l-150 136.5l72 58c24.667 19.333 48 39.666 70 60.999l78 77.5l78 76.5v-116c-28 -30 -57.333 -59.167 -88 -87.5s-60 -57.833 -88 -88.5l44.5 -35l45.5 -33c18 -11.333 35.667 -24.333 53 -39z" />
    <glyph glyph-name="equal" unicode="=" horiz-adv-x="454" 
d="M416 388h-385l4 81c60.667 2 122.667 3 186 3h187zM423 317l-3 -80.001c-62.667 -3.33301 -125 -5.16602 -187 -5.49902s-124.333 -0.833008 -187 -1.5l-8 84z" />
    <glyph glyph-name="greater" unicode="&#x3e;" horiz-adv-x="355" 
d="M345 273l-149.499 -136.502l-148.5 -135.5l-16 102c15.333 14.667 31.666 29.334 48.999 44.001s35 27.667 53 39c16 10.667 31.5 21.667 46.5 33s29.5 23 43.5 35c-28 30.667 -57.333 60.167 -88 88.5s-60 57.5 -88 87.5v116l78.5 -76.5l78.5 -77.5
c21.333 -21.333 44.333 -41.666 69 -60.999z" />
    <glyph glyph-name="question" unicode="?" horiz-adv-x="652" 
d="M627 478l0.00195312 -23.499c0 -11 -0.333008 -22.833 -1 -35.5s-1.33398 -24.334 -2.00098 -35.001s-2 -18 -4 -22c-8 -14.667 -21.167 -27.5 -39.5 -38.5s-35.5 -18.167 -51.5 -21.5c-8.66699 -2 -17.334 -3.33301 -26.001 -4l-27 -2
c-20 -1.33301 -40.167 -2.5 -60.5 -3.5s-40.5 -2.16699 -60.5 -3.5c-2 -20 -3 -39.667 -3 -59c0 -9.33301 1.33301 -19.5 4 -30.5s5.66699 -20.833 9 -29.5l-194 -4v246l19 -1c3.33301 -0.666992 10.333 -0.833984 21 -0.500977s23 0.666016 37 0.999023
s28.667 0.833008 44 1.5s29.833 1.66699 43.5 3s25.5 2.83301 35.5 4.5s16.333 3.83398 19 6.50098c11.333 8.66699 18.666 18.834 21.999 30.501s5 24.167 5 37.5c0 43.333 -12.167 76.666 -36.5 99.999s-57.833 35 -100.5 35c-15.333 0 -34 -3 -56 -9
s-44.5 -13.167 -67.5 -21.5s-45.167 -17.166 -66.5 -26.499s-38.333 -17 -51 -23c-5.33301 38.667 -10.333 77.334 -15 116.001l-14 115l135.5 4c45 1.33301 90.5 2 136.5 2h49.5c23 0 47.333 -0.5 73 -1.5s49.834 -2.33301 72.501 -4s38.667 -3.83398 48 -6.50098
c17.333 -5.33301 34.333 -14.166 51 -26.499s28.667 -26.833 36 -43.5c2.66699 -6 5 -19.667 7 -41s3.5 -44.333 4.5 -69s1.83301 -48.334 2.5 -71.001s1 -38 1 -46zM365.002 67.001c0 -12 -3.66504 -23.3301 -10.998 -33.9971s-16.5 -20.334 -27.5 -29.001
s-22.667 -15.5 -35 -20.5s-23.833 -7.5 -34.5 -7.5c-10 0 -20.5 1.83301 -31.5 5.5s-21 8.66699 -30 15s-16.5 14.166 -22.5 23.499s-9 19.666 -9 30.999c0 12.667 3.83301 24.167 11.5 34.5s17.167 19.166 28.5 26.499s23.666 12.833 36.999 16.5s25.666 5.5 36.999 5.5
c18 0 34.5 -4.16699 49.5 -12.5s26.167 -21.166 33.5 -38.499c2.66699 -4.66699 4 -10 4 -16z" />
    <glyph glyph-name="at" unicode="@" horiz-adv-x="847" 
d="M826 362c0 -34.667 -4.33203 -66.6641 -12.999 -95.9971s-21.5 -54.833 -38.5 -76.5s-38.167 -38.667 -63.5 -51s-54.333 -18.5 -87 -18.5c-8 0 -14.333 0.333008 -19 1s-10 3.33398 -16 8.00098c-2.66699 2 -8 8 -16 18l-25.5 33l-25.5 33.5
c-8 10.333 -13 17.166 -15 20.499c-0.666992 -3.33301 -2 -8.16602 -4 -14.499s-4.16699 -12.833 -6.5 -19.5s-4.83301 -13 -7.5 -19s-5 -10.333 -7 -13c-5.33301 -6.66699 -12.666 -12.334 -21.999 -17.001s-19.333 -8.5 -30 -11.5s-21.334 -5.16699 -32.001 -6.5
s-19.667 -2 -27 -2c-18.667 0 -35 2.33301 -49 7c-14.667 4.66699 -27.667 14.667 -39 30s-21 32.5 -29 51.5s-14 38.333 -18 58s-6 36.5 -6 50.5c0 5.33301 0.5 10.833 1.5 16.5s3.5 11.167 7.5 16.5c4.66699 6.66699 17.334 12.834 38.001 18.501s43.5 10.667 68.5 15
s49.167 7.66602 72.5 9.99902s39.666 3.5 48.999 3.5c5.33301 0 10.333 -2.33301 15 -7s8.66699 -10.167 12 -16.5s6.16602 -12.833 8.49902 -19.5s3.83301 -12 4.5 -16c2.66699 13.333 4 27.666 4 42.999c0 14.667 -0.666992 26.667 -2 36s-4.5 16.333 -9.5 21
s-12 7.83398 -21 9.50098s-20.833 2.5 -35.5 2.5c-29.333 0 -58.5 -2.5 -87.5 -7.5s-57.833 -10.833 -86.5 -17.5l-7 118c24.667 3.33301 49.5 5.83301 74.5 7.5s50.167 2.5 75.5 2.5c10 0 24 -0.5 42 -1.5s36.667 -3 56 -6s37.333 -7.33301 54 -13
s28.667 -12.834 36 -21.501c4 -5.33301 7.16699 -16 9.5 -32s4.16602 -33.333 5.49902 -52s2.16602 -36.334 2.49902 -53.001s0.5 -28.334 0.5 -35.001c0 -22 -0.333008 -44 -1 -66s-1.66699 -44 -3 -66l64 -6l14.5 17c5 6 9.5 12 13.5 18
c4.66699 7.33301 8.5 18.166 11.5 32.499s5.5 29.666 7.5 45.999s3.33301 32.333 4 48s1 28.5 1 38.5c0 16 -1.33301 34 -4 54s-6.83398 39.833 -12.501 59.5s-13 38.334 -22 56.001s-19.833 32.5 -32.5 44.5c-26.667 25.333 -55.667 41.5 -87 48.5s-65 10.5 -101 10.5
c-25.333 0 -48.333 -2 -69 -6s-40.667 -9.66699 -60 -17s-38.166 -16.833 -56.499 -28.5s-37.5 -24.834 -57.5 -39.501c-34 -26 -59.833 -57 -77.5 -93s-26.5 -75.667 -26.5 -119c0 -41.333 6.16699 -81.5 18.5 -120.5s30.5 -73.667 54.5 -104s53.5 -54.666 88.5 -72.999
s75.167 -27.5 120.5 -27.5c8 0 17.833 0.666992 29.5 2s23.5 3.16602 35.5 5.49902s23.333 5.66602 34 9.99902s19 9.5 25 15.5l93 -47c-12.667 -18 -27.5 -32.333 -44.5 -43s-35 -19 -54 -25s-38.833 -9.83301 -59.5 -11.5s-41 -2.5 -61 -2.5
c-61.333 0 -115.833 11.833 -163.5 35.5s-87.834 55.334 -120.501 95.001s-57.5 85.334 -74.5 137.001s-25.5 105.834 -25.5 162.501c0 36 5.33301 69.667 16 101s25.167 60.666 43.5 87.999s39.833 52.5 64.5 75.5s51 44.167 79 63.5
c28.667 19.333 58.5 32.166 89.5 38.499s63.833 9.5 98.5 9.5c25.333 0 54.333 -2.16699 87 -6.5s65 -11.166 97 -20.499s61.333 -21.5 88 -36.5s47 -33.167 61 -54.5c10.667 -16 20.834 -36.333 30.501 -61s18.334 -50.5 26.001 -77.5s13.834 -53.667 18.501 -80
s7 -49.166 7 -68.499zM464.001 257.003c0 16 -5.83301 30.001 -17.5 42.001s-25.834 18 -42.501 18c-21.333 0 -38.666 -6.5 -51.999 -19.5s-20 -30.5 -20 -52.5c0 -18 6 -33.667 18 -47s27.333 -20 46 -20c10.667 0 20.167 2.33301 28.5 7s15.5 10.667 21.5 18
s10.5 15.666 13.5 24.999s4.5 19 4.5 29z" />
    <glyph glyph-name="A" unicode="A" horiz-adv-x="754" 
d="M723 3l-152 -23l-32 101.5l-31 101.5l-246 -9l-31 -133h-154l29 338l29 337c48 8 95.833 14.667 143.5 20s95.834 8 144.501 8c59.333 0 118.666 -1 177.999 -3l31.5 -207.5l32.5 -207.5c8 -54.667 16.833 -108.667 26.5 -162s20.167 -107 31.5 -161zM473 319
c-0.666992 6 -2.33203 17.165 -4.99902 33.498s-5.66699 33.666 -9 51.999s-7.16602 35 -11.499 50s-8.5 23.833 -12.5 26.5c-1.33301 0.666992 -4.5 1.33398 -9.5 2.00098s-10.333 1.33398 -16 2.00098s-11.167 1 -16.5 1h-11h-13.5c-5.66699 0 -11.667 -0.166992 -18 -0.5
s-12.333 -1.16602 -18 -2.49902s-9.5 -3 -11.5 -5c-1.33301 -0.666992 -3 -5 -5 -13l-7.5 -29.5c-3 -11.667 -6 -24.167 -9 -37.5l-8.5 -38c-2.66699 -12 -4.83398 -22.333 -6.50098 -31s-2.83398 -13.667 -3.50098 -15z" />
    <glyph glyph-name="B" unicode="B" horiz-adv-x="873" 
d="M822 495c0 -11.333 -0.669922 -21.999 -2.00293 -31.999s-3.66602 -20.333 -6.99902 -31c-4 -11.333 -11.667 -22.166 -23 -32.499s-24 -20 -38 -29s-28.333 -16.667 -43 -23s-27 -11.166 -37 -14.499c3.33301 -0.666992 10 -1.83398 20 -3.50098
s20.5 -3.83398 31.5 -6.50098s21.167 -5.83398 30.5 -9.50098s15.333 -7.5 18 -11.5c4.66699 -8 8.5 -17.833 11.5 -29.5s5.16699 -24 6.5 -37s2.33301 -25.667 3 -38s1 -23.166 1 -32.499v-10.5c0 -3.66699 -0.333008 -7.16699 -1 -10.5
c-1.33301 -6.66699 -6 -15.5 -14 -26.5s-17.333 -22.167 -28 -33.5s-21.167 -21.833 -31.5 -31.5s-18.166 -16.5 -23.499 -20.5c-7.33301 -5.33301 -14.5 -10 -21.5 -14s-14.5 -7.66699 -22.5 -11c-6 -2.66699 -18.833 -4.66699 -38.5 -6s-40.5 -2.5 -62.5 -3.5
s-42.667 -1.66699 -62 -2s-32.333 -0.5 -39 -0.5c-53.333 0 -106 0.833008 -158 2.5s-104.667 3.83398 -158 6.50098c1.33301 47.333 2.33301 94.5 3 141.5s1 94.5 1 142.5c0 54 -1.66699 107.667 -5 161s-7 106.666 -11 159.999l-77 7
c-3.33301 26.667 -5.83301 52.834 -7.5 78.501s-3.83398 51.5 -6.50098 77.5l164 -4l164 -4c23.333 -0.666992 53 -2.83398 89 -6.50098s72.833 -8.5 110.5 -14.5s73.334 -13.333 107.001 -22s60.167 -18.334 79.5 -29.001c14.667 -8 26.834 -20 36.501 -36
s17.5 -33.5 23.5 -52.5s10.333 -38.167 13 -57.5s4 -36.333 4 -51zM555.997 499.001c0 6.66699 -0.331055 15.1689 -0.998047 25.502s-2 20.833 -4 31.5s-4.66699 20.667 -8 30s-7.33301 17 -12 23c-1.33301 2 -5 3.66699 -11 5s-12.5 2.33301 -19.5 3s-13.833 1 -20.5 1
h-13c-33.333 0 -66.333 -1.83301 -99 -5.5s-65.334 -8.16699 -98.001 -13.5c4 -32.667 7.66699 -65.334 11 -98.001s7.33301 -65.334 12 -98.001c8 0 23.667 0.666992 47 2s48.166 3 74.499 5s50.833 4.5 73.5 7.5s37.334 6.5 44.001 10.5
c11.333 7.33301 18.166 18 20.499 32s3.5 27 3.5 39zM547.999 217.003c0 10 -1.33008 20.1689 -3.99707 30.502s-8 18.833 -16 25.5c-2 2 -6.66699 3.66699 -14 5s-15 2.16602 -23 2.49902l-23 1c-7.33301 0.333008 -12.333 0.5 -15 0.5c-28.667 0 -57 -1.5 -85 -4.5
s-56 -6.16699 -84 -9.5l16 -127c3.33301 0 11.166 0.333008 23.499 1s26.666 1.5 42.999 2.5s33.666 2.16699 51.999 3.5s35.5 3 51.5 5s29.667 4.16699 41 6.5s18.333 5.16602 21 8.49902c6 7.33301 10.167 15 12.5 23s3.5 16.667 3.5 26z" />
    <glyph glyph-name="C" unicode="C" horiz-adv-x="737" 
d="M707 237l-0.999023 -156l-91 -17c-30 -5.33301 -60.333 -10 -91 -14c-32 -4 -64 -7.66699 -96 -11s-64 -5 -96 -5c-9.33301 0 -23 0.333008 -41 1s-36.667 2 -56 4s-37.666 4.5 -54.999 7.5s-30 6.83301 -38 11.5c-7.33301 4.66699 -14.333 10.167 -21 16.5
s-12.667 12.833 -18 19.5c-14 17.333 -25.667 36.333 -35 57s-16.666 42 -21.999 64s-9.16602 44.333 -11.499 67s-3.5 45 -3.5 67c0 26.667 1.5 54.334 4.5 83.001s7.83301 57 14.5 85s15.5 55 26.5 81s24.5 50 40.5 72c4.66699 6 10.667 13.333 18 22s14.666 15 21.999 19
c18 10 38.167 18.333 60.5 25s45.5 11.834 69.5 15.501s47.833 6.33398 71.5 8.00098s45.5 2.5 65.5 2.5c38 0 76 -2.16699 114 -6.5s75 -11.833 111 -22.5c-1.33301 -18 -2.33301 -36.167 -3 -54.5s-1 -36.5 -1 -54.5c0 -43.333 1 -87 3 -131
c-30 11.333 -61.333 19.5 -94 24.5s-65 7.5 -97 7.5c-6.66699 0 -16.334 -0.5 -29.001 -1.5s-27 -2.33301 -43 -4s-32.5 -3.83398 -49.5 -6.50098s-32.833 -6 -47.5 -10s-27.5 -8.66699 -38.5 -14s-18.167 -11 -21.5 -17c-2.66699 -5.33301 -4.83398 -12.833 -6.50098 -22.5
s-3 -19.834 -4 -30.501s-1.66699 -21 -2 -31s-0.5 -18 -0.5 -24s0.666992 -18 2 -36s3 -37.167 5 -57.5s4.5 -38.833 7.5 -55.5s6.16699 -26.334 9.5 -29.001c3.33301 -2 8.83301 -3.16699 16.5 -3.5s12.834 -0.5 15.501 -0.5c32.667 0 67.667 1.66699 105 5
s75.166 7.83301 113.499 13.5s76.166 11.667 113.499 18s72 12.5 104 18.5z" />
    <glyph glyph-name="D" unicode="D" horiz-adv-x="855" 
d="M788 359l0.00195312 -61.001c0 -21.333 -2.33301 -41.666 -7 -60.999c-3.33301 -14.667 -7 -27.5 -11 -38.5s-9 -21 -15 -30s-13.333 -17.333 -22 -25s-19.334 -15.167 -32.001 -22.5c-4 -2.66699 -14.667 -6.16699 -32 -10.5l-64.5 -15.5
c-25.667 -6 -54.334 -12.333 -86.001 -19l-97 -19.5l-98 -19l-88 -17l-67 -13c-18.333 -3.66699 -30.5 -5.83398 -36.5 -6.50098c-11.333 122 -22 243 -32 363s-17.667 241.333 -23 364c56 -2 111.667 -4.16699 167 -6.5s111.333 -5.5 168 -9.5
c14.667 -1.33301 36.167 -3 64.5 -5s57.833 -4.83301 88.5 -8.5s59.5 -8.16699 86.5 -13.5s46.5 -12 58.5 -20c15.333 -11.333 29 -26.666 41 -45.999s20.667 -38.333 26 -57c2.66699 -8.66699 4.66699 -22.167 6 -40.5s2.33301 -37.833 3 -58.5s1.16699 -40.667 1.5 -60
s0.5 -34 0.5 -44zM539.002 345.999c0 7.33301 -0.166992 15.166 -0.5 23.499s-0.833008 16.166 -1.5 23.499c-1.33301 10.667 -3.16602 21.834 -5.49902 33.501s-5.5 23 -9.5 34s-9 21.333 -15 31s-13.333 18.167 -22 25.5c-4.66699 4 -16 7.16699 -34 9.5s-37.667 4 -59 5
s-41.333 1.66699 -60 2s-30.667 0.5 -36 0.5h-41c5.33301 -52 10.166 -103.167 14.499 -153.5s8.16602 -101.5 11.499 -153.5c12.667 0.666992 30.834 2.5 54.501 5.5s47.834 7 72.501 12s47.667 11.333 69 19s36.666 16.834 45.999 27.501c7.33301 8 11.833 16.5 13.5 25.5
s2.5 18.833 2.5 29.5z" />
    <glyph glyph-name="E" unicode="E" horiz-adv-x="656" 
d="M636 609c-65.333 -3.33301 -130.167 -6.83105 -194.5 -10.498s-129.166 -8.16699 -194.499 -13.5l-2 -79l258 15c3.33301 -22.667 5.83301 -45 7.5 -67s2.5 -44.333 2.5 -67c0 -9.33301 -0.166992 -19 -0.5 -29s-0.5 -19.667 -0.5 -29l-240 -43l15 -124
c50.667 3.33301 101.167 8.16602 151.5 14.499s101.166 11.833 152.499 16.5l14 -100.5c4.66699 -33.667 11.334 -66.5 20.001 -98.5c-94.667 0.666992 -188.667 0.5 -282 -0.5s-187.333 -1.5 -282 -1.5c2 78 4.33301 155.667 7 233s4 155.333 4 234v19
c0 45.333 -0.666992 90.5 -2 135.5l-4 136.5c52.667 -0.666992 105.167 -0.833984 157.5 -0.500977s105.166 0.5 158.499 0.5c40.667 0 81.167 -0.833008 121.5 -2.5s80.833 -3.5 121.5 -5.5z" />
    <glyph glyph-name="F" unicode="F" horiz-adv-x="674" 
d="M638 527c-58 -3.33301 -115.171 -5.99902 -171.504 -7.99902s-113.166 -5.66699 -170.499 -11l8 -86l166 -11l28 -100c-30 -6.66699 -60.167 -11.834 -90.5 -15.501s-60.5 -8.5 -90.5 -14.5c6.66699 -50 11.334 -99.833 14.001 -149.5s4 -99.5 4 -149.5l-263 -9
c3.33301 78 5.33301 155.5 6 232.5s1 154.5 1 232.5v89v201c38.667 0.666992 76.834 1.5 114.501 2.5s75.834 1.5 114.501 1.5c52 0 104 -1.16699 156 -3.5s104.333 -4.83301 157 -7.5c4 -32 7.83301 -64.167 11.5 -96.5s5.5 -64.833 5.5 -97.5z" />
    <glyph glyph-name="G" unicode="G" horiz-adv-x="791" 
d="M724 -16c-80.667 1.33301 -163.165 3.33301 -247.498 6s-166.833 8.66699 -247.5 18c-9.33301 1.33301 -19.833 2.5 -31.5 3.5s-22.167 3.16699 -31.5 6.5c-19.333 7.33301 -34.5 15.5 -45.5 24.5s-19.5 19.333 -25.5 31s-10.333 24.667 -13 39s-5 30.5 -7 48.5
c-6 46.667 -10.667 93.5 -14 140.5s-5 94.167 -5 141.5c0 8.66699 0.166992 19.167 0.5 31.5s1 25.166 2 38.499s2.5 26 4.5 38s4.66699 22 8 30c16 34.667 39.5 62.5 70.5 83.5s65.167 37.333 102.5 49s75.833 19.334 115.5 23.001s76.167 5.5 109.5 5.5
c71.333 0 142.666 -7 213.999 -21l8 -214c-68 21.333 -138.333 32 -211 32c-13.333 0 -31 -0.666992 -53 -2s-44.5 -3.83301 -67.5 -7.5s-44.5 -9 -64.5 -16s-34 -16.5 -42 -28.5c-4 -6 -7.5 -14.333 -10.5 -25s-5.33301 -21.834 -7 -33.501
s-2.83398 -23.167 -3.50098 -34.5s-1 -20.666 -1 -27.999c0 -15.333 1.16699 -33.5 3.5 -54.5s5.16602 -42.5 8.49902 -64.5s7.33301 -43 12 -63s9.66699 -36.333 15 -49h177l-9 193c46 -3.33301 92.167 -4.83301 138.5 -4.5s92.5 0.5 138.5 0.5
c4.66699 -56.667 7.33398 -113 8.00098 -169s1 -112.333 1 -169z" />
    <glyph glyph-name="H" unicode="H" horiz-adv-x="777" 
d="M695 3l-198.998 -5c-1.33301 43.333 -2.33301 86.333 -3 129s-1.66699 85.667 -3 129l-188 -9c-0.666992 -6.66699 -1 -13.167 -1 -19.5v-18.5c0 -37.333 1.5 -74.5 4.5 -111.5s6.16699 -73.833 9.5 -110.5c-13.333 -0.666992 -26.833 -1.16699 -40.5 -1.5
s-27.167 -0.5 -40.5 -0.5c-26 0 -52.167 0.5 -78.5 1.5s-52.5 1.5 -78.5 1.5c1.33301 62 3 123.333 5 184s3.66699 122 5 184c1.33301 60.667 2.16602 120.667 2.49902 180s0.833008 119 1.5 179h167c5.33301 -50 9 -99.833 11 -149.5s5 -99.5 9 -149.5
c32 0.666992 63.667 1 95 1s63.333 0.333008 96 1l10 324c9.33301 0.666992 18.5 1 27.5 1h27.5c26.667 0 52.834 -0.666992 78.501 -2s51.5 -4.33301 77.5 -9c3.33301 -122 4.66602 -243.5 3.99902 -364.5s-0.333984 -242.5 0.999023 -364.5z" />
    <glyph glyph-name="I" unicode="I" horiz-adv-x="521" 
d="M460 734c-3.33301 -40.667 -4.66992 -81.1689 -4.00293 -121.502s0.333984 -80.5 -0.999023 -120.5l-111 4c-0.666992 -23.333 -1.16699 -46.333 -1.5 -69s-0.5 -45.667 -0.5 -69c0 -28 0.166992 -55.5 0.5 -82.5s0.833008 -54.5 1.5 -82.5l102 -2
c-1.33301 -19.333 -2 -39 -2 -59v-60c0 -16.667 0.5 -33.334 1.5 -50.001s3.16699 -33 6.5 -49l-359 -6c0 32.667 -0.333008 64.834 -1 96.501s-2 63.834 -4 96.501l65 1c-3.33301 62.667 -7.16602 124.667 -11.499 186l-13.5 185l-95 12c-1.33301 28 -2.5 55.833 -3.5 83.5
s-2.16699 55.5 -3.5 83.5c72.667 2.66699 144.834 5.83398 216.501 9.50098s144.167 8.16699 217.5 13.5z" />
    <glyph glyph-name="J" unicode="J" horiz-adv-x="628" 
d="M556 345c0 -16 -0.666992 -35.334 -2 -58.001s-3.66602 -46 -6.99902 -70s-7.83301 -47 -13.5 -69s-12.834 -40.333 -21.501 -55c-14.667 -25.333 -32.834 -45.166 -54.501 -59.499s-45 -25 -70 -32s-51.167 -11.5 -78.5 -13.5s-54.333 -3 -81 -3
c-22.667 0 -42.5 0.666992 -59.5 2s-33.333 3.66602 -49 6.99902s-31.667 8.33301 -48 15s-34.5 15 -54.5 25c-2.66699 31.333 -4.16699 62.5 -4.5 93.5s-1.16602 62.5 -2.49902 94.5c20.667 -3.33301 39.334 -6.66602 56.001 -9.99902s33 -6.33301 49 -9
s32.333 -4.83398 49 -6.50098s35.667 -2.5 57 -2.5c13.333 0 28.166 0.833008 44.499 2.5s29.833 6.83398 40.5 15.501c6.66699 5.33301 12 14 16 26s6.83301 25 8.5 39s2.66699 27.667 3 41s0.5 24 0.5 32c0 50 -2.66699 100 -8 150s-12 99.667 -20 149
c-3.33301 19.333 -6.33301 38.666 -9 57.999s-7 38 -13 56c7.33301 -0.666992 14.833 -1 22.5 -1h24.5c33.333 0 66.333 0.833008 99 2.5s65.667 4.83398 99 9.50098c7.33301 -62 12.5 -123.167 15.5 -183.5l9.5 -183.5c0.666992 -10.667 1.16699 -21 1.5 -31
s0.5 -20.333 0.5 -31z" />
    <glyph glyph-name="K" unicode="K" horiz-adv-x="797" 
d="M838 5c-32 -7.33301 -63.833 -14.1699 -95.5 -20.5029s-63.834 -12.166 -96.501 -17.499l-118.5 179.5l-121.5 176.5l-107 -104l-10 -222c-15.333 0.666992 -30.5 1.16699 -45.5 1.5s-29.833 0.5 -44.5 0.5c-14 0 -27.667 -0.333008 -41 -1s-26.666 -2 -39.999 -4
c-8 61.333 -15.5 122.5 -22.5 183.5s-13.167 122.5 -18.5 184.5s-9.5 123.833 -12.5 185.5s-5.83301 123.5 -8.5 185.5c50 -1.33301 99.5 -2.16602 148.5 -2.49902s98.5 -1.16602 148.5 -2.49902l-6 -232c36 37.333 70 75.333 102 114l99 118c32 2 64.333 4.16699 97 6.5
s65 4.83301 97 7.5l-4 -74l-212 -221l153.5 -222z" />
    <glyph glyph-name="L" unicode="L" horiz-adv-x="573" 
d="M553 25c-79.333 -6 -158.169 -11.667 -236.502 -17s-157.166 -10.333 -236.499 -15c-3.33301 127.333 -6 253.833 -8 379.5s-5.66699 252.5 -11 380.5c44.667 0.666992 88.667 2 132 4s87 4.66699 131 8c-7.33301 -49.333 -14.166 -98.833 -20.499 -148.5
s-11.166 -99.5 -14.499 -149.5c-2.66699 -42 -4.83398 -83.833 -6.50098 -125.5s-3.16699 -83.5 -4.5 -125.5c44 -1.33301 87.5 -2 130.5 -2s86.167 -0.666992 129.5 -2z" />
    <glyph glyph-name="M" unicode="M" horiz-adv-x="998" 
d="M921 -17c-12.667 0.666992 -24.999 1.66797 -36.999 3.00098c-10 1.33301 -19.833 2.33301 -29.5 3s-16.834 1 -21.501 1c-26 0 -52 -0.5 -78 -1.5s-51.667 -2.83301 -77 -5.5c0.666992 28 1.16699 55.5 1.5 82.5s0.5 54.5 0.5 82.5c0 50 -0.833008 99.667 -2.5 149
s-3.16699 98.666 -4.5 147.999l-210 -475c-30.667 83.333 -63.5 165.166 -98.5 245.499l-109.5 240.5l16 -494c-7.33301 0 -14.833 0.166992 -22.5 0.5s-15.5 0.5 -23.5 0.5c-25.333 0 -50.166 -1 -74.499 -3l-73.5 -6l10 185c3.33301 61.333 5 123 5 185
c0 72.667 -0.5 145 -1.5 217s-1.83301 144.333 -2.5 217c48 0 94.833 1.33301 140.5 4s92.5 6.33398 140.5 11.001l49.5 -158.5c17 -52.333 35.167 -104.5 54.5 -156.5c20.667 49.333 44.167 97.666 70.5 144.999l80.5 141l134.5 4c44.333 1.33301 89.166 2.33301 134.499 3
c2 -60 4.5 -119.333 7.5 -178s5.83301 -118 8.5 -178c2 -47.333 3.83301 -94.666 5.5 -141.999s3.16699 -94.333 4.5 -141l2 -84v-45z" />
    <glyph glyph-name="N" unicode="N" horiz-adv-x="933" 
d="M851 322c0 -58.667 -0.166016 -116.499 -0.499023 -173.499s-0.833008 -114.833 -1.5 -173.5c-41.333 2 -82.333 3 -123 3c-20 0 -40.167 -1 -60.5 -3s-40.5 -4.66699 -60.5 -8l-76 164.5l-76 164.5c-18.667 40.667 -36.334 81.334 -53.001 122.001l-50 123l-18.5 -268.5
c-6.33301 -89 -11.5 -178.5 -15.5 -268.5l-216 6c-3.33301 128 -6.33301 255.333 -9 382s-7.33398 254 -14.001 382l391 2c13.333 -33.333 25.833 -66.833 37.5 -100.5s22.834 -67.834 33.501 -102.501c15.333 -52.667 32.666 -104.834 51.999 -156.501l58 -155.5
c-0.666992 83.333 -2.16699 166.333 -4.5 249s-4.16602 166 -5.49902 250l202 -24c2.66699 -69.333 5 -138.333 7 -207s3 -137.667 3 -207z" />
    <glyph glyph-name="O" unicode="O" horiz-adv-x="956" 
d="M895 427l-0.00292969 -25.501c0 -8.33301 -0.333008 -16.5 -1 -24.5c-0.666992 -6.66699 -1.5 -18.334 -2.5 -35.001s-2.33301 -35.834 -4 -57.501s-3.66699 -44.5 -6 -68.5s-5 -46.167 -8 -66.5s-6.16699 -37.833 -9.5 -52.5s-6.66602 -23.667 -9.99902 -27
c-20 -20 -43.833 -34.833 -71.5 -44.5s-56.5 -16.167 -86.5 -19.5s-60 -4.66602 -90 -3.99902s-58 1 -84 1c-8.66699 0 -23.334 0.166992 -44.001 0.5s-44.167 0.833008 -70.5 1.5s-53.833 1.83398 -82.5 3.50098s-55.5 4 -80.5 7s-46.667 6.66699 -65 11
s-29.833 9.83301 -34.5 16.5c-5.33301 7.33301 -10 15.333 -14 24s-7.66699 17 -11 25c-8.66699 22 -16.667 45.5 -24 70.5s-13.5 50.667 -18.5 77s-9 52.5 -12 78.5s-4.5 50.667 -4.5 74c0 12.667 1 29.167 3 49.5s4.66699 42.333 8 66s7.33301 47.834 12 72.501
s9.83398 47.667 15.501 69s11.834 39.833 18.501 55.5s14 26.167 22 31.5c6.66699 4.66699 19 9 37 13s39 7.5 63 10.5s49.667 5.66699 77 8s53.333 4.33301 78 6s47 2.83398 67 3.50098s34.667 1 44 1c12.667 0 29.834 -0.666992 51.501 -2s45.167 -3.5 70.5 -6.5
s51 -6.66699 77 -11s50.167 -9.5 72.5 -15.5s41.5 -12.667 57.5 -20s26 -15.333 30 -24c3.33301 -7.33301 6.5 -17.833 9.5 -31.5s5.5 -29.167 7.5 -46.5s3.83301 -35.666 5.5 -54.999s3 -37.833 4 -55.5s1.83301 -33.834 2.5 -48.501s1 -26.334 1 -35.001zM715.997 393.999
c0 13.333 -0.670898 27.5 -2.00391 42.5s-5.66602 28.167 -12.999 39.5c-5.33301 8 -18.166 14.333 -38.499 19s-42.666 8 -66.999 10s-47.833 3.16699 -70.5 3.5s-38.667 0.5 -48 0.5c-7.33301 0 -20.166 -0.666992 -38.499 -2s-37.666 -3.5 -57.999 -6.5
s-39.166 -6.66699 -56.499 -11s-28 -9.5 -32 -15.5c-4 -4.66699 -7.16699 -13.5 -9.5 -26.5s-4.33301 -27 -6 -42s-2.83398 -29.333 -3.50098 -43s-1 -23.5 -1 -29.5c0 -5.33301 0.166992 -13.333 0.5 -24s1.16602 -21.667 2.49902 -33s2.83301 -22 4.5 -32
s4.16699 -17.333 7.5 -22c2 -3.33301 8 -6.33301 18 -9s22.167 -5.16699 36.5 -7.5s29.5 -4.16602 45.5 -5.49902s31.5 -2.5 46.5 -3.5s28.333 -1.66699 40 -2s19.834 -0.5 24.501 -0.5c8 0 21.833 0.666992 41.5 2s40.334 3.5 62.001 6.5s41.667 6.66699 60 11
s30.166 9.5 35.499 15.5c4 4.66699 7.33301 14.5 10 29.5s4.66699 31.333 6 49s2.16602 34.667 2.49902 51s0.5 28.166 0.5 35.499z" />
    <glyph glyph-name="P" unicode="P" horiz-adv-x="859" 
d="M803 502c0 -14.667 -0.833984 -32.332 -2.50098 -52.999s-4.33398 -41.667 -8.00098 -63s-8.83398 -41.333 -15.501 -60s-15 -33.334 -25 -44.001c-4 -4.66699 -16.833 -9.16699 -38.5 -13.5s-47.667 -8.66602 -78 -12.999s-62.833 -8.5 -97.5 -12.5
s-67.5 -7.5 -98.5 -10.5s-57.833 -5.5 -80.5 -7.5s-37 -3 -43 -3l-8 -208c-20.667 -1.33301 -41 -1.5 -61 -0.5s-40.333 1.5 -61 1.5c-13.333 0 -26.666 -0.333008 -39.999 -1s-26.666 -1.66699 -39.999 -3v186c0 61.333 -1.33301 123.333 -4 186
c-2 56.667 -3.83301 113 -5.5 169s-3.16699 112.333 -4.5 169c68.667 4.66699 137.834 10.5 207.501 17.5s139.167 10.5 208.5 10.5c12 0 31 -1.16699 57 -3.5s53.333 -6 82 -11s55.167 -11.167 79.5 -18.5s40.5 -15.666 48.5 -24.999c5.33301 -6 9.83301 -17.667 13.5 -35
s6.5 -35.833 8.5 -55.5s3.5 -38.834 4.5 -57.501s1.5 -32.334 1.5 -41.001zM522.999 509.002c0 6 -0.333008 13.6689 -1 23.002s-1.83398 18.5 -3.50098 27.5s-4.16699 17.333 -7.5 25s-7.66602 13.167 -12.999 16.5c-3.33301 2 -8.66602 3.66699 -15.999 5
s-15 2.33301 -23 3s-15.667 1.16699 -23 1.5s-12.666 0.5 -15.999 0.5c-24.667 0 -49.334 -1.33301 -74.001 -4s-49.667 -6 -75 -10c2 -20 3.16699 -39.667 3.5 -59s0.5 -38.666 0.5 -57.999c0 -31.333 1 -63 3 -95c8.66699 0 23.667 0.5 45 1.5s43.666 2.66699 66.999 5
s45.333 5.66602 66 9.99902s34.667 10.166 42 17.499c12 11.333 19.167 25.166 21.5 41.499s3.5 32.5 3.5 48.5z" />
    <glyph glyph-name="Q" unicode="Q" horiz-adv-x="974" 
d="M902 515c0 -11.333 -0.166016 -28.3301 -0.499023 -50.9971s-1.16602 -48.167 -2.49902 -76.5s-3.16602 -57.666 -5.49902 -87.999s-5.5 -58.833 -9.5 -85.5s-8.83301 -50 -14.5 -70s-12.5 -33.333 -20.5 -40c-6 -5.33301 -13.833 -10.666 -23.5 -15.999
s-19.667 -10.333 -30 -15s-20.5 -8.83398 -30.5 -12.501s-19 -6.5 -27 -8.5l37 -88.5l36 -88.5l-148 -35c-19.333 28 -37.5 56 -54.5 84s-35.167 55.667 -54.5 83c-5.33301 -0.666992 -10.666 -1 -15.999 -1h-16c-11.333 0 -28.166 0.666992 -50.499 2
s-47.333 3.33301 -75 6s-56.5 6 -86.5 10s-57.833 8.33301 -83.5 13s-47.834 10 -66.501 16s-30.667 12.333 -36 19c-9.33301 11.333 -17.166 30.166 -23.499 56.499s-11.5 54.666 -15.5 84.999s-7 59.666 -9 87.999s-3 49.833 -3 64.5c-0.666992 16.667 -1 33.167 -1 49.5
v50.5c0 12.667 0.166992 29 0.5 49s1.5 40.667 3.5 62s5.33301 41.333 10 60s11.667 33 21 43c5.33301 6 17.166 11.833 35.499 17.5s40.166 11 65.499 16s52.666 9.5 81.999 13.5s58 7.66699 86 11s53.833 5.83301 77.5 7.5s42.167 2.83398 55.5 3.50098
c19.333 0.666992 38.666 1.16699 57.999 1.5s38.666 0.5 57.999 0.5c25.333 0 52.166 -0.5 80.499 -1.5s55.333 -5.33301 81 -13s48.334 -19.834 68.001 -36.501s33.5 -40.334 41.5 -71.001c1.33301 -6 2.5 -14 3.5 -24s1.66699 -20.667 2 -32s0.5 -22.333 0.5 -33v-25z
M686.001 457.003l0.00585938 13.002c0 5.33301 -0.333008 10.666 -1 15.999s-1.83398 10.333 -3.50098 15s-3.83398 8.33398 -6.50098 11.001c-3.33301 2.66699 -8 5 -14 7s-12.5 3.33301 -19.5 4s-14 1.16699 -21 1.5s-12.5 0.5 -16.5 0.5
c-9.33301 0 -23.833 -0.666992 -43.5 -2s-41.667 -3.33301 -66 -6s-49.833 -5.83398 -76.5 -9.50098s-51.334 -7.83398 -74.001 -12.501s-42.167 -9.66699 -58.5 -15s-26.5 -11 -30.5 -17c-2.66699 -4 -4.16699 -9.33301 -4.5 -16s-0.5 -12.667 -0.5 -18
c0 -13.333 1 -30 3 -50s4.66699 -40.667 8 -62s6.83301 -42 10.5 -62s7.16699 -36.333 10.5 -49c16 -6 30.333 -10.833 43 -14.5s25 -6.5 37 -8.5s24.5 -3.5 37.5 -4.5s28.167 -1.83301 45.5 -2.5l-62 100l49 25c15.333 8 30.666 15.333 45.999 22s31.166 12.667 47.499 18
s34.166 10.333 53.499 15l67 -137c14 38 24.167 77.167 30.5 117.5s9.5 80.5 9.5 120.5z" />
    <glyph glyph-name="R" unicode="R" horiz-adv-x="839" 
d="M793 503c0 -54.667 -16.668 -97.667 -50.001 -129s-77.333 -48.333 -132 -51c66 -110 123.667 -222.667 173 -338l-292 -7c-5.33301 54 -13.333 103.667 -24 149s-25.667 93 -45 143c-22 -1.33301 -43.833 -3 -65.5 -5s-43.167 -3.66699 -64.5 -5l5 -227
c-38 -2 -76 -3 -114 -3c-19.333 0 -38.166 0.333008 -56.499 1s-36.833 2 -55.5 4c4.66699 61.333 9 122.5 13 183.5s6.33301 121.833 7 182.5c2 108 5 216 9 324c62.667 3.33301 125.167 7 187.5 11s124.833 6 187.5 6c16 0 33.333 -0.333008 52 -1s37.5 -2.5 56.5 -5.5
s37.333 -7.16699 55 -12.5s33.5 -12.333 47.5 -21c34 -21.333 60.167 -49.833 78.5 -85.5s27.5 -73.5 27.5 -113.5zM560.999 519c0 5.33301 -0.167969 12.665 -0.500977 21.998s-1.16602 18.833 -2.49902 28.5s-3.33301 18.667 -6 27s-6.33398 14.5 -11.001 18.5
c-3.33301 2.66699 -9 4.66699 -17 6s-16.5 2.5 -25.5 3.5s-17.667 1.66699 -26 2s-14.166 0.5 -17.499 0.5c-26.667 0 -52.834 -1.33301 -78.501 -4s-51.167 -6 -76.5 -10l27 -194c14.667 -3.33301 30 -5.66602 46 -6.99902s31.667 -2 47 -2c6.66699 0 16.5 0.333008 29.5 1
s26.333 2 40 4s26.334 4.83301 38.001 8.5s19.834 8.5 24.501 14.5c2 2.66699 3.66699 7.83398 5 15.501s2.16602 15.667 2.49902 24l1 24.5c0.333008 8 0.5 13.667 0.5 17z" />
    <glyph glyph-name="S" unicode="S" horiz-adv-x="855" 
d="M824 176c0 -32 -7.66406 -57.832 -22.9971 -77.499s-37 -35.5 -65 -47.5c-23.333 -10 -52.666 -17.833 -87.999 -23.5s-72 -9.66699 -110 -12s-75.333 -3.83301 -112 -4.5s-67.334 -1 -92.001 -1c-42 0 -83.5 0.666992 -124.5 2s-82.5 3.33301 -124.5 6
c2 68 0 135.333 -6 202c50 -1.33301 99.833 -2.5 149.5 -3.5s99.5 -2.16699 149.5 -3.5l58.5 -2c19.667 -0.666992 39.5 -1 59.5 -1h15c6.66699 0 13.667 0.333008 21 1s14.166 1.66699 20.499 3s11.166 3.33301 14.499 6c2.66699 2.66699 4.33398 6.5 5.00098 11.5
s1 9.5 1 13.5c0 7.33301 -1 16.166 -3 26.499s-5 18.833 -9 25.5c-0.666992 0.666992 -2.83398 1.33398 -6.50098 2.00098s-7.83398 1.16699 -12.501 1.5s-9 0.666016 -13 0.999023s-6.33301 0.5 -7 0.5c-42.667 3.33301 -85.167 5.66602 -127.5 6.99902
s-84.833 3.66602 -127.5 6.99902l-59.5 6c-20.333 2 -39.166 5.66699 -56.499 11c-16.667 4.66699 -30.834 15.167 -42.501 31.5s-21 35 -28 56s-12 42.167 -15 63.5s-4.5 39.333 -4.5 54c0 24 2.33301 46.833 7 68.5s12.167 41.834 22.5 60.501s23.5 35.167 39.5 49.5
s35.667 26.166 59 35.499c40 15.333 82.833 26 128.5 32s89.5 9 131.5 9c49.333 0 98 -3 146 -9s96 -13.667 144 -23c-0.666992 -19.333 -1.16699 -38.5 -1.5 -57.5s-0.5 -38.167 -0.5 -57.5s1 -38.833 3 -58.5l6 -58.5c-63.333 -1.33301 -126.5 -2.5 -189.5 -3.5
s-126.5 -2.83301 -190.5 -5.5c-8 0 -18.833 -0.333008 -32.5 -1s-26.834 -1.5 -39.501 -2.5s-23.667 -1.83301 -33 -2.5l-14 -1c-3.33301 -7.33301 -5.33301 -14.833 -6 -22.5s-1 -15.5 -1 -23.5c0 -4 0.166992 -9 0.5 -15s1.83301 -10.667 4.5 -14
c0.666992 -0.666992 6.33398 -1.66699 17.001 -3s22.5 -2.66602 35.5 -3.99902s25.333 -2.66602 37 -3.99902s18.834 -2 21.501 -2l77.5 -7c29.667 -2.66699 60 -5.66699 91 -9s60.833 -7.5 89.5 -12.5s53.667 -10.833 75 -17.5
c19.333 -6.66699 37.166 -17.167 53.499 -31.5s30.5 -31 42.5 -50s21.5 -39 28.5 -60s10.5 -41.5 10.5 -61.5z" />
    <glyph glyph-name="T" unicode="T" horiz-adv-x="685" 
d="M644 582l-0.000976562 -69.999l-193 -10c-2.66699 -38.667 -4.66699 -77 -6 -115s-2 -76 -2 -114c0 -46.667 -1.16699 -93.167 -3.5 -139.5s-5.16602 -92.5 -8.49902 -138.5c-24 -1.33301 -48 -2.5 -72 -3.5s-48 -1.5 -72 -1.5c-8.66699 0 -17.167 0.166992 -25.5 0.5
s-16.5 0.5 -24.5 0.5c1.33301 40.667 2.5 81.167 3.5 121.5s1.5 80.5 1.5 120.5s-1 80.167 -3 120.5s-4.33301 80.833 -7 121.5l-58.5 -2c-19.667 -0.666992 -39.5 -1 -59.5 -1h-33.5c-11 0 -22.167 0.333008 -33.5 1c-2 49.333 -3.33301 98.333 -4 147l-2 146
c100 -2 199.333 -4.83301 298 -8.5s197.667 -6.83398 297 -9.50098c2.66699 -28.667 4.66699 -56.5 6 -83.5s2 -54.5 2 -82.5z" />
    <glyph glyph-name="U" unicode="U" horiz-adv-x="890" 
d="M818 330c0 -38 -0.831055 -75.668 -2.49805 -113.001s-5.16699 -75 -10.5 -113c-10.667 -8 -21.334 -15.5 -32.001 -22.5l-33 -22.5l-30.5 -20.5c-11 -7.66699 -22.5 -15.167 -34.5 -22.5s-24.167 -13.833 -36.5 -19.5s-23.833 -9.5 -34.5 -11.5
c-10 -2.66699 -23.333 -3.83398 -40 -3.50098s-30.667 0.5 -42 0.5c-28 -1.33301 -56 -2.33301 -84 -3s-56.667 -1 -86 -1c-13.333 0 -28.666 -0.166992 -45.999 -0.5s-33 1.16699 -47 4.5c-4 0.666992 -10.667 3.83398 -20 9.50098s-19.833 12.667 -31.5 21l-36.5 27
l-36.5 28l-30 24l-17.5 14.5c-3.33301 35.333 -5.83301 70.5 -7.5 105.5s-2.5 70.167 -2.5 105.5c0 68.667 2.5 136.667 7.5 204s10.5 135 16.5 203l206 5c-6.66699 -42.667 -11.334 -87.834 -14.001 -135.501s-4 -93.5 -4 -137.5c0 -7.33301 0.333008 -20.166 1 -38.499
s2 -37.833 4 -58.5s4.5 -39.667 7.5 -57s6.83301 -28.666 11.5 -33.999c2 -2 7.16699 -3.83301 15.5 -5.5s18.333 -3.16699 30 -4.5s24.167 -2.33301 37.5 -3s26 -1.16699 38 -1.5s22.667 -0.666016 32 -0.999023s16 -0.5 20 -0.5h17c8 0 16.167 0.166992 24.5 0.5
s16.166 0.833008 23.499 1.5s12.333 2 15 4c8 5.33301 14 18.333 18 39s7 43.334 9 68.001s3 48.334 3 71.001v49c0 15.333 0.166992 30.666 0.5 45.999s0.5 30.666 0.5 45.999c0 31.333 -0.333008 62.166 -1 92.499s-1.66699 61.166 -3 92.499
c14 -1.33301 27.833 -2.16602 41.5 -2.49902s27.5 -0.5 41.5 -0.5c16.667 0 33.167 0.333008 49.5 1s32.5 2.66699 48.5 6c14 -71.333 24.833 -143.5 32.5 -216.5s11.5 -146.167 11.5 -219.5z" />
    <glyph glyph-name="V" unicode="V" horiz-adv-x="712" 
d="M696 775l-82.501 -385.999l-87.5 -384l-320 -5l-50.5 215.5c-17 71.667 -36.167 143.167 -57.5 214.5l-47.5 160l-50.5 159c23.333 -2.66699 46.833 -5 70.5 -7s47.167 -3 70.5 -3h15c4.66699 0 9.66699 0.666992 15 2c26.667 -84 54.334 -166.5 83.001 -247.5l88 -245.5
l58.5 144.5l57.5 145.5c1.33301 3.33301 4.33301 11.666 9 24.999l16.5 46.5l20 56l19 54.5l14 41.5l5.5 16.5c7.33301 -1.33301 14.5 -2 21.5 -2h21.5c19.333 -0.666992 38 -1 56 -1h55z" />
    <glyph glyph-name="W" unicode="W" horiz-adv-x="966" 
d="M930 729c-14 -124.667 -31.334 -245.833 -52.001 -363.5s-45 -237.834 -73 -360.501c-7.33301 -0.666992 -15 -1 -23 -1h-23c-17.333 0 -34.5 0.333008 -51.5 1s-34.167 2.66699 -51.5 6c-21.333 44.667 -43.666 88.834 -66.999 132.501s-45.333 88.5 -66 134.5
c-9.33301 -22.667 -19.833 -44.667 -31.5 -66s-24.167 -42.666 -37.5 -63.999c-17.333 -26 -34 -52.333 -50 -79l-47 -81l-163 4l-43.5 178l-40.5 178l-53.5 221.5l-56.5 220.5h290c2.66699 -22 5 -44 7 -66l6 -65c5.33301 -58 11.333 -115.5 18 -172.5l20 -172.5l34.5 121
c11.667 40 24.5 80 38.5 120l35 106.5l33 106.5h49c22 -80.667 46.667 -159.834 74 -237.501s57 -155.167 89 -232.5c16.667 72.667 31.167 145.667 43.5 219l38.5 220z" />
    <glyph glyph-name="X" unicode="X" horiz-adv-x="761" 
d="M802 750l-152.501 -188.498l-156.5 -185.5c38 -62 78 -123 120 -183l70 -94.5l73 -93.5l-252 -8c-22 38 -44.667 75.167 -68 111.5s-46 73.5 -68 111.5l-73 -111.5l-69 -113.5c-14.667 2.66699 -29.667 4.16699 -45 4.5s-30.666 0.5 -45.999 0.5
c-25.333 0 -50.833 -0.5 -76.5 -1.5s-51.167 -2.16699 -76.5 -3.5l262 338l-45.5 75l-45.5 74l-88.5 130.5l-90.5 129.5c48 -2.66699 95.333 -4.33398 142 -5.00098s93.667 -2.33398 141 -5.00098c20 -34 40.833 -67.5 62.5 -100.5l64.5 -99.5l73.5 105.5
c24.333 35 47.5 70.833 69.5 107.5c16.667 -1.33301 33.167 -1.83301 49.5 -1.5s32.833 0.5 49.5 0.5c58 0 116.667 2 176 6z" />
    <glyph glyph-name="Y" unicode="Y" horiz-adv-x="824" 
d="M758 249c0 -24 -3.66406 -49.1621 -10.9971 -75.4951s-18 -51 -32 -74s-31.167 -43 -51.5 -60s-43.166 -28.167 -68.499 -33.5c-10 -2 -21.833 -3.66699 -35.5 -5s-27.834 -2.33301 -42.501 -3l-43.5 -2c-14.333 -0.666992 -26.5 -1 -36.5 -1
c-57.333 -2.66699 -114.666 -4.16699 -171.999 -4.5s-115 -0.5 -173 -0.5c-2.66699 27.333 -5.16699 54.333 -7.5 81s-5.5 54 -9.5 82c46 2 91.833 4.16699 137.5 6.5s91.5 5.16602 137.5 8.49902c10 0.666992 21.167 1 33.5 1s25 0.333008 38 1s25.667 1.5 38 2.5
s23.166 2.5 32.499 4.5c4 0.666992 8.83301 1.83398 14.5 3.50098s10.834 4 15.501 7s8.66699 6.5 12 10.5s5 9 5 15c0 14 -1.5 29.5 -4.5 46.5s-5.16699 32.167 -6.5 45.5l-150.5 -13.5c-50.333 -4.33301 -100.833 -6.5 -151.5 -6.5
c-34.667 0 -62.334 9.83301 -83.001 29.5s-35.667 45.5 -45 77.5c-2 7.33301 -3.83301 16.166 -5.5 26.499s-3 21 -4 32s-1.83301 21.833 -2.5 32.5s-1.33398 19.667 -2.00098 27c-3.33301 44 -5.83301 87.333 -7.5 130s-3.16699 86 -4.5 130
c32 -3.33301 64.167 -6.33301 96.5 -9s64.5 -5 96.5 -7c0 -31.333 0.833008 -64.5 2.5 -99.5s5.83398 -67.5 12.501 -97.5c3.33301 -16 9.66602 -29.833 18.999 -41.5s20.5 -21.334 33.5 -29.001s27 -13.334 42 -17.001s30.167 -5.5 45.5 -5.5c18 0 36 1.83301 54 5.5
s35.333 8.16699 52 13.5c-2.66699 50 -4.83398 99.333 -6.50098 148s-4.83398 97.667 -9.50098 147c20 0.666992 40 1.5 60 2.5s40 1.5 60 1.5c31.333 0 63 -3 95 -9c0 -28.667 0.5 -57.334 1.5 -86.001s2.16699 -57.334 3.5 -86.001c1.33301 -13.333 2.5 -26.833 3.5 -40.5
s1.83301 -27.167 2.5 -40.5c2.66699 -45.333 7 -90.5 13 -135.5s9 -90.167 9 -135.5z" />
    <glyph glyph-name="Z" unicode="Z" horiz-adv-x="782" 
d="M731 497c-32.667 -28 -65.8301 -54.999 -99.4971 -80.999s-68.5 -50.667 -104.5 -74l-242 -161c70.667 2.66699 141.167 5.66699 211.5 9s141.166 5 212.499 5l-3 -165c-94 -11.333 -188 -19.333 -282 -24c-58.667 -3.33301 -116.834 -7 -174.501 -11
s-115.167 -8.33301 -172.5 -13c-4 32 -7 63.833 -9 95.5s-6.66699 63.5 -14 95.5l224 209l230 204c-36.667 -0.666992 -72.834 -0.833984 -108.501 -0.500977s-71.5 0.5 -107.5 0.5c-40 0 -79.667 -0.833008 -119 -2.5s-79 -3.5 -119 -5.5l-8 155h346
c52.667 0 105 -0.5 157 -1.5s104.333 -2.16699 157 -3.5c7.33301 -38.667 12.333 -77.167 15 -115.5s6 -76.833 10 -115.5z" />
    <glyph glyph-name="bracketleft" unicode="[" horiz-adv-x="310" 
d="M290 731l-114 -17l4 -148.5c1.33301 -49 2 -98.5 2 -148.5v-356l96 -17l3 -82c-15.333 -3.33301 -30.833 -6.5 -46.5 -9.5s-31.167 -4.5 -46.5 -4.5c-17.333 0 -34.833 0.833008 -52.5 2.5s-35.167 3.16699 -52.5 4.5c-5.33301 85.333 -10.333 170 -15 254
s-7 168.667 -7 254c0 60.667 2.33301 123.167 7 187.5s9.66699 126.833 15 187.5l201 -18z" />
    <glyph glyph-name="backslash" unicode="\" horiz-adv-x="504" 
d="M524 -27l-122 10.001l-112 212.5l-117 210.5l-98 172.5l-95 174.5h116l113 -193.5l112 -193.5c36.667 -64.667 71.667 -129.834 105 -195.501z" />
    <glyph glyph-name="bracketright" unicode="]" horiz-adv-x="307" 
d="M246 304c0 -60 -1.66797 -119.666 -5.00098 -178.999s-7.66602 -119 -12.999 -179l-200 13l-8 89l114 20c-1.33301 49.333 -3 98.666 -5 147.999s-3.33301 99 -4 149l-4 355l-96 16l-5 82l46 10c16 3.33301 31.667 5 47 5c17.333 0 34.833 -0.666992 52.5 -2l52.5 -4
c8 -105.333 15 -212 21 -320c1.33301 -34 2.83301 -67.833 4.5 -101.5s2.5 -67.5 2.5 -101.5z" />
    <glyph glyph-name="asciicircum" unicode="^" horiz-adv-x="507" 
d="M486 375l-104.999 -18l-57 124.5c-18.667 41 -39.334 81.833 -62.001 122.5l-26.5 -51l-27.5 -51c-14 -24 -26.5 -49.333 -37.5 -76l-33.5 -78l-117 3l120 208l120 207l114 -195z" />
    <glyph glyph-name="underscore" unicode="_" horiz-adv-x="580" 
d="M580 16c-45.333 -1.33301 -90.168 -2.33301 -134.501 -3s-88.833 -1 -133.5 -1c-51.333 0 -102.666 -1.5 -153.999 -4.5s-102.666 -6.5 -153.999 -10.5l-4 130l158.5 4c53 1.33301 105.833 2 158.5 2c43.333 0 86.166 -0.333008 128.499 -1l127.5 -2z" />
    <glyph glyph-name="grave" unicode="`" 
d="M594 690l-36.002 -56l-53.5 30c-16.333 9.33301 -32.166 19 -47.499 29s-30.666 20.833 -45.999 32.5s-31.333 24.5 -48 38.5l72 99l47 -48c16 -16 31.333 -33 46 -51c10.667 -13.333 21.5 -26 32.5 -38z" />
    <glyph glyph-name="a" unicode="a" horiz-adv-x="811" 
d="M755 451c0 -56 -2 -111.665 -6 -166.998l-12 -166c-74.667 -6.66699 -149 -12.334 -223 -17.001s-148.333 -7 -223 -7c-6.66699 0 -19 0.166992 -37 0.5s-37 1 -57 2s-39 2.33301 -57 4s-30 4.16699 -36 7.5c-22 12 -37.333 27.167 -46 45.5s-13 39.166 -13 62.499
c0 8 0.333008 18.667 1 32s2 27.333 4 42s4.66699 28.334 8 41.001s7.33301 22 12 28c6 8 19.667 14.833 41 20.5s46.833 10.167 76.5 13.5s61.667 6 96 8s67.166 3.5 98.499 4.5s59.333 1.5 84 1.5h53c2 14.667 3 29 3 43v10.5c0 5.66699 -0.333008 9.16699 -1 10.5
c-2 4 -8.33301 7.33301 -19 10s-23.834 4.66699 -39.501 6s-32.667 2.5 -51 3.5s-36.166 1.5 -53.499 1.5h-46h-29c-42 0 -84 -0.833008 -126 -2.5s-84 -3.16699 -126 -4.5c2.66699 25.333 4.83398 51 6.50098 77s1.83398 51.667 0.500977 77
c48.667 8.66699 97.5 14.834 146.5 18.501s98.5 5.5 148.5 5.5c18 0 37.667 -0.166992 59 -0.5s42.666 -1 63.999 -2s42.5 -2.5 63.5 -4.5s40.5 -4.66699 58.5 -8c18.667 -3.33301 37.167 -9.33301 55.5 -18s35.5 -19.334 51.5 -32.001s30 -27.167 42 -43.5
s20.667 -33.833 26 -52.5c0.666992 -2 1.16699 -5.33301 1.5 -10s0.5 -9.83398 0.5 -15.501v-15.5v-10zM532 216.002l-0.000976562 127.998c-19.333 0.666992 -38.666 1.16699 -57.999 1.5s-38.666 0.5 -57.999 0.5c-4 0 -15.167 -0.166992 -33.5 -0.5
s-38 -1.16602 -59 -2.49902s-40.167 -3 -57.5 -5s-27.333 -5 -30 -9c-3.33301 -5.33301 -5.5 -10.833 -6.5 -16.5s-1.5 -11.5 -1.5 -17.5c0 -4.66699 0.333008 -11 1 -19s1.83398 -16.333 3.50098 -25s3.5 -16.667 5.5 -24s4.66699 -12.666 8 -15.999
c2.66699 -3.33301 7.16699 -5.83301 13.5 -7.5s13.166 -3 20.499 -4s14.666 -1.66699 21.999 -2s13 -0.5 17 -0.5c16 0 33.167 0.666992 51.5 2s37 2.83301 56 4.5s37.5 3.66699 55.5 6z" />
    <glyph glyph-name="b" unicode="b" horiz-adv-x="862" 
d="M826 208c0 -36 -8.00195 -68.6641 -24.002 -97.9971s-42 -49.666 -78 -60.999c-5.33301 -1.33301 -16.333 -2.5 -33 -3.5s-34.667 -1.66699 -54 -2s-37.666 -0.5 -54.999 -0.5h-34c-47.333 0 -94.5 0.333008 -141.5 1s-93.833 1.66699 -140.5 3l-5 -43
c-34 0 -68.333 -0.666992 -103 -2s-69.334 -3 -104.001 -5c0.666992 51.333 1.16699 102.333 1.5 153s0.5 101.667 0.5 153c0 73.333 -1.16699 146.166 -3.5 218.499s-4.5 144.833 -6.5 217.5l170 -7c-0.666992 -8.66699 -1 -17.5 -1 -26.5v-27.5
c0 -44 0.833008 -87.833 2.5 -131.5s2.5 -87.5 2.5 -131.5c10.667 19.333 25.334 37.666 44.001 54.999s38.334 28.666 59.001 33.999c18.667 4.66699 40 9 64 13s48.5 7.5 73.5 10.5s49.833 5.16699 74.5 6.5s46.667 2 66 2c14 0 29.5 -1.83301 46.5 -5.5
s33.833 -8.83398 50.5 -15.501s31.834 -14.834 45.501 -24.501s24.5 -20.834 32.5 -33.501c6.66699 -11.333 13.167 -28.166 19.5 -50.499s11.666 -46 15.999 -71s7.83301 -49.167 10.5 -72.5s4 -41.666 4 -54.999zM615.998 271.003
c0 6.66699 -0.834961 15.332 -2.50195 25.999s-4 21.5 -7 32.5s-6.5 21.333 -10.5 31s-8.66699 16.834 -14 21.501c-2.66699 2.66699 -7 4.5 -13 5.5s-12.167 1.83301 -18.5 2.5s-12.666 1 -18.999 1h-14.5c-6 0 -15.333 -0.333008 -28 -1s-27 -1.5 -43 -2.5
s-32.833 -2.33301 -50.5 -4s-34.167 -3.5 -49.5 -5.5s-28.666 -4.16699 -39.999 -6.5s-19 -4.83301 -23 -7.5l12 -167c17.333 0 39.5 0.166992 66.5 0.5s55 1.33301 84 3s57 4.16699 84 7.5s48.5 8.33301 64.5 15c11.333 4.66699 17.833 11 19.5 19s2.5 17.667 2.5 29z" />
    <glyph glyph-name="c" unicode="c" horiz-adv-x="722" 
d="M696 527c0 -30.667 -3.99902 -60.3379 -11.999 -89.0049c-4.66699 -0.666992 -18.5 -1.5 -41.5 -2.5s-50.333 -2.33301 -82 -4s-65.667 -3.66699 -102 -6s-70 -4.83301 -101 -7.5s-57.333 -5.5 -79 -8.5s-33.834 -5.83301 -36.501 -8.5
c-10.667 -9.33301 -18.667 -20.666 -24 -33.999s-8 -26.666 -8 -39.999c0 -8 0.833008 -14.167 2.5 -18.5s4.5 -9.16602 8.5 -14.499c2 -2 9 -3.66699 21 -5s25.333 -2.33301 40 -3s28.334 -1.16699 41.001 -1.5s20 -0.5 22 -0.5c48 0 96 1 144 3s96 4.66699 144 8l8 -172
l-200.5 -15.5c-67 -5 -134.167 -7.5 -201.5 -7.5h-14.5c-6.33301 0 -13.166 0.166992 -20.499 0.5s-14.333 0.833008 -21 1.5s-11.334 1.33398 -14.001 2.00098c-14 4 -27.833 8.5 -41.5 13.5s-26.5 11.333 -38.5 19s-22.5 16.834 -31.5 27.501s-15.5 23.667 -19.5 39
c-2.66699 10 -4.83398 23.167 -6.50098 39.5s-2.83398 33.166 -3.50098 50.499s-1.16699 34.333 -1.5 51s-0.5 30.667 -0.5 42c0 26 0.333008 50.333 1 73s4.33398 43.5 11.001 62.5s17.5 36 32.5 51s36.5 28.167 64.5 39.5c12.667 5.33301 31.667 9.5 57 12.5
s51.833 5.33301 79.5 7s54.167 2.83398 79.5 3.50098s45 1 59 1c46.667 0 93.167 -1 139.5 -3s92.833 -4.66699 139.5 -8c2 -16.667 3.66699 -33.167 5 -49.5s2 -32.5 2 -48.5z" />
    <glyph glyph-name="d" unicode="d" horiz-adv-x="794" 
d="M737 556v-83.0039c0 -27.333 -0.666992 -55 -2 -83c-1.33301 -61.333 -4 -122.166 -8 -182.499s-8.33301 -120.833 -13 -181.5c-60.667 -4 -120.667 -7.33301 -180 -10s-119.333 -4 -180 -4c-8 0 -20.667 0.166992 -38 0.5s-35.833 0.833008 -55.5 1.5
s-38.167 1.83398 -55.5 3.50098s-30 4.16699 -38 7.5c-51.333 18.667 -89.5 43.834 -114.5 75.501s-37.5 75.5 -37.5 131.5v16c1.33301 24.667 3.33301 46.667 6 66s7.5 37 14.5 53s16.667 30.833 29 44.5s29.166 27.5 50.499 41.5c14.667 10 32 18.333 52 25
s40.833 12.334 62.5 17.001s43 8 64 10s40.167 3 57.5 3c32 0 63.833 -2.33301 95.5 -7s63.167 -11.667 94.5 -21c-3.33301 44 -6.16602 87.5 -8.49902 130.5s-5.83301 86.167 -10.5 129.5c36 3.33301 71.667 7 107 11l106 12c0.666992 -34.667 1.16699 -69.167 1.5 -103.5
s0.5 -68.833 0.5 -103.5zM584 253.996v45.998c0 15.333 -0.333008 30.666 -1 45.999c-42 2 -84 3 -126 3c-6 0 -18.667 -0.166992 -38 -0.5s-39.833 -1 -61.5 -2s-41.834 -2.66699 -60.501 -5s-30.667 -5.16602 -36 -8.49902c-10 -7.33301 -16.167 -17.666 -18.5 -30.999
s-3.5 -25.666 -3.5 -36.999c0 -5.33301 0.333008 -12.5 1 -21.5s1.83398 -18.333 3.50098 -28s3.83398 -18.667 6.50098 -27s5.66699 -14.5 9 -18.5c2 -2 5.5 -3.66699 10.5 -5s10.5 -2.33301 16.5 -3s11.833 -1 17.5 -1h13.5c38 0 75.667 1.66699 113 5
s75 7.66602 113 12.999c5.33301 1.33301 11.666 2.16602 18.999 2.49902s14 1.5 20 3.5v2c0 0.666992 0.333008 1.33398 1 2.00098c1.33301 10.667 1.83301 21.334 1.5 32.001s-0.5 21.667 -0.5 33z" />
    <glyph glyph-name="e" unicode="e" horiz-adv-x="757" 
d="M731 371c-87.333 -4.66699 -174.333 -8.49805 -261 -11.498l-261 -9.5c-0.666992 -2.66699 -1 -5.33398 -1 -8.00098v-8c0 -22.667 5.16699 -40 15.5 -52s23.166 -20.5 38.499 -25.5s32.333 -7.83301 51 -8.5s36 -1 52 -1c44.667 0 89.334 1.5 134.001 4.5l135 9.5
l8 -159c-44 -2 -87.833 -3.66699 -131.5 -5s-87.5 -2 -131.5 -2c-9.33301 0 -26.5 0.166992 -51.5 0.5s-51.667 1.33301 -80 3s-54.833 3.83398 -79.5 6.50098s-41 6.33398 -49 11.001c-20.667 12 -36.834 27.333 -48.501 46s-20.667 39 -27 61s-10.666 44.5 -12.999 67.5
s-3.83301 45.167 -4.5 66.5c-0.666992 3.33301 -0.833984 6.83301 -0.500977 10.5s0.5 7.16699 0.5 10.5c0 35.333 3.83301 68.166 11.5 98.499s21.834 59.833 42.501 88.5c14 20 34.667 36.667 62 50s57 23.833 89 31.5s64 13 96 16s59.667 4.5 83 4.5
c20.667 0 46 -1.83301 76 -5.5s59.833 -9.83398 89.5 -18.501s56.5 -19.834 80.5 -33.501s40.333 -30.5 49 -50.5c1.33301 -4 2.83301 -10.833 4.5 -20.5l5.5 -33c2 -12.333 3.83301 -25.5 5.5 -39.5s3.16699 -27.333 4.5 -40l3.5 -34c1 -10 1.83301 -17 2.5 -21z
M595 444.002c-4 29.333 -11.5 52.501 -22.5 69.501s-24.667 29.667 -41 38s-35 13.666 -56 15.999s-43.5 3.5 -67.5 3.5c-8 0 -18 -0.166992 -30 -0.5s-24 -1.33301 -36 -3s-23.333 -4.16699 -34 -7.5s-19 -8 -25 -14c-4.66699 -4 -8.5 -9.5 -11.5 -16.5
s-5.5 -14.5 -7.5 -22.5s-3.5 -15.833 -4.5 -23.5s-1.5 -14.167 -1.5 -19.5c0 -10.667 1 -21 3 -31z" />
    <glyph glyph-name="f" unicode="f" horiz-adv-x="470" 
d="M470 709c0 -19.333 -0.827148 -38.1709 -2.49414 -56.5039s-3.83398 -37.166 -6.50098 -56.499c-3.33301 0.666992 -8.66602 1 -15.999 1c-9.33301 0 -19.833 -0.666992 -31.5 -2s-23.334 -3.5 -35.001 -6.5s-22.834 -7 -33.501 -12s-19.334 -11.167 -26.001 -18.5
c-7.33301 -8.66699 -14.5 -19.334 -21.5 -32.001s-10.5 -25 -10.5 -37c0 -5.33301 0.333008 -9.33301 1 -12l112 -5l4 -33c1.33301 -11.333 2 -22.333 2 -33s-0.333008 -21 -1 -31l-2 -30l-97 -20c5.33301 -57.333 11 -114.166 17 -170.499s10.667 -113.166 14 -170.499
c-8 0 -16 0.166992 -24 0.5s-15.667 0.5 -23 0.5c-34.667 0 -68.834 -1.16699 -102.501 -3.5s-67.5 -3.83301 -101.5 -4.5l9 331l-75 -4v27c0 23.333 1.33301 46.333 4 69s4.66699 45.667 6 69c21.333 0.666992 37 1.5 47 2.5s16.667 2.16699 20 3.5
c4 1.33301 5.33301 3 4 5c1.33301 22.667 3.33301 44.334 6 65.001c2 17.333 4.66699 35 8 53s7.66602 32 12.999 42c16.667 32 36.167 56.5 58.5 73.5s46.666 29.333 72.999 37s54.333 12 84 13s60.5 1.5 92.5 1.5h15.5c5 0 10.167 -0.333008 15.5 -1
c2 -19.333 3 -37.666 3 -54.999z" />
    <glyph glyph-name="g" unicode="g" horiz-adv-x="769" 
d="M708 354c0 -28 -0.162109 -55.832 -0.495117 -83.499s-0.5 -55.5 -0.5 -83.5c-0.666992 -14.667 -0.833984 -29.667 -0.500977 -45s-0.166992 -30.666 -1.5 -45.999c-2 -14.667 -4 -30.167 -6 -46.5s-5.33301 -32.5 -10 -48.5s-10.834 -31 -18.501 -45
s-17.834 -26 -30.501 -36c-3.33301 -2.66699 -10 -5 -20 -7s-21.667 -4 -35 -6s-27.666 -3.66699 -42.999 -5s-30 -2.5 -44 -3.5s-26.667 -2 -38 -3s-19.333 -1.5 -24 -1.5c-42 -1.33301 -83.5 -2.33301 -124.5 -3s-82.5 -1 -124.5 -1h-64l-4 35c-1.33301 12 -2 24 -2 36
c0 13.333 -1.33301 27.166 -4 41.499s-5.66699 28.5 -9 42.5l66 -1c4 0 15.167 0.166992 33.5 0.5s39.833 0.666016 64.5 0.999023s51.167 1 79.5 2s54.5 2.5 78.5 4.5s44.5 4.33301 61.5 7s26.5 5.66699 28.5 9c5.33301 8.66699 8.66602 18.5 9.99902 29.5s2 21.5 2 31.5
c0 5.33301 -0.166992 10.833 -0.5 16.5s-0.833008 11.167 -1.5 16.5c-37.333 -2.66699 -74.333 -5 -111 -7s-74 -3 -112 -3h-32.5c-13 0 -26.333 0.333008 -40 1s-27 1.66699 -40 3s-23.5 3.33301 -31.5 6c-13.333 4 -26.833 8.5 -40.5 13.5s-26.5 11.167 -38.5 18.5
s-22.5 16.166 -31.5 26.499s-15.167 22.833 -18.5 37.5c-2 7.33301 -3.16699 15.333 -3.5 24s-0.5 16.667 -0.5 24c0 18.667 1 42.334 3 71.001s5.5 57.834 10.5 87.501s11.667 57.667 20 84s18.833 46.166 31.5 59.499c7.33301 8 19.166 15 35.499 21s34.833 11 55.5 15
s42.5 7.5 65.5 10.5s45.5 5.16699 67.5 6.5s42.167 2.33301 60.5 3s32.833 1 43.5 1c37.333 0 74.666 -1 111.999 -3l7 64l168 -25c0.666992 -58 1.16699 -115.667 1.5 -173s0.5 -115.333 0.5 -174zM531.005 373.001c0 21.333 -0.334961 42.1709 -1.00195 62.5039
s-1.66699 41.166 -3 62.499c-29.333 6.66699 -58.666 12 -87.999 16s-59.333 6 -90 6c-5.33301 0 -13.333 -0.333008 -24 -1s-21.834 -1.83398 -33.501 -3.50098s-22.5 -4 -32.5 -7s-17 -6.5 -21 -10.5c-6 -6.66699 -9.66699 -14.334 -11 -23.001s-2 -17.334 -2 -26.001
c0 -7.33301 0.833008 -18.5 2.5 -33.5s3.83398 -30.5 6.50098 -46.5s6 -31 10 -45s8 -23.667 12 -29s9 -9.33301 15 -12s12.5 -4.5 19.5 -5.5s14 -1.66699 21 -2s13.167 -0.5 18.5 -0.5c13.333 0 29.5 0.5 48.5 1.5s38 2.83301 57 5.5s36.833 6.5 53.5 11.5
s29.334 11.833 38.001 20.5c1.33301 0.666992 2.33301 4 3 10s1 12.333 1 19v19v11z" />
    <glyph glyph-name="h" unicode="h" horiz-adv-x="764" 
d="M723 390c0 -24.667 -1.49902 -49.501 -4.49902 -74.501s-6.16699 -49.833 -9.5 -74.5c-5.33301 -43.333 -11.333 -86.166 -18 -128.499l-20 -128.5c-32.667 -0.666992 -64.667 -2 -96 -4s-63 -4.33301 -95 -7v144.5c0 47.667 -1 95.5 -3 143.5
c0 9.33301 -0.166992 21.333 -0.5 36s-1.83301 26.667 -4.5 36c-4 15.333 -9 25.833 -15 31.5s-17.667 8.5 -35 8.5c-12 0 -26 -1.33301 -42 -4s-32.333 -6 -49 -10s-32.5 -8.5 -47.5 -13.5s-27.5 -10.167 -37.5 -15.5c-5.33301 -54 -11.833 -107.667 -19.5 -161
s-12.5 -107.333 -14.5 -162l-141 7l-21 358.5c-6.66699 119 -13 238.5 -19 358.5l220 14l-4 -131.5l-4 -131.5c12.667 10.667 27 18.834 43 24.501s32.5 9.5 49.5 11.5s34.167 3 51.5 3h50c24 0 51.167 -0.833008 81.5 -2.5s59.333 -6.33398 87 -14.001
s52.167 -19.834 73.5 -36.501s35.666 -40 42.999 -70c0.666992 -1.33301 1 -2.66602 1 -3.99902v-4z" />
    <glyph glyph-name="i" unicode="i" horiz-adv-x="324" 
d="M221 669c0 -13.333 -2.83008 -25.8301 -8.49707 -37.4971s-13.334 -21.834 -23.001 -30.501s-20.5 -15.5 -32.5 -20.5s-24 -7.5 -36 -7.5c-13.333 0 -25.833 3 -37.5 9s-21.834 13.667 -30.501 23s-15.334 20.166 -20.001 32.499s-7 24.833 -7 37.5s2.5 24.5 7.5 35.5
s11.667 20.5 20 28.5s18 14.333 29 19s22.833 7 35.5 7s25.167 -2.5 37.5 -7.5s23.333 -12 33 -21s17.5 -19.333 23.5 -31s9 -23.834 9 -36.501zM262.003 499.003c-3.33301 -35.333 -5.99902 -70.334 -7.99902 -105.001l-6 -104c-2.66699 -40.667 -7.16699 -81 -13.5 -121
s-13.5 -80 -21.5 -120l-153 -16c0 21.333 0.166992 42.333 0.5 63s0.5 41.667 0.5 63c0 54.667 -1 109.334 -3 164.001l-6 164c35.333 1.33301 70.166 3.33301 104.499 6s69.5 4.66699 105.5 6z" />
    <glyph glyph-name="j" unicode="j" horiz-adv-x="315" 
d="M228 669c0 -13.333 -2.99707 -25.6641 -8.99707 -36.9971s-13.667 -21.5 -23 -30.5s-20 -16 -32 -21s-24.333 -7.5 -37 -7.5c-13.333 0 -25.833 3 -37.5 9s-21.834 13.667 -30.501 23s-15.334 20.166 -20.001 32.499s-7 25.166 -7 38.499
c0 25.333 9.16699 46.666 27.5 63.999s40.166 26 65.499 26c12.667 0 25.167 -2.5 37.5 -7.5s23.333 -12 33 -21s17.5 -19.333 23.5 -31s9 -24.167 9 -37.5zM249.003 372.002l-0.00195312 -158.006c0 -52 -0.333008 -104.667 -1 -158
c0 -17.333 -0.333008 -34.666 -1 -51.999s-1 -34.666 -1 -51.999c0 -15.333 -0.666992 -32 -2 -50s-4.16602 -35.5 -8.49902 -52.5s-11.333 -32.167 -21 -45.5s-23.167 -22.666 -40.5 -27.999c-6 -2 -18.667 -3.66699 -38 -5s-40 -2.33301 -62 -3s-42.833 -1 -62.5 -1h-39.5
c-10 0 -20 0.166992 -30 0.5s-19.667 0.5 -29 0.5c-1.33301 25.333 -4.16602 49.5 -8.49902 72.5s-8.5 47.167 -12.5 72.5l99 9c9.33301 0.666992 19.5 1.33398 30.5 2.00098s21.167 2.5 30.5 5.5s17 8 23 15s9 17.167 9 30.5c0 30.667 -1.33301 61.334 -4 92.001
s-5 61.334 -7 92.001c-3.33301 50 -7 100 -11 150l-12 152c7.33301 -0.666992 14.333 -1 21 -1h21c26 0 52.167 0.833008 78.5 2.5s52.5 3.16699 78.5 4.5v-95z" />
    <glyph glyph-name="k" unicode="k" horiz-adv-x="690" 
d="M726 551l-257 -186.002c2 -8 6 -20.833 12 -38.5s12.667 -36 20 -55s15.166 -36.667 23.499 -53s16.166 -26.833 23.499 -31.5c4.66699 -3.33301 10.667 -6 18 -8s14.833 -3.66699 22.5 -5s15.334 -2.16602 23.001 -2.49902s14.167 -0.5 19.5 -0.5
c9.33301 0 19 0.333008 29 1s19.667 1.66699 29 3c-1.33301 -8.66699 -2.33301 -17.5 -3 -26.5s-1 -18.167 -1 -27.5c0 -16 0.333008 -32 1 -48s1 -31.667 1 -47c-4.66699 -0.666992 -12.834 -1.5 -24.501 -2.5s-25 -2 -40 -3s-30.833 -2.16699 -47.5 -3.5
s-32.167 -2.5 -46.5 -3.5s-26.666 -1.5 -36.999 -1.5s-16.833 0.666992 -19.5 2c-11.333 5.33301 -22.333 11 -33 17s-19.667 14.333 -27 25c-3.33301 4.66699 -8.83301 17.334 -16.5 38.001l-24 68l-23 69l-13.5 41l-96 -62v-174l-198 -17
c4 93.333 8.33301 186.166 13 278.499s7 185.5 7 279.5c0 28.667 -0.166992 57 -0.5 85s-0.833008 56.667 -1.5 86c27.333 -5.33301 54.5 -8.66602 81.5 -9.99902s54.167 -3.33301 81.5 -6v-374l152.5 98c49.667 33.333 97.834 70 144.501 110c35.333 -4 69.833 -7 103.5 -9
z" />
    <glyph glyph-name="l" unicode="l" horiz-adv-x="305" 
d="M264 769l-15.5 -193.001c-5 -64 -9.16699 -128.333 -12.5 -193c-3.33301 -58.667 -6.83301 -116.834 -10.5 -174.501s-7.16699 -115.834 -10.5 -174.501l-153 -8c0 60.667 0.166992 120.834 0.5 180.501s-0.166992 119.834 -1.5 180.501s-4 120.834 -8 180.501l-12 180.5
z" />
    <glyph glyph-name="m" unicode="m" horiz-adv-x="1058" 
d="M996 253c0 -28 -0.504883 -55.502 -1.50488 -82.502s-2.83301 -54.167 -5.5 -81.5c-28 -1.33301 -54.833 -2.83301 -80.5 -4.5s-52.5 -5.16699 -80.5 -10.5c8 48 12 96.333 12 145c0 8.66699 -0.666992 23.5 -2 44.5s-3.16602 43 -5.49902 66s-5.33301 44.167 -9 63.5
s-7.83398 32 -12.501 38c-3.33301 4 -8.33301 7 -15 9s-13.667 3.5 -21 4.5s-14.666 1.66699 -21.999 2s-13.333 0.5 -18 0.5c-8 0 -17.5 -0.333008 -28.5 -1s-22.167 -1.83398 -33.5 -3.50098s-22.166 -4.16699 -32.499 -7.5s-18.833 -7.33301 -25.5 -12
c-3.33301 -2.66699 -6.16602 -9.66699 -8.49902 -21s-4.16602 -25 -5.49902 -41s-2.5 -33.333 -3.5 -52s-1.83301 -36.167 -2.5 -52.5s-1 -30.666 -1 -42.999v-23.5c0 -44 1 -88 3 -132l-56.5 -2c-18.333 -0.666992 -37.166 -1 -56.499 -1h-8
c-3.33301 0 -6.66602 0.333008 -9.99902 1c-4 0 -8 0.333008 -12 1v73c0 20.667 -0.333008 42 -1 64s-1.33398 41.333 -2.00098 58c-0.666992 11.333 -1.66699 26 -3 44s-4.33301 35.5 -9 52.5s-11.5 31.667 -20.5 44s-21.5 18.5 -37.5 18.5
c-7.33301 0 -17.166 -1.16699 -29.499 -3.5s-25 -5.33301 -38 -9s-25 -8 -36 -13s-18.833 -10.167 -23.5 -15.5c-1.33301 -1.33301 -2.83301 -8.83301 -4.5 -22.5s-3.16699 -30.334 -4.5 -50.001l-4.5 -64c-1.66699 -23 -3 -44.5 -4 -64.5s-2 -37.167 -3 -51.5
s-1.5 -22.833 -1.5 -25.5c-13.333 -1.33301 -26.833 -2.5 -40.5 -3.5s-27.167 -1.5 -40.5 -1.5c-12.667 0 -25.334 0.333008 -38.001 1s-25 1.66699 -37 3c-3.33301 84.667 -8.16602 168.334 -14.499 251.001s-13.166 166.334 -20.499 251.001
c18.667 2 37.167 3.83301 55.5 5.5s36.833 2.5 55.5 2.5c18 0 36 -0.333008 54 -1l55 -2l-13 -86c30.667 24.667 60.167 43 88.5 55s62.166 18 101.499 18c15.333 0 28.833 -1.83301 40.5 -5.5s22.334 -8.66699 32.001 -15s19.167 -13.833 28.5 -22.5l30 -28
c12 18.667 25.833 33.5 41.5 44.5s32.5 19.5 50.5 25.5s37 9.83301 57 11.5s40 2.5 60 2.5c16 0 32.833 -0.5 50.5 -1.5s34.667 -3.83301 51 -8.5s31.166 -11.667 44.499 -21s23.666 -22 30.999 -38c8.66699 -19.333 15.667 -40.666 21 -63.999s9.5 -47.333 12.5 -72
s5 -49 6 -73s1.5 -46.333 1.5 -67z" />
    <glyph glyph-name="n" unicode="n" horiz-adv-x="691" 
d="M635 297l0.00292969 -54.498c0 -18.333 -0.666992 -36.5 -2 -54.5l-223 -14c2.66699 34.667 4.83398 69 6.50098 103s2.5 68.667 2.5 104v17c0 8 -0.333008 16.5 -1 25.5s-1.33398 17.5 -2.00098 25.5s-1.33398 13.667 -2.00098 17
c-3.33301 9.33301 -6.83301 17.333 -10.5 24s-8 12 -13 16s-11.167 6.83301 -18.5 8.5s-16.333 2.5 -27 2.5c-8 0 -18.167 -0.666992 -30.5 -2s-24.833 -3.33301 -37.5 -6s-24.667 -6 -36 -10s-19.333 -8.66699 -24 -14l-2 -295c-1.33301 2.66699 -5.16602 4 -11.499 4
h-13.5c-20 0 -40.667 -0.833008 -62 -2.5s-42 -3.83398 -62 -6.50098c-8.66699 78.667 -16.334 157 -23.001 235s-14.334 156.333 -23.001 235c13.333 0.666992 26.666 1.16699 39.999 1.5s26.666 0.5 39.999 0.5c17.333 0 34.833 -0.5 52.5 -1.5s35.167 -1.83301 52.5 -2.5
l7 -77c18.667 30.667 44 56.334 76 77.001s66.333 31 103 31c18.667 0 38 -1 58 -3s39.167 -6 57.5 -12s35.666 -14.333 51.999 -25s30.166 -24.334 41.499 -41.001c5.33301 -8 9.83301 -19.833 13.5 -35.5s6.83398 -33.334 9.50098 -53.001s4.83398 -40.5 6.50098 -62.5
s2.83398 -43 3.50098 -63s1.16699 -38.167 1.5 -54.5s0.5 -28.833 0.5 -37.5z" />
    <glyph glyph-name="o" unicode="o" horiz-adv-x="836" 
d="M784 396l0.00390625 -15.4971c0 -5 -0.333008 -10.167 -1 -15.5c-0.666992 -9.33301 -2.33398 -24.666 -5.00098 -45.999s-6.33398 -43.5 -11.001 -66.5s-10.334 -44.167 -17.001 -63.5s-14 -31.666 -22 -36.999c-4 -2.66699 -17.5 -5 -40.5 -7s-51 -4 -84 -6
s-68.833 -3.66699 -107.5 -5s-75.5 -2.5 -110.5 -3.5s-65.667 -1.83301 -92 -2.5s-43.833 -1 -52.5 -1h-20.5c-9.66699 0 -19.834 0.166992 -30.501 0.5s-20.667 0.833008 -30 1.5s-16 1.66699 -20 3c-9.33301 3.33301 -18.666 8.83301 -27.999 16.5s-18 16.334 -26 26.001
s-15.167 19.667 -21.5 30s-10.833 20.166 -13.5 29.499c-2 7.33301 -3.66699 18.5 -5 33.5s-2.33301 30.667 -3 47s-1.16699 32.166 -1.5 47.499s-0.5 27 -0.5 35c0 12.667 0.333008 30.167 1 52.5s2.66699 45.166 6 68.499s8.16602 45.166 14.499 65.499
s15.5 34.5 27.5 42.5c5.33301 3.33301 15.333 6.33301 30 9s32 5 52 7s41.333 3.5 64 4.5s44.834 1.66699 66.501 2s41.834 0.5 60.501 0.5s33.667 -0.333008 45 -1c10 -0.666992 24.333 -1.16699 43 -1.5s39.5 -0.833008 62.5 -1.5s46.833 -1.83398 71.5 -3.50098
s47.667 -3.83398 69 -6.50098s40.166 -6.16699 56.499 -10.5s27.166 -9.5 32.499 -15.5c8.66699 -9.33301 15.667 -23.333 21 -42s9.5 -38.5 12.5 -59.5s5 -41.667 6 -62s1.5 -36.833 1.5 -49.5zM572.004 375.003c0 8 -0.336914 17.3311 -1.00391 27.998
s-1.66699 21.5 -3 32.5s-3.33301 21.667 -6 32s-6 18.833 -10 25.5c-5.33301 8.66699 -15.666 15.334 -30.999 20.001s-32.166 8.16699 -50.499 10.5s-36.333 3.83301 -54 4.5s-30.834 1 -39.501 1c-4.66699 0 -13 -0.166992 -25 -0.5s-24.5 -0.833008 -37.5 -1.5
s-25.167 -1.83398 -36.5 -3.50098s-18.666 -3.5 -21.999 -5.5c-6 -4 -10.667 -10.167 -14 -18.5s-5.83301 -17.5 -7.5 -27.5s-2.66699 -19.833 -3 -29.5s-0.5 -17.5 -0.5 -23.5s0.5 -16.833 1.5 -32.5s2.33301 -32.334 4 -50.001s3.83398 -33.834 6.50098 -48.501
s6 -24 10 -28c4.66699 -5.33301 13.5 -9.66602 26.5 -12.999s27 -6.16602 42 -8.49902s29.5 -4 43.5 -5s24 -1.5 30 -1.5c10.667 0 23.334 0.333008 38.001 1s29.5 2.33398 44.5 5.00098s29.167 6.33398 42.5 11.001s24 11 32 19c4.66699 4.66699 8.33398 11.667 11.001 21
s4.66699 19.333 6 30s2.16602 21.167 2.49902 31.5s0.5 18.5 0.5 24.5z" />
    <glyph glyph-name="p" unicode="p" horiz-adv-x="805" 
d="M759 341c0 -9.33301 -0.166992 -19.4961 -0.5 -30.4961s-1.33301 -22.167 -3 -33.5s-4 -22.166 -7 -32.499s-7.16699 -19.5 -12.5 -27.5c-11.333 -16.667 -22 -30.834 -32 -42.501s-20.833 -21.334 -32.5 -29.001s-24.834 -13.834 -39.501 -18.501
s-32 -8.33398 -52 -11.001c-30 -4.66699 -59.667 -8.83398 -89 -12.501s-59 -5.5 -89 -5.5c-13.333 0 -27 0.666992 -41 2s-27 5.66602 -39 12.999c-6.66699 3.33301 -13.834 7.83301 -21.501 13.5s-15.167 11.667 -22.5 18l-21.5 19l-18.5 16.5l-6 -251
c-18.667 -1.33301 -37.334 -1.83301 -56.001 -1.5s-37.667 0.5 -57 0.5c-11.333 0 -22.166 -0.166992 -32.499 -0.5s-21.166 -0.833008 -32.499 -1.5c2.66699 57.333 5.16699 114.5 7.5 171.5s3.5 113.833 3.5 170.5v12c0 63.333 -1.66699 126.333 -5 189
s-6.33301 125.667 -9 189c33.333 2.66699 66.333 5 99 7s65.667 4.33301 99 7l7 -53c46 5.33301 92.167 9.83301 138.5 13.5s92.833 5.5 139.5 5.5c6 0 12.5 0.166992 19.5 0.5s13.5 -0.166992 19.5 -1.5c16 -3.33301 32.333 -7.5 49 -12.5s32.334 -11.5 47.001 -19.5
s27.667 -18.167 39 -30.5s20 -27.166 26 -44.499c4 -13.333 7.66699 -28 11 -44s6 -32.5 8 -49.5s3.5 -33.667 4.5 -50s1.5 -31.5 1.5 -45.5zM562 359.004c0 8 -0.666016 16.668 -1.99902 26.001s-4.66602 17 -9.99902 23c-13.333 15.333 -30 27.166 -50 35.499
s-39.667 12.5 -59 12.5c-16 0 -33.333 -1.5 -52 -4.5s-37.334 -7 -56.001 -12s-37 -10.667 -55 -17s-34.333 -12.5 -49 -18.5l9 -134c24.667 -7.33301 51.167 -14 79.5 -20s55.166 -9 80.499 -9c6.66699 0 17 -0.166992 31 -0.5s28.5 0 43.5 1s29 2.5 42 4.5
s21.5 5.66699 25.5 11c3.33301 4 6.33301 10.5 9 19.5s5 18.667 7 29s3.5 20.333 4.5 30s1.5 17.5 1.5 23.5z" />
    <glyph glyph-name="q" unicode="q" horiz-adv-x="815" 
d="M749 403c0 -12 -0.165039 -24.3281 -0.498047 -36.9951s-0.5 -25 -0.5 -37c-2.66699 -62.667 -4.66699 -124.834 -6 -186.501l-4 -186.5l-201 -7v222c-5.33301 -5.33301 -14.5 -9.33301 -27.5 -12s-26.833 -4.66699 -41.5 -6s-29 -2 -43 -2h-31
c-12.667 0 -30.167 0.166992 -52.5 0.5s-45.333 1.16602 -69 2.49902s-46.334 3.16602 -68.001 5.49902s-38.167 5.5 -49.5 9.5c-22 7.33301 -41.333 18.666 -58 33.999s-30.834 32.833 -42.501 52.5s-20.334 40.667 -26.001 63s-8.5 44.5 -8.5 66.5v6
c0 20 2.5 41.167 7.5 63.5s12.667 43.833 23 64.5s23 39.5 38 56.5s32.5 30.167 52.5 39.5c11.333 5.33301 27 9.66602 47 12.999s41 6 63 8s43.167 3.33301 63.5 4s36.833 1 49.5 1c26.667 0 53.167 -0.666992 79.5 -2s52.833 -3 79.5 -5l2 51
c37.333 -3.33301 73.5 -7.83301 108.5 -13.5s70.5 -12.167 106.5 -19.5c2.66699 -42 4.83398 -83.5 6.50098 -124.5s2.5 -82.5 2.5 -124.5zM540.002 535.005c-23.333 3.33301 -46.832 6.00098 -70.499 8.00098s-47.167 3 -70.5 3c-4.66699 0 -12.834 -0.333008 -24.501 -1
s-24 -1.83398 -37 -3.50098s-25.167 -4 -36.5 -7s-18.666 -6.83301 -21.999 -11.5c-3.33301 -4 -6 -9.5 -8 -16.5s-3.5 -14.5 -4.5 -22.5s-1.66699 -15.833 -2 -23.5s-0.5 -14.167 -0.5 -19.5c0 -12 0.166992 -24.833 0.5 -38.5s2.16602 -26.167 5.49902 -37.5
c2.66699 -9.33301 10 -16.5 22 -21.5s25.5 -9 40.5 -12s29.833 -4.83301 44.5 -5.5s25.667 -1 33 -1c21.333 0 43 2.16699 65 6.5s43.333 9.5 64 15.5z" />
    <glyph glyph-name="r" unicode="r" horiz-adv-x="635" 
d="M630 422l-0.00292969 -23.002l-193 -9c2 8.66699 3 18.667 3 30c0 16.667 -2.33301 27.5 -7 32.5s-15 7.5 -31 7.5c-22.667 0 -47.667 -4 -75 -12s-51.333 -15.667 -72 -23c-3.33301 -29.333 -6 -58.666 -8 -87.999s-3 -58.666 -3 -87.999
c0 -32.667 0.166992 -65.167 0.5 -97.5s0.833008 -64.833 1.5 -97.5l-172 -11l-10 127.5c-3.33301 42.333 -6.33301 84.833 -9 127.5c-3.33301 56.667 -7.66602 113.167 -12.999 169.5l-16 170.5c38 -2.66699 75.833 -6.5 113.5 -11.5s75.5 -11.167 113.5 -18.5l-5 -84
c20 16 39.167 29.833 57.5 41.5s37 21.5 56 29.5s39.167 13.833 60.5 17.5s45 5.5 71 5.5c17.333 0 35.333 -1.83301 54 -5.5s34.667 -12.167 48 -25.5c6.66699 -7.33301 12.334 -18.333 17.001 -33s8.33398 -30.167 11.001 -46.5s4.5 -32.333 5.5 -48
s1.5 -28.167 1.5 -37.5z" />
    <glyph glyph-name="s" unicode="s" horiz-adv-x="652" 
d="M606 694l-5.99805 -129.997c-20.667 1.33301 -41.334 2.33301 -62.001 3s-41.334 1 -62.001 1c-8.66699 0 -21 -0.166992 -37 -0.5s-33.833 -0.833008 -53.5 -1.5s-39.834 -1.66699 -60.501 -3s-39.667 -2.66602 -57 -3.99902s-32 -3 -44 -5s-19.333 -4 -22 -6
c-8.66699 -8.66699 -13 -18.667 -13 -30c0 -7.33301 2 -13.333 6 -18c1.33301 -2 8.66602 -3.66699 21.999 -5s29.666 -2.5 48.999 -3.5s40.5 -1.66699 63.5 -2l66 -1c21 -0.333008 39.667 -0.833008 56 -1.5s27.833 -1.33398 34.5 -2.00098
c25.333 -3.33301 45.5 -10.666 60.5 -21.999s26.5 -25.5 34.5 -42.5s13.167 -36.167 15.5 -57.5s3.5 -43 3.5 -65c0 -10.667 -0.833008 -23.334 -2.5 -38.001s-4.16699 -29.334 -7.5 -44.001s-8.16602 -28.334 -14.499 -41.001s-13.833 -22.667 -22.5 -30
c-10 -8 -26.167 -14.667 -48.5 -20s-46.333 -9.66602 -72 -12.999s-50.5 -5.66602 -74.5 -6.99902s-42.333 -2 -55 -2c-44 0 -88 2.5 -132 7.5s-87.667 10.5 -131 16.5v191c42 -8.66699 84.167 -13.667 126.5 -15s84.833 -3.66602 127.5 -6.99902
c8.66699 -0.666992 21.834 -1.16699 39.501 -1.5s35.5 0 53.5 1s34.333 3.16699 49 6.5s23.667 8 27 14c1.33301 2 2 4.33301 2 7v7c0 5.33301 -0.5 12.166 -1.5 20.499s-3.16699 14.833 -6.5 19.5c-0.666992 0.666992 -3 1.16699 -7 1.5s-6.33301 0.5 -7 0.5
c-37.333 2 -74.666 3.16699 -111.999 3.5s-75 2.16602 -113 5.49902c-15.333 1.33301 -30.833 2.83301 -46.5 4.5s-31.167 4.16699 -46.5 7.5c-12.667 2.66699 -24.167 5.66699 -34.5 9s-19.333 7.66602 -27 12.999s-14.167 12.166 -19.5 20.499s-9 19.5 -11 33.5
c-1.33301 4.66699 -2 9.16699 -2 13.5v14.5c0 12 0.666992 25.667 2 41s3.83301 30.666 7.5 45.999s8.33398 29.833 14.001 43.5s13.167 24.834 22.5 33.501c6 6 16.667 11 32 15s33 7.5 53 10.5s41.333 5.5 64 7.5s44.5 3.5 65.5 4.5s40 1.66699 57 2s29.833 0.5 38.5 0.5
c37.333 0 74.166 -0.666992 110.499 -2s72.5 -3 108.5 -5z" />
    <glyph glyph-name="t" unicode="t" horiz-adv-x="492" 
d="M538 177l-17.0039 -175.998c-21.333 -1.33301 -42.666 -2.5 -63.999 -3.5s-42.666 -1.5 -63.999 -1.5c-11.333 0 -26.333 0.333008 -45 1s-38 1.83398 -58 3.50098s-39 4 -57 7s-32.333 6.83301 -43 11.5c-16 7.33301 -29.167 17 -39.5 29s-18.833 25.167 -25.5 39.5
s-12 29.666 -16 45.999s-7 32.5 -9 48.5c-2 15.333 -3.5 31.833 -4.5 49.5s-1.66699 35.834 -2 54.501s-0.5 36.834 -0.5 54.501v49.5v30h-62c2.66699 30 4.16699 59.667 4.5 89s1.83301 59 4.5 89l60 -2v148c38 -7.33301 75.833 -11.166 113.5 -11.499
s75.5 -1.83301 113.5 -4.5l-2 -153l84 -5c0 -4.66699 0.166992 -9 0.5 -13s0.5 -8.33301 0.5 -13c0 -18.667 -1.5 -36.834 -4.5 -54.501s-6.83301 -35.5 -11.5 -53.5h-73c-1.33301 -30.667 -2.33301 -61.334 -3 -92.001s-1 -61.334 -1 -92.001
c0 -14.667 0.5 -27.834 1.5 -39.501s3.66699 -21.5 8 -29.5s11.5 -14 21.5 -18s24 -6 42 -6c24.667 0 49.334 1.66699 74.001 5s49.334 7.66602 74.001 12.999z" />
    <glyph glyph-name="u" unicode="u" horiz-adv-x="783" 
d="M726 51l-168.992 -7.00195l-12 101c-12.667 -17.333 -27.834 -32 -45.501 -44s-36.667 -21.667 -57 -29s-41.333 -12.5 -63 -15.5s-42.834 -4.5 -63.501 -4.5c-16 0 -35.833 1.33301 -59.5 4s-47.667 6.5 -72 11.5s-46.833 11.5 -67.5 19.5s-35.667 17.333 -45 28
c-7.33301 8 -12.833 20.833 -16.5 38.5s-6.16699 36.5 -7.5 56.5s-2 39.333 -2 58v45c0 50 2 99.333 6 148s9.66699 97 17 145c18.667 2 38.667 3 60 3c17.333 0 34.666 -1.16699 51.999 -3.5s34.666 -5.16602 51.999 -8.49902c0 -3.33301 0.333008 -13 1 -29
s1.5 -35 2.5 -57s2.16699 -45.5 3.5 -70.5s2.83301 -48.167 4.5 -69.5s3.66699 -39.5 6 -54.5s4.83301 -23.167 7.5 -24.5c10 -6 21 -9.33301 33 -10s23.667 -1 35 -1c8 0 20.5 0.5 37.5 1.5s34.5 2.66699 52.5 5s34.667 5.33301 50 9s25.666 8.16699 30.999 13.5
c2 2 3.5 8.33301 4.5 19s1.66699 22.334 2 35.001s0.666016 24.5 0.999023 35.5s0.5 17.5 0.5 19.5c0 30 -0.666992 59.667 -2 89l-4 89l194 9c4 -46.667 7.66699 -93.167 11 -139.5s7.66602 -92.833 12.999 -139.5c2 -15.333 3.16699 -31 3.5 -47s0.833008 -32 1.5 -48
c1.33301 -30 2.16602 -60 2.49902 -90s0.833008 -60.333 1.5 -91z" />
    <glyph glyph-name="v" unicode="v" horiz-adv-x="650" 
d="M666 564l-73 -133.5l-73.5 -127l-77.5 -124.5l-85 -126l-174 -7l-198 523l222 6l38.5 -185.5l38.5 -186.5l73.5 175c23.667 58 45.167 117.667 64.5 179c41.333 0 82 0.333008 122 1s80.667 2.66699 122 6z" />
    <glyph glyph-name="w" unicode="w" horiz-adv-x="898" 
d="M888 682l-55.5 -281c-17.667 -93.333 -36.5 -187 -56.5 -281l-208 -2l-76 270l-174 -270l-227 -17c-5.33301 46 -11 92.333 -17 139s-12.667 93 -20 139l-22 142.5l-22 141.5l206 6l66 -313l41 89l42 89c14.667 33.333 30.667 65 48 95l113 -2l56.5 -145.5
c18.333 -48.333 38.166 -96.166 59.499 -143.499c12 32 22.5 61.833 31.5 89.5s17.167 55 24.5 82s14.333 54.667 21 83s13.334 59.166 20.001 92.499z" />
    <glyph glyph-name="x" unicode="x" horiz-adv-x="634" 
d="M675 664l-122 -134.001l-65.5 -68.5l-66.5 -65.5l110 -156c36 -52 73.333 -103.333 112 -154l-194 -5l-79 101c-25.333 33.333 -53 65 -83 95l-189 -180c-26 1.33301 -52.167 2.83301 -78.5 4.5s-53.166 2.5 -80.499 2.5c0 0.666992 3 4.33398 9 11.001l22.5 24.5l30 32
l31.5 33l26.5 27.5l15.5 16l60 67.5l60 68.5l-234 269l236 6l100 -163l36.5 41.5l29.5 36.5l28 37.5c9.33301 13 19.666 28.167 30.999 45.5z" />
    <glyph glyph-name="y" unicode="y" horiz-adv-x="798" 
d="M736 197l-0.00390625 -32.0059c0 -14 -0.333008 -29.833 -1 -47.5s-1.5 -36 -2.5 -55s-2.16699 -37 -3.5 -54s-3.16602 -32 -5.49902 -45s-4.83301 -22.167 -7.5 -27.5c-11.333 -18 -21.833 -31.833 -31.5 -41.5s-20.167 -16.5 -31.5 -20.5
s-24.166 -6.16699 -38.499 -6.5s-31.166 -0.5 -50.499 -0.5c-64 0 -127.667 2.5 -191 7.5s-126.666 10.833 -189.999 17.5v137c6 0 19.167 0.166992 39.5 0.5s44.166 0.833008 71.499 1.5s56.333 1.66699 87 3s59.334 3 86.001 5s49.667 4.33301 69 7s31.333 6 36 10
c6 4.66699 10.833 11.834 14.5 21.501s6.33398 19.834 8.00098 30.501s2.83398 21.334 3.50098 32.001s1 19.334 1 26.001v19c0 6 -0.333008 12.667 -1 20c-10 -22.667 -23.333 -39.667 -40 -51s-35.334 -19.333 -56.001 -24s-42.334 -7.16699 -65.001 -7.5
s-44.334 -0.5 -65.001 -0.5c-43.333 0 -85.166 1.83301 -125.499 5.5s-76 13.167 -107 28.5s-56 38.5 -75 69.5s-28.5 73.833 -28.5 128.5c0 54 3.66699 107.833 11 161.5s16.666 106.834 27.999 159.501l211 -2c-11.333 -42 -21.333 -84.667 -30 -128s-13 -87 -13 -131
c0 -23.333 1.66699 -42.333 5 -57s9.33301 -26.5 18 -35.5s20.667 -15.167 36 -18.5s34.666 -5 57.999 -5c9.33301 0 20.833 0.666992 34.5 2s27.667 3.16602 42 5.49902s28 5.5 41 9.5s23.167 9 30.5 15c2.66699 2 5 8.66699 7 20s3.66699 24.833 5 40.5
s2.33301 32.5 3 50.5s1.16699 35 1.5 51s0.5 29.833 0.5 41.5v22.5v67.5c0 22.333 -0.666992 44.833 -2 67.5c32.667 -3.33301 64.834 -6.16602 96.501 -8.49902s63.834 -4.16602 96.501 -5.49902c2.66699 -64.667 5.5 -128.667 8.5 -192l9.5 -192
c1.33301 -16 2 -32.167 2 -48.5v-47.5z" />
    <glyph glyph-name="z" unicode="z" horiz-adv-x="617" 
d="M592 126c-92.667 0 -184.667 -0.333008 -276 -1s-183 -2 -275 -4l-7 155l99.5 62l98.5 63c23.333 15.333 46 31.166 68 47.499l65 50.5l-373 34l-2 131c64.667 3.33301 129.167 6 193.5 8s128.833 3 193.5 3c32 0 63.5 -0.166992 94.5 -0.5s62.5 -1.16602 94.5 -2.49902
c-1.33301 -20 -2.5 -40 -3.5 -60s-1.5 -40 -1.5 -60s0.5 -40.167 1.5 -60.5s2.16699 -40.5 3.5 -60.5l-317 -173c16 -0.666992 31.833 -1 47.5 -1h47.5c41.333 0 82.333 0.5 123 1.5s81.667 0.833008 123 -0.5z" />
    <glyph glyph-name="braceleft" unicode="{" horiz-adv-x="396" 
d="M407 841l-7.99707 -103.003c-3.33301 0.666992 -6.5 1 -9.5 1h-9.5c-21.333 0 -38.833 -4.16699 -52.5 -12.5s-24.5 -19.333 -32.5 -33s-13.667 -29 -17 -46s-5 -34.5 -5 -52.5c0 -19.333 1.5 -38.166 4.5 -56.499s4.5 -36.833 4.5 -55.5
c0 -12.667 -3.16699 -24.167 -9.5 -34.5s-14.333 -19.5 -24 -27.5s-20.167 -14.833 -31.5 -20.5s-22 -10.5 -32 -14.5c10 -6 19.833 -13.333 29.5 -22s18.334 -18.167 26.001 -28.5s13.834 -21.5 18.501 -33.5s7 -24 7 -36s-1.33301 -23.667 -4 -35s-5.5 -22.5 -8.5 -33.5
s-5.83301 -22 -8.5 -33s-4 -21.833 -4 -32.5c0 -19.333 4.66699 -35.5 14 -48.5s21.166 -23.5 35.499 -31.5s30.166 -14 47.499 -18s34 -6.33301 50 -7l11 -116c-17.333 0.666992 -36 2.33398 -56 5.00098s-39.833 6.83398 -59.5 12.501s-38.334 13.167 -56.001 22.5
s-32.834 21.333 -45.501 36c-12 13.333 -19.5 28.833 -22.5 46.5s-4.5 35.834 -4.5 54.501c0 22.667 2.16699 44.834 6.5 66.501s6.5 43.5 6.5 65.5c0 8 -0.333008 15 -1 21s-3.66699 12 -9 18c-6 8 -13.833 14.667 -23.5 20s-19.834 9.66602 -30.501 12.999
s-21.5 5.83301 -32.5 7.5l-30.5 4.5v140c21.333 2.66699 42.833 8.16699 64.5 16.5s39.5 21.5 53.5 39.5c6.66699 8 11 16.167 13 24.5s3 17.833 3 28.5c0 19.333 -1.66699 38 -5 56s-5 36.333 -5 55c0 25.333 4.5 47 13.5 65s23.167 34.333 42.5 49
c26.667 20 56 35.167 88 45.5s64.667 16.166 98 17.499z" />
    <glyph glyph-name="bar" unicode="|" horiz-adv-x="224" 
d="M173 -23l-121.999 -3.99902c1.33301 68 2.83301 135.333 4.5 202s3.5 133.667 5.5 201c0.666992 17.333 1 34.166 1 50.499v50.5c0 93.333 -2 187 -6 281l107 -10c-2.66699 -68 -4.83398 -135.333 -6.50098 -202s-2.5 -133.667 -2.5 -201c0 -62 1.66699 -123.5 5 -184.5
s8 -122.167 14 -183.5z" />
    <glyph glyph-name="braceright" unicode="}" horiz-adv-x="397" 
d="M367 310c-15.333 -2 -31 -5.50391 -47 -10.5039s-30.5 -11.833 -43.5 -20.5s-23.5 -19.5 -31.5 -32.5s-12 -28.167 -12 -45.5c0 -19.333 2.33301 -38.666 7 -57.999s7 -38.666 7 -57.999c0 -24.667 -4.66699 -45.667 -14 -63s-23.666 -33.666 -42.999 -48.999
c-25.333 -20 -53.833 -35.333 -85.5 -46s-64.167 -17 -97.5 -19l6 103c2.66699 -0.666992 5.5 -1 8.5 -1h8.5c21.333 0 38.833 4 52.5 12s24.5 18.667 32.5 32s13.667 28.5 17 45.5s5 34.5 5 52.5c0 19.333 -1.83301 38.833 -5.5 58.5s-5.5 39.167 -5.5 58.5
c0 12 3.16699 23.167 9.5 33.5s14.166 19.5 23.499 27.5s19.5 15 30.5 21s21.5 11 31.5 15c-10 5.33301 -19.833 12.333 -29.5 21s-18.5 18.167 -26.5 28.5s-14.5 21.333 -19.5 33s-7.5 23.5 -7.5 35.5c0 12.667 1.16699 24.834 3.5 36.501s5 22.834 8 33.501l8.5 31.5
c2.66699 10.333 4 20.833 4 31.5c0 20 -4.66699 36.5 -14 49.5s-21.333 23.5 -36 31.5s-30.667 13.833 -48 17.5s-34.333 5.83398 -51 6.50098l-13 117c18 -0.666992 37 -2.16699 57 -4.5s39.833 -6.33301 59.5 -12s38.334 -13 56.001 -22s32.834 -20.5 45.501 -34.5
c13.333 -14.667 21.5 -31.334 24.5 -50.001s4.5 -37.667 4.5 -57c0 -21.333 -1.66699 -42 -5 -62s-5 -40.333 -5 -61c0 -8 0.166992 -15.333 0.5 -22s3.16602 -13 8.49902 -19c6 -8 13.833 -14.833 23.5 -20.5s20 -10.167 31 -13.5s22.167 -5.83301 33.5 -7.5
s21.666 -2.83398 30.999 -3.50098z" />
    <glyph glyph-name="asciitilde" unicode="~" horiz-adv-x="587" 
d="M566 329c-7.33301 -5.33301 -19.335 -13.499 -36.002 -24.499s-34.334 -22 -53.001 -33s-37 -20.667 -55 -29s-32 -12.5 -42 -12.5c-12.667 0 -26.5 4.33301 -41.5 13s-30.167 18.167 -45.5 28.5s-30.166 19.833 -44.499 28.5s-26.833 13 -37.5 13
c-9.33301 0 -19.666 -3.16699 -30.999 -9.5s-22.666 -14 -33.999 -23s-22 -18.167 -32 -27.5s-17.667 -17 -23 -23l-71 80c6 4 17.333 12 34 24s34.667 24.167 54 36.5s37.833 23.333 55.5 33s30.167 14.5 37.5 14.5c9.33301 0 21.833 -3.83301 37.5 -11.5
s32 -16.167 49 -25.5s33.5 -17.833 49.5 -25.5s29.333 -11.5 40 -11.5c8 0 17.5 2.5 28.5 7.5s22 10.833 33 17.5s21.333 13.667 31 21s17.5 13.666 23.5 18.999z" />
    <glyph glyph-name="uni00A0" unicode="&#xa0;" horiz-adv-x="412" 
 />
    <glyph glyph-name="exclamdown" unicode="&#xa1;" horiz-adv-x="325" 
d="M31 -197c0.666992 17.333 1.33496 36.334 2.00195 57.001s1.66699 41.667 3 63s3.16602 42.166 5.49902 62.499s5.16602 39.166 8.49902 56.499l30.5 148.5l31.5 147.5l109 10l26 -252c4.66699 -45.333 8 -90.666 10 -135.999l6 -137zM48.001 493.001
c0 11.333 3.66406 22.501 10.9971 33.501s16.333 20.667 27 29s22.334 15.166 35.001 20.499s24.334 8 35.001 8c10 0 20.5 -1.83301 31.5 -5.5s21 -8.83398 30 -15.501s16.333 -14.667 22 -24s8.5 -19.666 8.5 -30.999c0 -13.333 -3.83301 -25 -11.5 -35
s-17.167 -18.667 -28.5 -26s-23.666 -12.833 -36.999 -16.5s-25.333 -5.5 -36 -5.5c-18.667 0 -35.5 4.33301 -50.5 13s-26.167 21.667 -33.5 39c-2 4.66699 -3 10 -3 16z" />
    <glyph glyph-name="cent" unicode="&#xa2;" horiz-adv-x="570" 
d="M535 161c-11.333 -2.66699 -22.667 -4.33594 -34 -5.00293s-22.666 -1 -33.999 -1c-18 0 -36 1 -54 3s-35.667 4.33301 -53 7l5 -107l-133 3v100c-5.33301 0.666992 -16.833 2.83398 -34.5 6.50098l-56.5 12c-20 4.33301 -38.5 9.16602 -55.5 14.499
s-27.167 10.666 -30.5 15.999c-6 9.33301 -11.167 20.833 -15.5 34.5s-8 28 -11 43s-5.16699 29.667 -6.5 44s-2 26.833 -2 37.5c0 44 7 83.167 21 117.5s35.667 67.833 65 100.5c6.66699 7.33301 16.667 13.5 30 18.5s27.5 9.16699 42.5 12.5s29.667 5.83301 44 7.5
s26.166 2.83398 35.499 3.50098l12 67h117l3 -84l122 -6c1.33301 -11.333 2.83301 -23.166 4.5 -35.499s2.5 -24.166 2.5 -35.499c0 -10.667 -0.833008 -21.334 -2.5 -32.001s-3.16699 -21.334 -4.5 -32.001l-66.5 11c-23.667 4 -47.667 7.83301 -72 11.5
s-48.5 6.66699 -72.5 9s-46.667 3.5 -68 3.5c-0.666992 0 -4.83398 -0.166992 -12.501 -0.5s-12.5 -1.16602 -14.5 -2.49902c-5.33301 -3.33301 -9.66602 -10.333 -12.999 -21s-6 -22.167 -8 -34.5s-3.33301 -24.166 -4 -35.499s-1 -20 -1 -26
c0 -4 0.166992 -9.16699 0.5 -15.5s1 -12.666 2 -18.999s2.33301 -12.5 4 -18.5s4.16699 -10.667 7.5 -14c6.66699 -7.33301 16.5 -13 29.5 -17s27 -6.83301 42 -8.5s29.667 -2.66699 44 -3s26.166 -0.5 35.499 -0.5c30.667 0 61.334 1.83301 92.001 5.5s61 9.16699 91 16.5
c0 -25.333 1.16699 -50.5 3.5 -75.5s3.5 -50.167 3.5 -75.5z" />
    <glyph glyph-name="sterling" unicode="&#xa3;" horiz-adv-x="744" 
d="M714 -20c-59.333 4.66699 -118.502 8.50293 -177.502 11.5029s-118.167 4.5 -177.5 4.5c-47.333 0 -94.5 -0.833008 -141.5 -2.5s-94.167 -4.16699 -141.5 -7.5l-14 119c3.33301 -0.666992 6.5 -1.16699 9.5 -1.5s6.16699 -0.5 9.5 -0.5c12 0 24.833 2.83301 38.5 8.5
s25.167 13.167 34.5 22.5c4 4.66699 7.5 11.167 10.5 19.5s5.16699 17.166 6.5 26.499s2.33301 18.333 3 27s1 16 1 22c0 22.667 -2 45.667 -6 69l-102 -18l-17.5 67.5c-5.66699 22.333 -11.834 44.833 -18.501 67.5l119 12c-4 31.333 -7.16699 62.5 -9.5 93.5
s-3.5 62.167 -3.5 93.5c0 30 6 56.167 18 78.5s33 38.166 63 47.499c6 2 13 3.5 21 4.5s16.167 1.83301 24.5 2.5s16.5 1 24.5 1h21c18 0 43.667 -0.833008 77 -2.5s67.833 -4 103.5 -7s69.5 -6.83301 101.5 -11.5s56 -10 72 -16c10 -4 18 -13.167 24 -27.5
s10.833 -30.333 14.5 -48s6.16699 -35 7.5 -52s2 -29.833 2 -38.5v-15c-38 2.66699 -74.833 1.5 -110.5 -3.5l-108.5 -15.5l-4.5 30.5c-2.33301 15.667 -5.16602 32.167 -8.49902 49.5s-7.5 33.166 -12.5 47.499s-10.5 22.5 -16.5 24.5
c-7.33301 2 -14.166 3.33301 -20.499 4s-13.166 1 -20.499 1s-17.166 -0.5 -29.499 -1.5s-25.166 -2.66699 -38.499 -5s-25.833 -5.33301 -37.5 -9s-19.834 -7.83398 -24.501 -12.501c-1.33301 -1.33301 -2.33301 -4 -3 -8s-1.33398 -8.5 -2.00098 -13.5s-1 -9.66699 -1 -14
v-8.5c0 -28 2 -56.167 6 -84.5s8.33301 -56.5 13 -84.5l122 3l4 -113l-107 -3l2 -55c0.666992 -18.667 1 -37.667 1 -57c0 -14 -2.5 -28.667 -7.5 -44s-10.833 -28.666 -17.5 -39.999l102.5 12.5l103.5 12.5c13.333 2 27 3 41 3h41c42 0 84.667 -1 128 -3z" />
    <glyph glyph-name="currency" unicode="&#xa4;" horiz-adv-x="610" 
d="M590 200l-55.9971 -70.001c-20 18.667 -39 34.5 -57 47.5l-60 42.5c-4 -5.33301 -10 -10 -18 -14s-16.833 -7.33301 -26.5 -10s-19.334 -4.66699 -29.001 -6s-17.834 -2 -24.501 -2c-12 0 -24.5 1.33301 -37.5 4s-24.5 7.33398 -34.5 14.001l-53.5 -56.5
c-15.667 -17 -32.5 -37.167 -50.5 -60.5l-84 64l123 97c-10 11.333 -18.5 24.5 -25.5 39.5s-10.5 30.5 -10.5 46.5c0 11.333 1.33301 23 4 35s6 23.667 10 35c-22 19.333 -45.5 36.666 -70.5 51.999s-51.5 29.333 -79.5 42l66 73l69.5 -48.5c21 -15 45.833 -29.5 74.5 -43.5
c11.333 9.33301 25.5 17.5 42.5 24.5s32.833 10.5 47.5 10.5c13.333 0 27.666 -1.66699 42.999 -5s29 -7.66602 41 -12.999c21.333 18 42 36.5 62 55.5l61 56.5l58 -63l-57.5 -53l-57.5 -54c9.33301 -10.667 16.333 -23 21 -37s7 -28 7 -42
c0 -12.667 -0.833008 -25.167 -2.5 -37.5s-4.16699 -24.5 -7.5 -36.5c17.333 -17.333 35 -33 53 -47s37.667 -27.333 59 -40zM402.003 357.999c0 10 -2.33496 19.502 -7.00195 28.502s-10.667 16.667 -18 23s-15.666 11.333 -24.999 15s-18.666 5.5 -27.999 5.5
c-10 0 -20 -1.83301 -30 -5.5s-19 -8.66699 -27 -15s-14.5 -13.833 -19.5 -22.5s-7.5 -18.334 -7.5 -29.001c0 -10 2.33301 -19.833 7 -29.5s10.667 -18.334 18 -26.001s16 -13.667 26 -18s20 -6.5 30 -6.5s20 2.16699 30 6.5s18.667 10.166 26 17.499
s13.333 15.833 18 25.5s7 19.834 7 30.501z" />
    <glyph glyph-name="yen" unicode="&#xa5;" horiz-adv-x="797" 
d="M848 688l-101.496 -77.5029c-35.667 -28.333 -67.167 -57.166 -94.5 -86.499l-63.5 -69.5l-62.5 -69.5l-3 -57l142 -6l3 -75l-142 -3l3 -71h97l-3 -55l-94 -6l7 -107c-38.667 0 -77.334 -0.166992 -116.001 -0.5s-77.334 -1.16602 -116.001 -2.49902l3 96l-132 -3v65
l126 6v78l-136 3l-3 81l142 -3v54l-60.5 54l-62.5 52l-40 35.5l-40 36.5l-71.5 68.5l-70.5 69.5l96 4c32 1.33301 64 2 96 2c4 0 8.5 -0.166992 13.5 -0.5s10.167 -0.5 15.5 -0.5c6 -0.666992 12 -1 18 -1l52 -51l39.5 -38.5c13 -12.333 21.833 -20.166 26.5 -23.499
l50.5 -41l50.5 -40l51 41.5c18 15 35.667 30.667 53 47s33.666 33 48.999 50s28.666 34.167 39.999 51.5z" />
    <glyph glyph-name="brokenbar" unicode="&#xa6;" horiz-adv-x="266" 
d="M195 441l-106 9c-2 50 -3.83301 100.167 -5.5 150.5s-3.16699 100.833 -4.5 151.5l116 2c0 -35.333 -0.333008 -70.333 -1 -105s-1 -69.334 -1 -104.001v-52c0 -17.333 0.666992 -34.666 2 -51.999zM185 278c-3.33301 -52 -5.16602 -104 -5.49902 -156
s-1.83301 -104 -4.5 -156l-103 5c3.33301 52 5.66602 103.167 6.99902 153.5s3 101.5 5 153.5h101z" />
    <glyph glyph-name="section" unicode="&#xa7;" horiz-adv-x="702" 
d="M651 69c0 -8.66699 -1.00781 -18.9932 -3.00781 -30.9932s-4.66699 -24.167 -8 -36.5s-7.66602 -23.833 -12.999 -34.5s-11.333 -19 -18 -25c-6.66699 -6.66699 -20 -12.334 -40 -17.001s-41.667 -8.5 -65 -11.5s-45.666 -5.16699 -66.999 -6.5s-36.666 -2 -45.999 -2
l-68 -1c-36 -0.666992 -72.167 -0.166992 -108.5 1.5s-72.833 4.16699 -109.5 7.5l-8 140c50 -2 100.333 -3 151 -3h55c4 0 11.333 0.333008 22 1s22.667 1.66699 36 3s27.333 3 42 5s28.334 4.16699 41.001 6.5s23.167 5 31.5 8s13.166 6.5 14.499 10.5
c2.66699 7.33301 4 16.333 4 27c0 4.66699 -0.333008 8.66699 -1 12s-3 6.66602 -7 9.99902c-0.666992 0.666992 -6.66699 1.83398 -18 3.50098s-25.333 3.5 -42 5.5l-55 6.5c-20 2.33301 -39 4.66602 -57 6.99902l-47.5 6c-13.667 1.66699 -22.5 2.83398 -26.5 3.50098
c-9.33301 1.33301 -22.5 3.83301 -39.5 7.5s-34.333 8.16699 -52 13.5s-34 11.5 -49 18.5s-24.833 14.5 -29.5 22.5c-3.33301 6 -6.33301 15.667 -9 29s-4.66699 27.666 -6 42.999s-2.33301 30 -3 44s-1 24.667 -1 32s0.166992 14.666 0.5 21.999s1.5 14.666 3.5 21.999
c1.33301 4 6.16602 8.66699 14.499 14s18.666 11.166 30.999 17.499s25.833 12.666 40.5 18.999l41.5 17.5c13 5.33301 24.5 9.83301 34.5 13.5s16.667 6.16699 20 7.5c-6 1.33301 -15.667 4 -29 8s-27.166 8.5 -41.499 13.5s-27.833 10.167 -40.5 15.5
s-21.334 10.333 -26.001 15c-6 6.66699 -11.167 15.667 -15.5 27s-7.66602 23.5 -9.99902 36.5s-4.16602 25.667 -5.49902 38s-2 22.833 -2 31.5c0 12.667 1.16699 26.5 3.5 41.5s7.83301 27.167 16.5 36.5c10.667 10.667 30.167 19.834 58.5 27.501s59.333 13.667 93 18
s66.334 7.5 98.001 9.5s55.834 3 72.501 3c36 0 72 -1 108 -3s72 -4.66699 108 -8l-21 -158c-36 3.33301 -71.833 6.33301 -107.5 9s-71.5 4 -107.5 4c-6 0 -18.333 -0.333008 -37 -1s-38 -2.16699 -58 -4.5s-37.833 -5.83301 -53.5 -10.5s-23.5 -11.334 -23.5 -20.001
c0 -6 4 -10.833 12 -14.5s14.333 -6.16699 19 -7.5c12 -3.33301 27.333 -6.33301 46 -9s38.834 -5.33398 60.501 -8.00098l66 -8.5c22.333 -3 43.5 -6.33301 63.5 -10s37.833 -8.16699 53.5 -13.5s27.167 -11.333 34.5 -18c6.66699 -6.66699 13.834 -17.667 21.501 -33
s14.667 -31.666 21 -48.999s11.5 -34.333 15.5 -51s6 -30 6 -40c0 -2.66699 -0.166992 -5 -0.5 -7s-0.5 -4.33301 -0.5 -7c-2 -8 -8.83301 -17.667 -20.5 -29s-25 -22.5 -40 -33.5s-29.667 -21 -44 -30s-24.5 -15.167 -30.5 -18.5c6.66699 -1.33301 17.334 -4 32.001 -8
s29.5 -9 44.5 -15s28.333 -13 40 -21s18.5 -16.667 20.5 -26c3.33301 -18.667 6.5 -37.334 9.5 -56.001s4.5 -37 4.5 -55zM445.992 375.007c0 14 -3.66699 25.833 -11 35.5s-16.5 17.834 -27.5 24.501s-22.833 11.834 -35.5 15.501s-24.667 6.16699 -36 7.5l-24 -10
l-28.5 -12.5c-9.66699 -4.33301 -19 -8.83301 -28 -13.5s-16.5 -9 -22.5 -13c-6.66699 -5.33301 -11 -9.66602 -13 -12.999s-3 -9.33301 -3 -18c0 -9.33301 0.333008 -18.333 1 -27s4 -16.334 10 -23.001c8 -8 18.333 -14.833 31 -20.5s26.167 -10.334 40.5 -14.001
s28.5 -6.33398 42.5 -8.00098s26 -2.83398 36 -3.50098c6.66699 4 14 9.33301 22 16s15.5 14.334 22.5 23.001s12.667 17.5 17 26.5s6.5 18.167 6.5 27.5z" />
    <glyph glyph-name="dieresis" unicode="&#xa8;" 
d="M691 724c0 -12.667 -2.49805 -24.5 -7.49805 -35.5s-11.833 -20.667 -20.5 -29s-18.5 -14.833 -29.5 -19.5s-22.833 -7 -35.5 -7c-11.333 0 -22.333 2 -33 6s-20.334 9.5 -29.001 16.5s-15.667 15.5 -21 25.5s-8 20.667 -8 32c0 14 2.5 27.167 7.5 39.5s12 23.333 21 33
s19.667 17.167 32 22.5s25.833 8 40.5 8c12 0 23.167 -2.66699 33.5 -8s19.166 -12.333 26.499 -21s13 -18.5 17 -29.5s6 -22.167 6 -33.5zM450.002 726c0 -25.333 -9.16602 -46.6689 -27.499 -64.002s-40.166 -26 -65.499 -26c-10.667 0 -21.334 2 -32.001 6
s-20.334 9.5 -29.001 16.5s-15.667 15.333 -21 25s-8 20.167 -8 31.5c0 14 2.66699 27.333 8 40s12.5 23.834 21.5 33.501s19.667 17.167 32 22.5s25.5 8 39.5 8c12 0 23 -2.66699 33 -8s18.667 -12.333 26 -21s13 -18.667 17 -30s6 -22.666 6 -33.999z" />
    <glyph glyph-name="copyright" unicode="&#xa9;" horiz-adv-x="803" 
d="M772 408l-0.00195312 -20.0049c0 -6 -0.333008 -12 -1 -18c-1.33301 -14 -2.5 -32.167 -3.5 -54.5s-3.16699 -44.833 -6.5 -67.5s-8.66602 -43.5 -15.999 -62.5s-18 -32.167 -32 -39.5s-35.833 -14.166 -65.5 -20.499s-61 -11.666 -94 -15.999
s-64.667 -7.83301 -95 -10.5s-53.166 -4 -68.499 -4c-11.333 0 -26.166 0.5 -44.499 1.5s-38.333 2.66699 -60 5s-43.834 5.16602 -66.501 8.49902s-43.667 7.33301 -63 12s-36.166 9.83398 -50.499 15.501s-23.833 11.834 -28.5 18.501
c-7.33301 10 -13.833 27.5 -19.5 52.5s-10.5 51.667 -14.5 80s-7 55.833 -9 82.5s-3 46.667 -3 60c0 14 1.5 32.833 4.5 56.5s7.16699 47.667 12.5 72s12 47.333 20 69s16.667 38.167 26 49.5c7.33301 8 18.333 15.833 33 23.5s31.167 14.5 49.5 20.5
s38.166 11.5 59.499 16.5s42.166 9.16699 62.499 12.5s39.5 5.83301 57.5 7.5s33.333 2.5 46 2.5h20c13.333 -0.666992 30 -2.66699 50 -6s41.5 -7.66602 64.5 -12.999s46.333 -11.666 70 -18.999s45.334 -15.333 65.001 -24s36.5 -18 50.5 -28s23 -20.333 27 -31
c4 -11.333 7.5 -27.5 10.5 -48.5s5.33301 -43 7 -66s3 -45.167 4 -66.5s1.5 -38.333 1.5 -51zM686.998 318.995c0 14 -0.333008 35.1641 -1 63.4971s-1.66699 57.5 -3 87.5s-3.66602 57.667 -6.99902 83s-7.33301 41.666 -12 48.999c-4 6 -12 11.833 -24 17.5
s-25.833 11 -41.5 16s-32.667 9.66699 -51 14s-35.833 8 -52.5 11s-32 5.5 -46 7.5s-24.667 3 -32 3c-6.66699 0 -13 0.166992 -19 0.5s-11.667 0.5 -17 0.5c-10 0 -25.333 -0.666992 -46 -2s-42 -3.5 -64 -6.5s-42.5 -7 -61.5 -12s-32.167 -10.833 -39.5 -17.5
c-7.33301 -7.33301 -13.833 -21 -19.5 -41s-10.5 -41.833 -14.5 -65.5s-7.33301 -46.334 -10 -68.001s-4.33398 -37.5 -5.00098 -47.5c-0.666992 -6.66699 -1.16699 -13 -1.5 -19s-0.5 -12 -0.5 -18c0 -10 0.666992 -23.167 2 -39.5s3.5 -33.166 6.5 -50.499
s7 -33.5 12 -48.5s11.167 -26.167 18.5 -33.5s22 -13.666 44 -18.999s46.333 -9.66602 73 -12.999s52.667 -5.66602 78 -6.99902s45 -2 59 -2s33.5 1.66699 58.5 5s50.667 8 77 14s51 13.333 74 22s39.5 18.334 49.5 29.001c4 4.66699 7 10.667 9 18s3.5 15.333 4.5 24
s1.66699 17 2 25s0.5 14.667 0.5 20zM573.998 376.992c-0.666992 -4.66699 -1.82812 -13.335 -3.49512 -26.002s-4 -26 -7 -40s-6.33301 -26.833 -10 -38.5s-7.5 -18.834 -11.5 -21.501c-6.66699 -4 -16.5 -7.66699 -29.5 -11s-26.833 -6.16602 -41.5 -8.49902
s-28.834 -4.16602 -42.501 -5.49902s-24.5 -2 -32.5 -2c-9.33301 0 -21 1 -35 3s-28 4.83301 -42 8.5s-27.167 8 -39.5 13s-21.833 10.5 -28.5 16.5c-4.66699 4 -8.5 12.5 -11.5 25.5s-5.33301 27.167 -7 42.5s-2.83398 30.166 -3.50098 44.499s-1 24.5 -1 30.5
c0 9.33301 0.5 22.333 1.5 39s3.33301 33.5 7 50.5s8.66699 32.333 15 46s15.166 22.167 26.499 25.5c10.667 3.33301 22.667 6.66602 36 9.99902s26.833 6 40.5 8s27.167 3.33301 40.5 4s26 0.333984 38 -0.999023c6 -0.666992 15.5 -1.66699 28.5 -3
s26.167 -3.16602 39.5 -5.49902s25.833 -5.16602 37.5 -8.49902s19.167 -7.66602 22.5 -12.999c2.66699 -3.33301 4.66699 -8.66602 6 -15.999s2.5 -15 3.5 -23s1.66699 -16 2 -24s0.5 -14.333 0.5 -19c0 -2.66699 -0.166992 -7.83398 -0.5 -15.501s-1.5 -12.167 -3.5 -13.5
h-4c-20.667 0 -41.334 -0.5 -62.001 -1.5s-41.334 -2.16699 -62.001 -3.5v12c0 2 -0.166992 5.66699 -0.5 11s-0.833008 11 -1.5 17s-1.66699 11.5 -3 16.5s-3 8.16699 -5 9.5c-5.33301 3.33301 -14 5.5 -26 6.5s-21.333 1.5 -28 1.5h-11
c-4.66699 0 -9.33398 -0.333008 -14.001 -1s-9 -1.83398 -13 -3.50098s-7 -3.83398 -9 -6.50098c-2 -3.33301 -4 -11.166 -6 -23.499s-3.5 -25.5 -4.5 -39.5s-1.83301 -27.333 -2.5 -40s-1 -21.334 -1 -26.001c0 -3.33301 0.166992 -8.16602 0.5 -14.499
s0.833008 -13 1.5 -20s1.66699 -13.5 3 -19.5s3.33301 -10.333 6 -13c5.33301 -5.33301 13.5 -8.5 24.5 -9.5s19.833 -1.5 26.5 -1.5c3.33301 0 8.5 0.166992 15.5 0.5s14.167 0.833008 21.5 1.5s14.333 1.5 21 2.5s11.334 2.16699 14.001 3.5
c5.33301 3.33301 9 9.33301 11 18s3 15.667 3 21c0 4.66699 -0.333008 9.5 -1 14.5s-1.66699 9.5 -3 13.5z" />
    <glyph glyph-name="ordfeminine" unicode="&#xaa;" horiz-adv-x="394" 
d="M364 577c0 -26.667 -0.830078 -53 -2.49707 -79s-3.16699 -52 -4.5 -78l-86 -16l-19 61c-2 -6.66699 -5.5 -16.5 -10.5 -29.5s-10.167 -22.167 -15.5 -27.5c-5.33301 -6 -12.833 -11 -22.5 -15s-20.167 -7.16699 -31.5 -9.5s-22.5 -4.16602 -33.5 -5.49902
s-19.833 -2 -26.5 -2c-32 0 -55.333 5.66699 -70 17s-22 34 -22 68c0 6.66699 0.666992 15.5 2 26.5s3.33301 22.167 6 33.5s6 21.833 10 31.5s8.66699 17.167 14 22.5c6 6 16 11.5 30 16.5s29 9 45 12s31.667 5.33301 47 7s27.666 2.5 36.999 2.5
c5.33301 0 10.333 -1.83301 15 -5.5s8.66699 -8 12 -13s6.16602 -10.333 8.49902 -16s4.16602 -10.834 5.49902 -15.501c1.33301 6 2.33301 12.167 3 18.5s1 12.5 1 18.5c0 6.66699 -0.666992 15 -2 25s-4 18 -8 24c-1.33301 2 -4.16602 3.66699 -8.49902 5
s-8.83301 2.33301 -13.5 3s-9.16699 1.16699 -13.5 1.5s-7.5 0.5 -9.5 0.5c-21.333 0 -42.666 -2 -63.999 -6s-42 -8.66699 -62 -14l-10 101c19.333 2.66699 38.666 4.83398 57.999 6.50098s39 2.5 59 2.5c8.66699 0 21 -0.5 37 -1.5s32.167 -2.83301 48.5 -5.5
s31.833 -6.33398 46.5 -11.001s25.667 -10.667 33 -18c4 -4 7 -12.5 9 -25.5s3.66699 -26.833 5 -41.5s2.16602 -28.667 2.49902 -42s0.5 -22.333 0.5 -27zM196.003 494c0 7.33301 -1.50488 17.667 -4.50488 31s-7.16699 22.666 -12.5 27.999
c-2 2.66699 -4.66699 4.33398 -8 5.00098s-6.66602 1 -9.99902 1c-9.33301 0 -20.666 -2.5 -33.999 -7.5s-22.666 -11.833 -27.999 -20.5c-1.33301 -3.33301 -2.16602 -7 -2.49902 -11s-0.5 -7.66699 -0.5 -11s0.333008 -8 1 -14s1.83398 -12.167 3.50098 -18.5
s3.66699 -12.166 6 -17.499s5.5 -8.66602 9.5 -9.99902c4 -2 8.33301 -3 13 -3c8.66699 0 19.167 2 31.5 6s21.5 9.33301 27.5 16c3.33301 3.33301 5.5 7.16602 6.5 11.499s1.5 9.16602 1.5 14.499z" />
    <glyph glyph-name="guillemotleft" unicode="&#xab;" horiz-adv-x="495" 
d="M464 43l-54 -62l-204 194l250 183l-4 -112l-134 -79zM257 44l-53 -62l-204 195l249 182l-4 -111l-133 -79z" />
    <glyph glyph-name="logicalnot" unicode="&#xac;" horiz-adv-x="611" 
d="M570 185l-106 -4c-3.33301 20 -6.33301 39.833 -9 59.5s-6.66699 39.5 -12 59.5c-68.667 0 -136.5 -1.83301 -203.5 -5.5s-134.833 -8.5 -203.5 -14.5c0.666992 8 1.16699 16.167 1.5 24.5s0.5 16.833 0.5 25.5c0 10 -0.666992 20.167 -2 30.5s-3 20.5 -5 30.5
c18 -0.666992 35.667 -1 53 -1h53c61.333 0 122.333 1.16699 183 3.5s122 3.5 184 3.5h46l10 -105.5z" />
    <glyph glyph-name="sfthyphen" unicode="&#xad;" horiz-adv-x="446" 
d="M416 318h-385l4 81c60.667 2 122.667 3 186 3h187z" />
    <glyph glyph-name="registered" unicode="&#xae;" horiz-adv-x="803" 
d="M772 506l-0.000976562 -83.9971c0 -14.667 -1.33301 -33.667 -4 -57s-6.66699 -47.333 -12 -72s-11.833 -47.834 -19.5 -69.501s-16.167 -38.167 -25.5 -49.5c-11.333 -12.667 -30.166 -24.167 -56.499 -34.5s-55.166 -19.333 -86.499 -27s-62.5 -13.5 -93.5 -17.5
s-56.167 -6 -75.5 -6c-13.333 0 -30.5 1.33301 -51.5 4s-43.5 6.5 -67.5 11.5s-48.5 11.167 -73.5 18.5s-48 15.333 -69 24s-39 18.167 -54 28.5s-24.5 21.166 -28.5 32.499s-7.5 27.666 -10.5 48.999s-5.5 43.666 -7.5 66.999s-3.5 46 -4.5 68s-1.5 39.667 -1.5 53v17
c0 5.33301 0.333008 10.666 1 15.999l2.5 54.5c1 22.333 3.16699 44.833 6.5 67.5s8.66602 43.334 15.999 62.001s18 31.667 32 39c6.66699 3.33301 14.5 6.16602 23.5 8.49902l24.5 6.5c44.667 11.333 90.667 20.666 138 27.999s94 11 140 11
c8.66699 0 22.5 -0.666992 41.5 -2s40.167 -3.33301 63.5 -6s47.666 -5.83398 72.999 -9.50098s49 -8 71 -13s41 -10.667 57 -17s26.667 -13.166 32 -20.499c4.66699 -7.33301 8.33398 -19.166 11.001 -35.499s4.66699 -33.666 6 -51.999s2 -36.166 2 -53.499v-40z
M689.999 561.003c0 6 -0.168945 12.6699 -0.501953 20.0029s-1 14.666 -2 21.999s-2.66699 14.333 -5 21s-5.5 12 -9.5 16c-8 8 -23.5 14.833 -46.5 20.5s-48 10.167 -75 13.5s-53.167 6 -78.5 8s-44.333 3.66699 -57 5c-4 0.666992 -8.16699 1 -12.5 1h-12.5
c-14 0 -33.667 -1.66699 -59 -5s-51.333 -8.16602 -78 -14.499s-51.5 -14 -74.5 -23s-39.167 -18.833 -48.5 -29.5c-4 -4.66699 -7 -10.5 -9 -17.5s-3.5 -14.5 -4.5 -22.5s-1.5 -15.833 -1.5 -23.5v-20.5c0 -8.66699 0.166992 -20.834 0.5 -36.501
s0.833008 -33.334 1.5 -53.001s1.5 -40 2.5 -61s2.5 -40.667 4.5 -59s4.16699 -34.333 6.5 -48s5.5 -23.167 9.5 -28.5c4.66699 -6.66699 13.334 -12.834 26.001 -18.501s27.667 -11 45 -16s35.833 -9.5 55.5 -13.5s39.167 -7.33301 58.5 -10
s37.166 -4.83398 53.499 -6.50098s29.5 -2.5 39.5 -2.5s25.5 0.5 46.5 1.5s42.833 3 65.5 6s43.834 7 63.501 12s33.167 11.167 40.5 18.5c6.66699 6.66699 12.834 20.334 18.501 41.001s10.5 42.667 14.5 66s7.16699 46 9.5 68s3.83301 38 4.5 48
c1.33301 20 3 40.167 5 60.5s3 40.5 3 60.5zM583.997 271.006l-109.999 -10.9971c-8.66699 20.667 -18 41 -28 61l-30 60c-20.667 -3.33301 -36.334 -5.66602 -47.001 -6.99902l-24 -3l-10 -1c0.666992 -4.66699 1 -9 1 -13v-11.5c0 -4.33301 0.333008 -7.83301 1 -10.5
l4 -85l-104 2c0.666992 21.333 1.16699 42.333 1.5 63s0.5 41.667 0.5 63c0 14 -0.333008 27.833 -1 41.5s-1 27.167 -1 40.5c-0.666992 23.333 -2.83398 46.166 -6.50098 68.499s-6.16699 45.166 -7.5 68.499c34 4 68.167 7.5 102.5 10.5s69.166 4.5 104.499 4.5
c4 0 10.5 -0.166992 19.5 -0.5s18.5 -0.833008 28.5 -1.5s19.5 -1.66699 28.5 -3s15.167 -3 18.5 -5c8 -4.66699 14.833 -11.834 20.5 -21.501s10.334 -20.334 14.001 -32.001s6.33398 -23.5 8.00098 -35.5s2.5 -22.333 2.5 -31c0 -25.333 -7.5 -44.5 -22.5 -57.5
s-34.5 -21.167 -58.5 -24.5l47.5 -65zM432.998 472.009c0 7.33301 -1.16602 17.167 -3.49902 29.5s-5.83301 21.833 -10.5 28.5c-4 6 -11.833 9.5 -23.5 10.5s-20.5 1.5 -26.5 1.5c-9.33301 0 -18.833 -0.666992 -28.5 -2s-19.167 -2 -28.5 -2
c-0.666992 -0.666992 -1 -1.66699 -1 -3c0 -15.333 1.16699 -30.5 3.5 -45.5s5.16602 -29.5 8.49902 -43.5h19c10.667 0 22.334 0.333008 35.001 1s24.167 1.5 34.5 2.5s16.166 2.5 17.499 4.5c2 2.66699 3.16699 5.5 3.5 8.5s0.5 6.16699 0.5 9.5z" />
    <glyph glyph-name="macron" unicode="&#xaf;" 
d="M671 718h-385l4 81c62 2 124.333 3 187 3h186z" />
    <glyph glyph-name="degree" unicode="&#xb0;" horiz-adv-x="324" 
d="M308 620c0 -19.333 -4.33203 -36.1631 -12.999 -50.4961s-20 -26.5 -34 -36.5s-29.667 -17.5 -47 -22.5s-34.333 -7.5 -51 -7.5c-13.333 0 -28.5 2.16699 -45.5 6.5s-33 10.666 -48 18.999s-27.833 18.666 -38.5 30.999s-16 26.166 -16 41.499
c0 3.33301 0.333008 5.66602 1 6.99902c3.33301 18 10 34.167 20 48.5s22.167 26.5 36.5 36.5s30 17.667 47 23s34.5 8 52.5 8c15.333 0 31 -2.16699 47 -6.5s30.667 -10.833 44 -19.5s24.166 -19.5 32.499 -32.5s12.5 -28.167 12.5 -45.5zM240.001 606.003
c0 14 -0.833008 25.332 -2.5 33.999s-5 15.334 -10 20.001s-11.667 7.83398 -20 9.50098s-19.5 2.5 -33.5 2.5c-3.33301 0 -7.66602 -0.166992 -12.999 -0.5s-10.833 -0.833008 -16.5 -1.5s-11 -1.5 -16 -2.5s-8.83301 -2.16699 -11.5 -3.5c-3.33301 -2 -6 -5.66699 -8 -11
s-3.5 -11.333 -4.5 -18s-1.83301 -13 -2.5 -19s-1 -10.667 -1 -14c0 -20 3.33301 -32.333 10 -37s19.667 -7 39 -7c3.33301 0 9 0.166992 17 0.5s16.167 1 24.5 2s16.166 2.33301 23.499 4s12.333 3.5 15 5.5c5.33301 4 8.33301 9.66699 9 17s1 13.666 1 18.999z" />
    <glyph glyph-name="plusminus" unicode="&#xb1;" horiz-adv-x="542" 
d="M511 414l-3.00098 -73.001c-32 -3.33301 -63.167 -5.66602 -93.5 -6.99902s-61.166 -3 -92.499 -5c0 -35.333 0.5 -70.5 1.5 -105.5s2.16699 -70.167 3.5 -105.5l-96 -10v83c0 23.333 -0.166992 47.5 -0.5 72.5s-1.16602 46.167 -2.49902 63.5h-191l-6 77
c32 0 64.167 0.666992 96.5 2l96.5 4l-4 191l86 1c2 -32 4.33301 -63.333 7 -94s5.66699 -62 9 -94l46.5 2c15.667 0.666992 31.167 1 46.5 1s31.166 -0.333008 47.499 -1zM510.999 -30.001l-480 -0.000976562l4 81c78 2.66699 156 3.83398 234 3.50098
s156.333 -0.5 235 -0.5z" />
    <glyph glyph-name="twosuperior" unicode="&#xb2;" horiz-adv-x="561" 
d="M520 477c-1.33301 -19.333 -2.1709 -38.4902 -2.50391 -57.4902s-1.16602 -38.167 -2.49902 -57.5l-424 -9l-9.5 73.5c-3 24.333 -6.16699 48.5 -9.5 72.5c18.667 4 39.334 9 62.001 15s45.334 12.833 68.001 20.5s44.667 16.167 66 25.5s40.333 19.666 57 30.999
c5.33301 3.33301 11 7.5 17 12.5s9 11.5 9 19.5c0 7.33301 -2.66699 14.833 -8 22.5s-11.666 13.167 -18.999 16.5c-4.66699 1.33301 -12.334 2.16602 -23.001 2.49902s-18.334 0.5 -23.001 0.5h-19.5c-9 0 -18.333 -0.166992 -28 -0.5s-18.834 -1.33301 -27.501 -3
s-14.667 -4.16699 -18 -7.5c-2 -2 -3.33301 -5.16699 -4 -9.5s-1 -7.83301 -1 -10.5v-8c0 -2.66699 0.666992 -5.66699 2 -9l-126 -10c-1.33301 7.33301 -2.5 14.5 -3.5 21.5s-1.5 14.167 -1.5 21.5c0 10.667 2.16699 23.667 6.5 39s12.5 25.333 24.5 30
c10 4 25.667 7.16699 47 9.5s44 4.16602 68 5.49902s47 2.16602 69 2.49902s38.667 0.5 50 0.5c20 0 40.5 -0.166992 61.5 -0.5s40 -3.33301 57 -9s31 -15.334 42 -29.001s16.5 -33.834 16.5 -60.501c0 -7.33301 -0.666992 -16.5 -2 -27.5s-4.66602 -19.167 -9.99902 -24.5
c-3.33301 -4.66699 -9.83301 -9.83398 -19.5 -15.501s-20.167 -11.334 -31.5 -17.001s-22.166 -10.834 -32.499 -15.501s-18.166 -8 -23.499 -10l-84 -28.5c-27.333 -9.66699 -55 -18.834 -83 -27.501l156.5 2c52.333 0.666992 104.5 1.66699 156.5 3z" />
    <glyph glyph-name="threesuperior" unicode="&#xb3;" horiz-adv-x="556" 
d="M536 478c0 -11.333 -2.16406 -24.333 -6.49707 -39s-11.166 -25.667 -20.499 -33s-24.166 -13.5 -44.499 -18.5s-42.5 -9 -66.5 -12s-47.833 -5.16699 -71.5 -6.5s-42.834 -2.33301 -57.501 -3c-21.333 -1.33301 -42.833 -2 -64.5 -2h-64.5h-42.5
c-14.333 0 -28.833 0.333008 -43.5 1v68c0 16 1 31.667 3 47h73h19.5h39.5c15.333 0 31.666 0.166992 48.999 0.5s33.5 0.666016 48.5 0.999023s27.667 0.833008 38 1.5s15.833 1.33398 16.5 2.00098c2 1.33301 3.5 2.5 4.5 3.5s1.5 3.16699 1.5 6.5c0 5.33301 -2 11 -6 17
s-8 10.667 -12 14c-1.33301 1.33301 -7 2.33301 -17 3s-22.167 1.33398 -36.5 2.00098s-29.833 1.33398 -46.5 2.00098s-32.334 1.16699 -47.001 1.5s-27.167 0.5 -37.5 0.5h-18.5c-0.666992 3.33301 -1.16699 6.5 -1.5 9.5s-0.5 6.16699 -0.5 9.5v21l209 63
c-46 0 -92.333 0.5 -139 1.5s-93.334 1.5 -140.001 1.5c0.666992 7.33301 1.16699 15 1.5 23s0.5 16 0.5 24c0 12.667 -1.66699 26.334 -5 41.001c60 2 119.5 4.16699 178.5 6.5s118.5 3.5 178.5 3.5h71c0 -10.667 0.166992 -21.334 0.5 -32.001s0.5 -21.334 0.5 -32.001
c0 -20.667 -1 -41 -3 -61l-72 -21.5c-24 -7 -48 -14.5 -72 -22.5c6 -0.666992 17.333 -2 34 -4s34.5 -4.33301 53.5 -7s36.667 -5.5 53 -8.5s27.166 -5.5 32.499 -7.5c14 -6.66699 22.5 -15.834 25.5 -27.501s4.5 -24.167 4.5 -37.5z" />
    <glyph glyph-name="acute" unicode="&#xb4;" 
d="M594 764l-47.501 -38.5c-15 -11.667 -30.167 -22.5 -45.5 -32.5s-31.166 -19.667 -47.499 -29l-53.5 -30l-37 56l34.5 36c11 12 21.833 24.667 32.5 38c14 18 29 35 45 51l48 48z" />
    <glyph glyph-name="mu" unicode="&#xb5;" horiz-adv-x="588" 
d="M552 36l-95.998 -3.99609l-10 83c-5.33301 -14 -12.5 -27.833 -21.5 -41.5s-19.667 -25.834 -32 -36.501s-25.833 -19.334 -40.5 -26.001s-30 -10 -46 -10c-12.667 0 -25.5 1.5 -38.5 4.5s-25.5 7.5 -37.5 13.5s-22.833 13.333 -32.5 22s-17.5 18.667 -23.5 30l5 -229
h-114c-4 54 -8.16699 107.5 -12.5 160.5s-9.16602 106.5 -14.499 160.5c-3.33301 26.667 -5.33301 53.167 -6 79.5s-1 53.166 -1 80.499c0 29.333 1 59.666 3 90.999l153 -4c0 -10 0.833008 -23.5 2.5 -40.5s4.16699 -35.333 7.5 -55s7.66602 -39.5 12.999 -59.5
s12 -38.167 20 -54.5s17.667 -29.666 29 -39.999s24.666 -15.5 39.999 -15.5h3c19.333 2.66699 35.166 13.167 47.499 31.5s21.833 39.166 28.5 62.499s11.167 47 13.5 71s3.5 43.333 3.5 58c0 6.66699 -0.166992 13.5 -0.5 20.5s-0.5 14.167 -0.5 21.5l150 4
c2 -63.333 3 -126.333 3 -189s1.66699 -125.667 5 -189z" />
    <glyph glyph-name="paragraph" unicode="&#xb6;" horiz-adv-x="929" 
d="M878 738l-16.0039 -193.001c-5.33301 -64 -9.66602 -128.333 -12.999 -193l-10 -174c-3.33301 -58 -7 -116.333 -11 -175l-152 -8c0 60.667 0.166992 120.834 0.5 180.501s-0.166992 119.834 -1.5 180.501c-1.33301 37.333 -2.83301 74.5 -4.5 111.5
s-3.83398 74.167 -6.50098 111.5l-49 2l-4 -96.5l-4 -96.5c-3.33301 -62.667 -5.16602 -124.667 -5.49902 -186s-0.833008 -123.333 -1.5 -186c-13.333 0 -26.666 -0.166992 -39.999 -0.5s-26.666 -1.16602 -39.999 -2.49902c-20.667 -1.33301 -41 -3.33301 -61 -6
s-40.333 -4.66699 -61 -6l-6 207h-32.5h-54c-20.333 0 -41.666 0.5 -63.999 1.5s-43.333 2.16699 -63 3.5s-36.667 3.33301 -51 6s-23.5 6 -27.5 10c-10 10 -18.167 24 -24.5 42s-11.333 37.5 -15 58.5s-6.16699 41.833 -7.5 62.5s-2 38 -2 52
c0 8.66699 0.5 22.334 1.5 41.001s2.66699 38.167 5 58.5s5.5 39.166 9.5 56.499s8.66699 29.666 14 36.999c8 10 22 19.667 42 29s41.833 17.666 65.5 24.999s46.5 13.333 68.5 18s39 7.66699 51 9c94 8 189 12.333 285 13s191 3 285 7zM439.996 586.999
c-16.667 2 -32.999 2.66602 -48.999 1.99902c-13.333 -0.666992 -27 -2.16699 -41 -4.5s-25.333 -6.83301 -34 -13.5c-5.33301 -4 -9.66602 -10 -12.999 -18s-5.83301 -16.5 -7.5 -25.5s-2.83398 -18.167 -3.50098 -27.5s-1 -17 -1 -23
c-0.666992 -16.667 0.166016 -32.667 2.49902 -48s9.5 -28.666 21.5 -39.999c7.33301 -6.66699 17.333 -11 30 -13s25.667 -3 39 -3c15.333 0 31.333 0.666992 48 2c0 11.333 0.333008 23 1 35c0.666992 10 1.16699 20.5 1.5 31.5s0.5 20.5 0.5 28.5
c0 9.33301 0.166992 20.833 0.5 34.5s0.833008 26.5 1.5 38.5c0.666992 14 1.66699 28.667 3 44z" />
    <glyph glyph-name="periodcentered" unicode="&#xb7;" horiz-adv-x="229" 
d="M199 354l0.00195312 -13.0049c0 -5.33301 -0.333008 -10.666 -1 -15.999s-1.66699 -10.5 -3 -15.5s-3.33301 -8.5 -6 -10.5s-7.83398 -3.66699 -15.501 -5s-16.167 -2.5 -25.5 -3.5s-18.333 -1.66699 -27 -2s-15 -0.5 -19 -0.5h-13.5c-5.66699 0 -11.5 0.333008 -17.5 1
s-11.5 1.83398 -16.5 3.50098s-8.5 3.83398 -10.5 6.50098c-2.66699 3.33301 -4.83398 8.5 -6.50098 15.5s-3 14.333 -4 22s-1.66699 15.334 -2 23.001s-0.5 13.5 -0.5 17.5c0 7.33301 0.666992 17.333 2 30s5 21.667 11 27c2 2 6.83301 3.5 14.5 4.5s16 2 25 3
s17.833 1.66699 26.5 2s14.667 0.5 18 0.5s7.83301 -0.166992 13.5 -0.5s11.5 -0.833008 17.5 -1.5s11.667 -1.66699 17 -3s9 -3 11 -5c2.66699 -2.66699 4.66699 -7.66699 6 -15s2.5 -15.166 3.5 -23.499s1.66699 -16.333 2 -24s0.5 -13.5 0.5 -17.5z" />
    <glyph glyph-name="cedilla" unicode="&#xb8;" 
d="M597 -205c0 -8 -0.834961 -17.502 -2.50195 -28.502s-4.33398 -21.833 -8.00098 -32.5s-8.16699 -20.5 -13.5 -29.5s-11.666 -15.5 -18.999 -19.5s-19.166 -7.83301 -35.499 -11.5s-34 -7.16699 -53 -10.5s-37.333 -6.16602 -55 -8.49902l-41.5 -5.5l-4 93
c4.66699 0.666992 13.334 2.16699 26.001 4.5l39.5 7.5c13.667 2.66699 26.334 5.33398 38.001 8.00098s18.834 5 21.501 7c7.33301 3.33301 12.166 7.66602 14.499 12.999s3.5 11.666 3.5 18.999c0 18 -7.33301 31.667 -22 41c-3.33301 2 -10.666 3.5 -21.999 4.5
s-23.833 1.66699 -37.5 2s-26.834 0.333008 -39.501 0s-21.667 -0.5 -27 -0.5v91c0 11.333 0.166992 22.833 0.5 34.5s0.833008 23.167 1.5 34.5l116 24v-124c17.333 -2 32.666 -5.16699 45.999 -9.5s24.833 -10.166 34.5 -17.499s17.667 -17.166 24 -29.499
s10.833 -27.5 13.5 -45.5c0 -2 0.166992 -3.83301 0.5 -5.5s0.5 -3.5 0.5 -5.5z" />
    <glyph glyph-name="onesuperior" unicode="&#xb9;" horiz-adv-x="278" 
d="M257 370l-195 4.99902l23 256l-65 4c8 15.333 13.667 30.333 17 45s7.33301 30.334 12 47.001l174 3c1.33301 -15.333 3 -32 5 -50l6 -56.5c2 -19.667 3.83301 -39.667 5.5 -60s3.5 -39.833 5.5 -58.5z" />
    <glyph glyph-name="ordmasculine" unicode="&#xba;" horiz-adv-x="482" 
d="M462 535c0 -11.333 -1.16699 -22.3301 -3.5 -32.9971s-8.16602 -19.667 -17.499 -27c-9.33301 -8.66699 -24.833 -16.834 -46.5 -24.501s-44.834 -14.5 -69.501 -20.5s-48.667 -10.667 -72 -14s-41.666 -5 -54.999 -5c-8.66699 0 -20.834 0.5 -36.501 1.5
s-31.667 3.16699 -48 6.5s-31.166 7.83301 -44.499 13.5s-22 13.167 -26 22.5c-3.33301 6.66699 -6.33301 15.667 -9 27s-5 23.166 -7 35.499s-3.66699 24.333 -5 36s-2 21.5 -2 29.5c0 6.66699 0.5 13.5 1.5 20.5s3.83301 13.5 8.5 19.5c6.66699 8 18.667 16.5 36 25.5
s36.166 17.333 56.499 25s40 13.834 59 18.501s33.5 7 43.5 7c7.33301 0 17.833 -0.166992 31.5 -0.5s28.5 -1.33301 44.5 -3s32.333 -3.83398 49 -6.50098s32 -6.33398 46 -11.001s25.833 -10.5 35.5 -17.5s15.5 -15.167 17.5 -24.5c2.66699 -16.667 5.5 -33.5 8.5 -50.5
s4.5 -33.833 4.5 -50.5zM357 566.003c0 12.667 -3.83398 23.1689 -11.501 31.502s-17.167 14.666 -28.5 18.999s-23.166 7.33301 -35.499 9s-23.5 2.5 -33.5 2.5c-11.333 0 -24.333 -1.33301 -39 -4s-28.5 -7 -41.5 -13s-24 -13.833 -33 -23.5s-13.5 -21.5 -13.5 -35.5
c0 -12.667 3.66699 -23.334 11 -32.001s16.5 -15.834 27.5 -21.501s22.667 -9.83398 35 -12.501s23.5 -4 33.5 -4c12 0 25.5 1.66699 40.5 5s29 8.33301 42 15s24 15.334 33 26.001s13.5 23.334 13.5 38.001z" />
    <glyph glyph-name="guillemotright" unicode="&#xbb;" horiz-adv-x="504" 
d="M504 175l-232 -204l-6 112l126 91l-155 111l48 66zM299 159l-220 -219l-18 127l125 90l-155 111l48 67z" />
    <glyph glyph-name="onequarter" unicode="&#xbc;" horiz-adv-x="1009" 
d="M978 155l-74.999 -2c0 -26.667 0.5 -52.5 1.5 -77.5s3.16699 -50.167 6.5 -75.5l-181 -6c-0.666992 25.333 -1.16699 50.5 -1.5 75.5s-1.16602 50.167 -2.49902 75.5l-250 -4c2.66699 35.333 4.66699 70.5 6 105.5s3.66602 69.5 6.99902 103.5l101 6
c7.33301 -22 13.833 -44.333 19.5 -67l16.5 -68l96 1c1.33301 11.333 2.5 22 3.5 32s1.5 20.667 1.5 32c0 12.667 -0.5 25.5 -1.5 38.5s-1.83301 26.167 -2.5 39.5c10.667 0.666992 21.167 1 31.5 1h31.5c20.667 0 41.334 -0.5 62.001 -1.5s41.667 -1.83301 63 -2.5l1 -132
l55 1c3.33301 -11.333 5.66602 -23.833 6.99902 -37.5s2.66602 -26.167 3.99902 -37.5zM605.001 716l-50.501 -99l-48.5 -100l-34 -70c-11.333 -23.333 -21.666 -47 -30.999 -71l-75 -196.5l-75 -196.5l-132 2l57.5 123l57.5 122l33.5 72.5c11 23.667 21.5 47.5 31.5 71.5
l67.5 171.5l64.5 173.5zM258 362c-65.333 4 -130.666 6 -195.999 6l23 256l-65 4c8.66699 14.667 14.667 29.5 18 44.5s7.33301 30.833 12 47.5l173 2c7.33301 -60.667 13.666 -120.667 18.999 -180z" />
    <glyph glyph-name="onehalf" unicode="&#xbd;" horiz-adv-x="985" 
d="M944 128c-1.33301 -19.333 -2.16797 -38.4883 -2.50098 -57.4883s-1.16602 -38.167 -2.49902 -57.5l-424 -9l-10 73l-10 73c18.667 4 39.334 9 62.001 15s45.5 12.833 68.5 20.5s45.167 16.167 66.5 25.5s40.333 19.666 57 30.999
c5.33301 3.33301 10.833 7.33301 16.5 12s8.5 10.667 8.5 18c0 8 -2.5 16 -7.5 24s-11.167 13.333 -18.5 16c-4.66699 1.33301 -12.334 2.16602 -23.001 2.49902s-18.667 0.5 -24 0.5h-19.5c-9 0 -18.333 -0.166992 -28 -0.5s-18.667 -1.33301 -27 -3
s-14.166 -3.83398 -17.499 -6.50098c-2.66699 -2 -4.33398 -5.16699 -5.00098 -9.5s-1 -7.83301 -1 -10.5s0.166992 -5.33398 0.5 -8.00098s0.833008 -5.66699 1.5 -9l-126 -10c-1.33301 7.33301 -2.33301 14.5 -3 21.5s-1 14.167 -1 21.5c0 10.667 2.16699 23.667 6.5 39
s12.5 25.333 24.5 30c10 3.33301 25.5 6.16602 46.5 8.49902s43.5 4.16602 67.5 5.49902s47 2.33301 69 3s38.667 1 50 1c20 0 40.5 -0.166992 61.5 -0.5s40 -3.33301 57 -9s30.833 -15.334 41.5 -29.001s16 -33.834 16 -60.501c0 -7.33301 -0.5 -16.5 -1.5 -27.5
s-3.83301 -19.167 -8.5 -24.5c-3.33301 -4.66699 -9.83301 -9.83398 -19.5 -15.501s-20.167 -11.334 -31.5 -17.001s-22.333 -10.834 -33 -15.501s-18.667 -8 -24 -10l-83.5 -28.5c-27.667 -9.66699 -55.5 -18.834 -83.5 -27.501l156.5 2
c52.333 0.666992 104.833 1.66699 157.5 3zM622.998 714.012l-51 -99l-50 -100l-33 -70c-10.667 -23.333 -20.667 -47 -30 -71l-75.5 -196.5l-75.5 -196.5l-132 2l58 123l58 122l33.5 72c11 24 21.167 48 30.5 72l67.5 171l64.5 174zM257.998 373.012l-195.999 4.99902
l23 256l-65 4c8.66699 15.333 14.667 30.333 18 45s7.33301 30.334 12 47.001l173 3l11.5 -107c4.33301 -40.667 8.16602 -80 11.499 -118z" />
    <glyph glyph-name="threequarters" unicode="&#xbe;" horiz-adv-x="1211" 
d="M1181 173l-76.001 -1.00098c0 -26 0.666992 -51.5 2 -76.5s3.33301 -50.833 6 -77.5l-180 -5c-0.666992 25.333 -1.16699 50.5 -1.5 75.5s-1.16602 50.167 -2.49902 75.5l-250 -3c2 34.667 3.83301 69.334 5.5 104.001s3.83398 69.667 6.50098 105l102 5
c7.33301 -22 13.666 -44.167 18.999 -66.5l16 -68.5l97 2c1.33301 10 2.33301 20.333 3 31s1 21 1 31c0 13.333 -0.333008 26.5 -1 39.5l-2 39.5c10 0 20.333 0.166992 31 0.5s21 0.5 31 0.5c21.333 0 42.333 -0.333008 63 -1l62 -2l1 -133l54 1
c4.66699 -12 7.66699 -24.5 9 -37.5zM825.999 726.999l-57.501 -112.999l-55.5 -114c-9.33301 -18.667 -18.166 -37.334 -26.499 -56.001s-16.166 -37.667 -23.499 -57l-75.5 -196.5l-75.5 -197.5l-132 3l117 246c11.333 23.333 22.166 47 32.499 71l30.5 72l67.5 171.5
l64.5 172.5zM535.998 478c0 -11.333 -2.16406 -24.333 -6.49707 -39s-11.166 -25.667 -20.499 -33s-24.166 -13.5 -44.499 -18.5s-42.5 -9 -66.5 -12s-47.833 -5.16699 -71.5 -6.5s-42.834 -2.33301 -57.501 -3c-21.333 -1.33301 -42.833 -2 -64.5 -2h-64.5h-42.5
c-14.333 0 -28.833 0.333008 -43.5 1v68c0 16 1 31.667 3 47h73h19.5h39.5c15.333 0 31.666 0.166992 48.999 0.5s33.5 0.666016 48.5 0.999023s27.667 0.833008 38 1.5s15.833 1.33398 16.5 2.00098c2 1.33301 3.5 2.5 4.5 3.5s1.5 3.16699 1.5 6.5c0 5.33301 -2 11 -6 17
s-8 10.667 -12 14c-1.33301 1.33301 -7 2.33301 -17 3s-22.167 1.33398 -36.5 2.00098s-29.833 1.33398 -46.5 2.00098s-32.334 1.16699 -47.001 1.5s-27.167 0.5 -37.5 0.5h-18.5c-0.666992 3.33301 -1.16699 6.5 -1.5 9.5s-0.5 6.16699 -0.5 9.5v21l209 63
c-46 0 -92.333 0.5 -139 1.5s-93.334 1.5 -140.001 1.5c0.666992 7.33301 1.16699 15 1.5 23s0.5 16 0.5 24c0 12.667 -1.66699 26.334 -5 41.001c60 2 119.5 4.16699 178.5 6.5s118.5 3.5 178.5 3.5h71c0 -10.667 0.166992 -21.334 0.5 -32.001s0.5 -21.334 0.5 -32.001
c0 -20.667 -1 -41 -3 -61l-72 -21.5c-24 -7 -48 -14.5 -72 -22.5c6 -0.666992 17.333 -2 34 -4s34.5 -4.33301 53.5 -7s36.667 -5.5 53 -8.5s27.166 -5.5 32.499 -7.5c14 -6.66699 22.5 -15.834 25.5 -27.501s4.5 -24.167 4.5 -37.5z" />
    <glyph glyph-name="questiondown" unicode="&#xbf;" horiz-adv-x="652" 
d="M26 81l0.000976562 23.5c0 11 0.166992 22.833 0.5 35.5s1 24.334 2 35.001s2.5 18 4.5 22c7.33301 14.667 20.166 27.5 38.499 38.5s35.5 18.167 51.5 21.5c8.66699 2 17.5 3.33301 26.5 4l26.5 2c20 1.33301 40.167 2.5 60.5 3.5s40.5 2.16699 60.5 3.5
c2 20 3 39.667 3 59c0 9.33301 -1.33301 19.5 -4 30.5s-5.33398 20.833 -8.00098 29.5l193 4v-246l-19 1c-5.33301 0.666992 -18 0.833984 -38 0.500977s-41.167 -1.16602 -63.5 -2.49902s-43.166 -3.16602 -62.499 -5.49902s-31.333 -5.16602 -36 -8.49902
c-10.667 -8.66699 -17.667 -18.834 -21 -30.501s-5 -23.834 -5 -36.501c0 -44 12.167 -77.667 36.5 -101s57.833 -35 100.5 -35c14.667 0 33 3 55 9s44.5 13.167 67.5 21.5s45 17.166 66 26.499l51.5 23c6 -38.667 11.167 -77.167 15.5 -115.5l13.5 -115.5l-135.5 -4
c-45 -1.33301 -90.167 -2 -135.5 -2h-50c-23.333 0 -47.833 0.5 -73.5 1.5s-49.834 2.16699 -72.501 3.5s-38.667 3.66602 -48 6.99902c-17.333 5.33301 -34.166 14.166 -50.499 26.499s-28.5 27.166 -36.5 44.499c-2.66699 6 -5 19.5 -7 40.5s-3.5 43.833 -4.5 68.5
s-1.66699 48.334 -2 71.001s-0.5 38 -0.5 46zM288.001 493c0 11.333 3.66602 22.498 10.999 33.498s16.333 20.667 27 29s22.167 15 34.5 20s23.833 7.5 34.5 7.5c10 0 20.5 -1.83301 31.5 -5.5s21 -8.66699 30 -15s16.5 -14.166 22.5 -23.499s9 -19.666 9 -30.999
c0 -13.333 -3.83301 -25 -11.5 -35s-17.167 -18.667 -28.5 -26s-23.666 -12.833 -36.999 -16.5s-25.333 -5.5 -36 -5.5c-18.667 0 -35.5 4.16699 -50.5 12.5s-26.167 21.166 -33.5 38.499c-2 4.66699 -3 10.334 -3 17.001z" />
    <glyph glyph-name="Agrave" unicode="&#xc0;" horiz-adv-x="754" 
d="M723 3l-152 -23l-32 101.5l-31 101.5l-246 -9l-31 -133h-154l29 338l29 337c48 8 95.833 14.667 143.5 20s95.834 8 144.501 8c59.333 0 118.666 -1 177.999 -3l31.5 -207.5l32.5 -207.5c8 -54.667 16.833 -108.667 26.5 -162s20.167 -107 31.5 -161zM473 319
c-0.666992 6 -2.33203 17.165 -4.99902 33.498s-5.66699 33.666 -9 51.999s-7.16602 35 -11.499 50s-8.5 23.833 -12.5 26.5c-1.33301 0.666992 -4.5 1.33398 -9.5 2.00098s-10.333 1.33398 -16 2.00098s-11.167 1 -16.5 1h-11h-13.5c-5.66699 0 -11.667 -0.166992 -18 -0.5
s-12.333 -1.16602 -18 -2.49902s-9.5 -3 -11.5 -5c-1.33301 -0.666992 -3 -5 -5 -13l-7.5 -29.5c-3 -11.667 -6 -24.167 -9 -37.5l-8.5 -38c-2.66699 -12 -4.83398 -22.333 -6.50098 -31s-2.83398 -13.667 -3.50098 -15zM462.002 873.998l-36.002 -56l-53.5 30
c-16.333 9.33301 -32.166 19 -47.499 29s-30.666 20.833 -45.999 32.5s-31.333 24.5 -48 38.5l72 99l47 -48c16 -16 31.333 -33 46 -51c10.667 -13.333 21.5 -26 32.5 -38z" />
    <glyph glyph-name="Aacute" unicode="&#xc1;" horiz-adv-x="754" 
d="M723 3l-152 -23l-32 101.5l-31 101.5l-246 -9l-31 -133h-154l29 338l29 337c48 8 95.833 14.667 143.5 20s95.834 8 144.501 8c59.333 0 118.666 -1 177.999 -3l31.5 -207.5l32.5 -207.5c8 -54.667 16.833 -108.667 26.5 -162s20.167 -107 31.5 -161zM473 319
c-0.666992 6 -2.33203 17.165 -4.99902 33.498s-5.66699 33.666 -9 51.999s-7.16602 35 -11.499 50s-8.5 23.833 -12.5 26.5c-1.33301 0.666992 -4.5 1.33398 -9.5 2.00098s-10.333 1.33398 -16 2.00098s-11.167 1 -16.5 1h-11h-13.5c-5.66699 0 -11.667 -0.166992 -18 -0.5
s-12.333 -1.16602 -18 -2.49902s-9.5 -3 -11.5 -5c-1.33301 -0.666992 -3 -5 -5 -13l-7.5 -29.5c-3 -11.667 -6 -24.167 -9 -37.5l-8.5 -38c-2.66699 -12 -4.83398 -22.333 -6.50098 -31s-2.83398 -13.667 -3.50098 -15zM523.002 937.998l-47.501 -38.5
c-15 -11.667 -30.167 -22.5 -45.5 -32.5s-31.166 -19.667 -47.499 -29l-53.5 -30l-37 56l34.5 36c11 12 21.833 24.667 32.5 38c14 18 29 35 45 51l48 48z" />
    <glyph glyph-name="Acircumflex" unicode="&#xc2;" horiz-adv-x="754" 
d="M723 3l-152 -23l-32 101.5l-31 101.5l-246 -9l-31 -133h-154l29 338l29 337c48 8 95.833 14.667 143.5 20s95.834 8 144.501 8c59.333 0 118.666 -1 177.999 -3l31.5 -207.5l32.5 -207.5c8 -54.667 16.833 -108.667 26.5 -162s20.167 -107 31.5 -161zM473 319
c-0.666992 6 -2.33203 17.165 -4.99902 33.498s-5.66699 33.666 -9 51.999s-7.16602 35 -11.499 50s-8.5 23.833 -12.5 26.5c-1.33301 0.666992 -4.5 1.33398 -9.5 2.00098s-10.333 1.33398 -16 2.00098s-11.167 1 -16.5 1h-11h-13.5c-5.66699 0 -11.667 -0.166992 -18 -0.5
s-12.333 -1.16602 -18 -2.49902s-9.5 -3 -11.5 -5c-1.33301 -0.666992 -3 -5 -5 -13l-7.5 -29.5c-3 -11.667 -6 -24.167 -9 -37.5l-8.5 -38c-2.66699 -12 -4.83398 -22.333 -6.50098 -31s-2.83398 -13.667 -3.50098 -15zM565.002 861.998l-94 -3.99902l-99 111l-98 -116
l-105 -3l99.5 108.5l101.5 105.5c34 -32.667 66.833 -65.834 98.5 -99.501z" />
    <glyph glyph-name="Atilde" unicode="&#xc3;" horiz-adv-x="754" 
d="M723 3l-152 -23l-32 101.5l-31 101.5l-246 -9l-31 -133h-154l29 338l29 337c48 8 95.833 14.667 143.5 20s95.834 8 144.501 8c59.333 0 118.666 -1 177.999 -3l31.5 -207.5l32.5 -207.5c8 -54.667 16.833 -108.667 26.5 -162s20.167 -107 31.5 -161zM473 319
c-0.666992 6 -2.33203 17.165 -4.99902 33.498s-5.66699 33.666 -9 51.999s-7.16602 35 -11.499 50s-8.5 23.833 -12.5 26.5c-1.33301 0.666992 -4.5 1.33398 -9.5 2.00098s-10.333 1.33398 -16 2.00098s-11.167 1 -16.5 1h-11h-13.5c-5.66699 0 -11.667 -0.166992 -18 -0.5
s-12.333 -1.16602 -18 -2.49902s-9.5 -3 -11.5 -5c-1.33301 -0.666992 -3 -5 -5 -13l-7.5 -29.5c-3 -11.667 -6 -24.167 -9 -37.5l-8.5 -38c-2.66699 -12 -4.83398 -22.333 -6.50098 -31s-2.83398 -13.667 -3.50098 -15zM602.002 909.998
c-7.33301 -5.33301 -18.001 -12.499 -32.001 -21.499s-28.5 -17.833 -43.5 -26.5s-29.667 -16.167 -44 -22.5s-25.833 -9.5 -34.5 -9.5c-10 0 -21.167 3.5 -33.5 10.5s-24.833 14.667 -37.5 23l-36.5 23c-11.667 7 -21.834 10.5 -30.501 10.5
c-7.33301 0 -15.666 -2.5 -24.999 -7.5s-18.666 -11.167 -27.999 -18.5s-18 -14.833 -26 -22.5l-19 -18.5l-59 65l30 20.5l44 29.5c15.333 10 30 18.833 44 26.5s23.667 11.5 29 11.5c9.33301 0 20.333 -3.16699 33 -9.5l39.5 -20.5l40 -20.5
c13 -6.33301 24.167 -9.5 33.5 -9.5c6.66699 0 14.5 2 23.5 6s18 8.66699 27 14s17.5 11.166 25.5 17.499l20 15.5z" />
    <glyph glyph-name="Adieresis" unicode="&#xc4;" horiz-adv-x="754" 
d="M723 3l-152 -23l-32 101.5l-31 101.5l-246 -9l-31 -133h-154l29 338l29 337c48 8 95.833 14.667 143.5 20s95.834 8 144.501 8c59.333 0 118.666 -1 177.999 -3l31.5 -207.5l32.5 -207.5c8 -54.667 16.833 -108.667 26.5 -162s20.167 -107 31.5 -161zM473 319
c-0.666992 6 -2.33203 17.165 -4.99902 33.498s-5.66699 33.666 -9 51.999s-7.16602 35 -11.499 50s-8.5 23.833 -12.5 26.5c-1.33301 0.666992 -4.5 1.33398 -9.5 2.00098s-10.333 1.33398 -16 2.00098s-11.167 1 -16.5 1h-11h-13.5c-5.66699 0 -11.667 -0.166992 -18 -0.5
s-12.333 -1.16602 -18 -2.49902s-9.5 -3 -11.5 -5c-1.33301 -0.666992 -3 -5 -5 -13l-7.5 -29.5c-3 -11.667 -6 -24.167 -9 -37.5l-8.5 -38c-2.66699 -12 -4.83398 -22.333 -6.50098 -31s-2.83398 -13.667 -3.50098 -15zM579.002 928.998
c0 -12.667 -2.49805 -24.5 -7.49805 -35.5s-11.833 -20.667 -20.5 -29s-18.5 -14.833 -29.5 -19.5s-22.833 -7 -35.5 -7c-11.333 0 -22.333 2 -33 6s-20.334 9.5 -29.001 16.5s-15.667 15.5 -21 25.5s-8 20.667 -8 32c0 14 2.5 27.167 7.5 39.5s12 23.333 21 33
s19.667 17.167 32 22.5s25.833 8 40.5 8c12 0 23.167 -2.66699 33.5 -8s19.166 -12.333 26.499 -21s13 -18.5 17 -29.5s6 -22.167 6 -33.5zM338.004 930.998c0 -25.333 -9.16602 -46.6689 -27.499 -64.002s-40.166 -26 -65.499 -26c-10.667 0 -21.334 2 -32.001 6
s-20.334 9.5 -29.001 16.5s-15.667 15.333 -21 25s-8 20.167 -8 31.5c0 14 2.66699 27.333 8 40s12.5 23.834 21.5 33.501s19.667 17.167 32 22.5s25.5 8 39.5 8c12 0 23 -2.66699 33 -8s18.667 -12.333 26 -21s13 -18.667 17 -30s6 -22.666 6 -33.999z" />
    <glyph glyph-name="Aring" unicode="&#xc5;" horiz-adv-x="754" 
d="M473 319c-0.666992 6 -2.33203 17.165 -4.99902 33.498s-5.66699 33.666 -9 51.999s-7.16602 35 -11.499 50s-8.5 23.833 -12.5 26.5c-1.33301 0.666992 -4.5 1.33398 -9.5 2.00098s-10.333 1.33398 -16 2.00098s-11.167 1 -16.5 1h-11h-13.5
c-5.66699 0 -11.667 -0.166992 -18 -0.5s-12.333 -1.16602 -18 -2.49902s-9.5 -3 -11.5 -5c-1.33301 -0.666992 -3 -5 -5 -13l-7.5 -29.5c-3 -11.667 -6 -24.167 -9 -37.5l-8.5 -38c-2.66699 -12 -4.83398 -22.333 -6.50098 -31s-2.83398 -13.667 -3.50098 -15z
M510.002 844.998c0 -24 -6.83105 -44.501 -20.498 -61.501s-30.5 -30.167 -50.5 -39.5c54 0 108 -1 162 -3l31.5 -207.5l32.5 -207.5c8 -54.667 16.833 -108.667 26.5 -162s20.167 -107 31.5 -161l-152 -23l-32 101.5l-31 101.5l-246 -9l-31 -133h-154l29 338l29 337
c28.667 5.33301 57.167 9.83301 85.5 13.5s56.833 6.83398 85.5 9.50098c-22.667 7.33301 -43 18.333 -61 33s-27 32.667 -27 54c0 3.33301 0.333008 6 1 8c3.33301 18 10 34.167 20 48.5s22 26.333 36 36s29.667 17.167 47 22.5s34.666 8 51.999 8
c15.333 0 31.166 -2.16699 47.499 -6.5s31 -10.833 44 -19.5s23.667 -19.5 32 -32.5s12.5 -28.167 12.5 -45.5zM442.004 830.997c0 14 -0.833984 25.3301 -2.50098 33.9971s-4.83398 15.334 -9.50098 20.001s-11.334 7.83398 -20.001 9.50098s-20 2.5 -34 2.5
c-3.33301 0 -7.66602 -0.166992 -12.999 -0.5l-16.5 -1c-5.66699 -0.333008 -11 -1 -16 -2s-8.83301 -2.5 -11.5 -4.5c-3.33301 -2 -5.83301 -5.66699 -7.5 -11s-3.16699 -11.166 -4.5 -17.499s-2.16602 -12.666 -2.49902 -18.999s-0.5 -11.166 -0.5 -14.499
c0 -20 3.16699 -32.333 9.5 -37s19.166 -7 38.499 -7c3.33301 0 9 0.333008 17 1s16.167 1.5 24.5 2.5s16.333 2.33301 24 4s12.834 3.5 15.501 5.5c4.66699 3.33301 7.33398 8.66602 8.00098 15.999s1 13.666 1 18.999z" />
    <glyph glyph-name="AE" unicode="&#xc6;" horiz-adv-x="1033" 
d="M992 588c-32 -2 -63.833 -4.33398 -95.5 -7.00098s-63.5 -6.33398 -95.5 -11.001c-26.667 -3.33301 -53.667 -6.5 -81 -9.5l-81 -8.5l11 -142c43.333 -1.33301 86 -3.16602 128 -5.49902s84.333 -5.5 127 -9.5v-123c-41.333 -7.33301 -82.333 -15 -123 -23
s-82 -15.667 -124 -23l4 -90l165 -17c20 -2.66699 39.667 -5.16699 59 -7.5s36.666 -4.83301 51.999 -7.5l50 -8c-0.666992 -10 -1 -19 -1 -27c-0.666992 -7.33301 -1 -14.666 -1 -21.999v-17v-40l-264.5 -6c-87.667 -2 -176.167 -4.66699 -265.5 -8l2 223l-192 4l-115 -212
l-182 -16l61.5 165l64.5 163l174 438c38 1.33301 76 2 114 2h114c80 0 159.667 2.83301 239 8.5l239 17.5c4.66699 -30 8.33398 -60 11.001 -90s4.66699 -60.333 6 -91zM464 434.999c0 17.333 -0.333008 34.3311 -1 50.998s-1 33.334 -1 50.001l-60 3
c-14.667 -29.333 -28.167 -58.833 -40.5 -88.5l-36.5 -90.5l136 4c2 22.667 3 46.334 3 71.001z" />
    <glyph glyph-name="Ccedilla" unicode="&#xc7;" horiz-adv-x="737" 
d="M536 -164c0 -8 -0.831055 -17.5029 -2.49805 -28.5029s-4.33398 -21.833 -8.00098 -32.5s-8.16699 -20.5 -13.5 -29.5s-11.666 -15.5 -18.999 -19.5s-19.333 -7.83301 -36 -11.5s-34.5 -7.16699 -53.5 -10.5s-37.333 -6.16602 -55 -8.49902l-41.5 -5.5l-4 93
c5.33301 0.666992 14.333 2.16699 27 4.5l39.5 7.5c13.667 2.66699 26.334 5.33398 38.001 8.00098s18.834 5 21.501 7c7.33301 3.33301 12 7.66602 14 12.999s3 11.666 3 18.999c0 18 -7 31.667 -21 41c-3.33301 2 -10.666 3.5 -21.999 4.5s-23.833 1.66699 -37.5 2
s-26.834 0.333008 -39.501 0s-21.667 -0.5 -27 -0.5v91c0 9.33301 0.166992 18.5 0.5 27.5s0.5 18.167 0.5 27.5c-12.667 0.666992 -26.834 1.5 -42.501 2.5s-31 2.33301 -46 4s-28.667 3.83398 -41 6.50098s-21.833 6 -28.5 10c-7.33301 4.66699 -14.333 10.167 -21 16.5
s-12.667 12.833 -18 19.5c-14 17.333 -25.667 36.333 -35 57s-16.666 42 -21.999 64s-9.16602 44.333 -11.499 67s-3.5 45 -3.5 67c0 26.667 1.5 54.334 4.5 83.001s7.83301 57 14.5 85s15.5 55 26.5 81s24.5 50 40.5 72c4.66699 6 10.667 13.333 18 22s14.666 15 21.999 19
c18 10 38.167 18.333 60.5 25s45.5 11.834 69.5 15.501s47.833 6.33398 71.5 8.00098s45.5 2.5 65.5 2.5c38 0 76 -2.16699 114 -6.5s75 -11.833 111 -22.5c-1.33301 -18 -2.33301 -36.167 -3 -54.5s-1 -36.5 -1 -54.5c0 -43.333 1 -87 3 -131
c-30 11.333 -61.333 19.5 -94 24.5s-65 7.5 -97 7.5c-6.66699 0 -16.334 -0.5 -29.001 -1.5s-27 -2.33301 -43 -4s-32.5 -3.83398 -49.5 -6.50098s-32.833 -6 -47.5 -10s-27.5 -8.66699 -38.5 -14s-18.167 -11 -21.5 -17c-2.66699 -5.33301 -4.83398 -12.833 -6.50098 -22.5
s-3 -19.834 -4 -30.501s-1.66699 -21 -2 -31s-0.5 -18 -0.5 -24s0.666992 -18 2 -36s3 -37.167 5 -57.5s4.5 -38.833 7.5 -55.5s6.16699 -26.334 9.5 -29.001c3.33301 -2 8.83301 -3.16699 16.5 -3.5s12.834 -0.5 15.501 -0.5c32.667 0 67.667 1.66699 105 5
s75.166 7.83301 113.499 13.5s76.166 11.667 113.499 18s72 12.5 104 18.5l-1 -156l-91 -17c-30 -5.33301 -60.333 -10 -91 -14c-34.667 -4.66699 -70.334 -8.66699 -107.001 -12v-89c16.667 -2 31.667 -5.16699 45 -9.5s25 -10.166 35 -17.499s18 -17.166 24 -29.499
s10.667 -27.5 14 -45.5c0 -2 0.166992 -3.83301 0.5 -5.5s0.5 -3.5 0.5 -5.5z" />
    <glyph glyph-name="Egrave" unicode="&#xc8;" horiz-adv-x="656" 
d="M636 609c-65.333 -3.33301 -130.167 -6.83105 -194.5 -10.498s-129.166 -8.16699 -194.499 -13.5l-2 -79l258 15c3.33301 -22.667 5.83301 -45 7.5 -67s2.5 -44.333 2.5 -67c0 -9.33301 -0.166992 -19 -0.5 -29s-0.5 -19.667 -0.5 -29l-240 -43l15 -124
c50.667 3.33301 101.167 8.16602 151.5 14.499s101.166 11.833 152.499 16.5l14 -100.5c4.66699 -33.667 11.334 -66.5 20.001 -98.5c-94.667 0.666992 -188.667 0.5 -282 -0.5s-187.333 -1.5 -282 -1.5c2 78 4.33301 155.667 7 233s4 155.333 4 234v19
c0 45.333 -0.666992 90.5 -2 135.5l-4 136.5c52.667 -0.666992 105.167 -0.833984 157.5 -0.500977s105.166 0.5 158.499 0.5c40.667 0 81.167 -0.833008 121.5 -2.5s80.833 -3.5 121.5 -5.5zM461.999 874.002l-36.002 -56l-53.5 30c-16.333 9.33301 -32.166 19 -47.499 29
s-30.666 20.833 -45.999 32.5s-31.333 24.5 -48 38.5l72 99l47 -48c16 -16 31.333 -33 46 -51c10.667 -13.333 21.5 -26 32.5 -38z" />
    <glyph glyph-name="Eacute" unicode="&#xc9;" horiz-adv-x="656" 
d="M636 609c-65.333 -3.33301 -130.167 -6.83105 -194.5 -10.498s-129.166 -8.16699 -194.499 -13.5l-2 -79l258 15c3.33301 -22.667 5.83301 -45 7.5 -67s2.5 -44.333 2.5 -67c0 -9.33301 -0.166992 -19 -0.5 -29s-0.5 -19.667 -0.5 -29l-240 -43l15 -124
c50.667 3.33301 101.167 8.16602 151.5 14.499s101.166 11.833 152.499 16.5l14 -100.5c4.66699 -33.667 11.334 -66.5 20.001 -98.5c-94.667 0.666992 -188.667 0.5 -282 -0.5s-187.333 -1.5 -282 -1.5c2 78 4.33301 155.667 7 233s4 155.333 4 234v19
c0 45.333 -0.666992 90.5 -2 135.5l-4 136.5c52.667 -0.666992 105.167 -0.833984 157.5 -0.500977s105.166 0.5 158.499 0.5c40.667 0 81.167 -0.833008 121.5 -2.5s80.833 -3.5 121.5 -5.5zM512.999 948.002l-47.501 -38.5c-15 -11.667 -30.167 -22.5 -45.5 -32.5
s-31.166 -19.667 -47.499 -29l-53.5 -30l-37 56l34.5 36c11 12 21.833 24.667 32.5 38c14 18 29 35 45 51l48 48z" />
    <glyph glyph-name="Ecircumflex" unicode="&#xca;" horiz-adv-x="656" 
d="M636 609c-65.333 -3.33301 -130.167 -6.83105 -194.5 -10.498s-129.166 -8.16699 -194.499 -13.5l-2 -79l258 15c3.33301 -22.667 5.83301 -45 7.5 -67s2.5 -44.333 2.5 -67c0 -9.33301 -0.166992 -19 -0.5 -29s-0.5 -19.667 -0.5 -29l-240 -43l15 -124
c50.667 3.33301 101.167 8.16602 151.5 14.499s101.166 11.833 152.499 16.5l14 -100.5c4.66699 -33.667 11.334 -66.5 20.001 -98.5c-94.667 0.666992 -188.667 0.5 -282 -0.5s-187.333 -1.5 -282 -1.5c2 78 4.33301 155.667 7 233s4 155.333 4 234v19
c0 45.333 -0.666992 90.5 -2 135.5l-4 136.5c52.667 -0.666992 105.167 -0.833984 157.5 -0.500977s105.166 0.5 158.499 0.5c40.667 0 81.167 -0.833008 121.5 -2.5s80.833 -3.5 121.5 -5.5zM554.999 862.002l-94 -3.99902l-99 111l-98 -116l-105 -3l99.5 108.5
l101.5 105.5c34 -32.667 66.833 -65.834 98.5 -99.501z" />
    <glyph glyph-name="Edieresis" unicode="&#xcb;" horiz-adv-x="656" 
d="M636 609c-65.333 -3.33301 -130.167 -6.83105 -194.5 -10.498s-129.166 -8.16699 -194.499 -13.5l-2 -79l258 15c3.33301 -22.667 5.83301 -45 7.5 -67s2.5 -44.333 2.5 -67c0 -9.33301 -0.166992 -19 -0.5 -29s-0.5 -19.667 -0.5 -29l-240 -43l15 -124
c50.667 3.33301 101.167 8.16602 151.5 14.499s101.166 11.833 152.499 16.5l14 -100.5c4.66699 -33.667 11.334 -66.5 20.001 -98.5c-94.667 0.666992 -188.667 0.5 -282 -0.5s-187.333 -1.5 -282 -1.5c2 78 4.33301 155.667 7 233s4 155.333 4 234v19
c0 45.333 -0.666992 90.5 -2 135.5l-4 136.5c52.667 -0.666992 105.167 -0.833984 157.5 -0.500977s105.166 0.5 158.499 0.5c40.667 0 81.167 -0.833008 121.5 -2.5s80.833 -3.5 121.5 -5.5zM558.999 929.002c0 -12.667 -2.49805 -24.5 -7.49805 -35.5
s-11.833 -20.667 -20.5 -29s-18.5 -14.833 -29.5 -19.5s-22.833 -7 -35.5 -7c-11.333 0 -22.333 2 -33 6s-20.334 9.5 -29.001 16.5s-15.667 15.5 -21 25.5s-8 20.667 -8 32c0 14 2.5 27.167 7.5 39.5s12 23.333 21 33s19.667 17.167 32 22.5s25.833 8 40.5 8
c12 0 23.167 -2.66699 33.5 -8s19.166 -12.333 26.499 -21s13 -18.5 17 -29.5s6 -22.167 6 -33.5zM318.001 931.002c0 -25.333 -9.16602 -46.6689 -27.499 -64.002s-40.166 -26 -65.499 -26c-10.667 0 -21.334 2 -32.001 6s-20.334 9.5 -29.001 16.5s-15.667 15.333 -21 25
s-8 20.167 -8 31.5c0 14 2.66699 27.333 8 40s12.5 23.834 21.5 33.501s19.667 17.167 32 22.5s25.5 8 39.5 8c12 0 23 -2.66699 33 -8s18.667 -12.333 26 -21s13 -18.667 17 -30s6 -22.666 6 -33.999z" />
    <glyph glyph-name="Igrave" unicode="&#xcc;" horiz-adv-x="521" 
d="M460 734c-3.33301 -40.667 -4.66992 -81.1689 -4.00293 -121.502s0.333984 -80.5 -0.999023 -120.5l-111 4c-0.666992 -23.333 -1.16699 -46.333 -1.5 -69s-0.5 -45.667 -0.5 -69c0 -28 0.166992 -55.5 0.5 -82.5s0.833008 -54.5 1.5 -82.5l102 -2
c-1.33301 -19.333 -2 -39 -2 -59v-60c0 -16.667 0.5 -33.334 1.5 -50.001s3.16699 -33 6.5 -49l-359 -6c0 32.667 -0.333008 64.834 -1 96.501s-2 63.834 -4 96.501l65 1c-3.33301 62.667 -7.16602 124.667 -11.499 186l-13.5 185l-95 12c-1.33301 28 -2.5 55.833 -3.5 83.5
s-2.16699 55.5 -3.5 83.5c72.667 2.66699 144.834 5.83398 216.501 9.50098s144.167 8.16699 217.5 13.5zM328.996 873.998l-36.002 -56l-53.5 30c-16.333 9.33301 -32.166 19 -47.499 29s-30.666 20.833 -45.999 32.5s-31.333 24.5 -48 38.5l72 99l47 -48
c16 -16 31.333 -33 46 -51c10.667 -13.333 21.5 -26 32.5 -38z" />
    <glyph glyph-name="Iacute" unicode="&#xcd;" horiz-adv-x="521" 
d="M460 734c-3.33301 -40.667 -4.66992 -81.1689 -4.00293 -121.502s0.333984 -80.5 -0.999023 -120.5l-111 4c-0.666992 -23.333 -1.16699 -46.333 -1.5 -69s-0.5 -45.667 -0.5 -69c0 -28 0.166992 -55.5 0.5 -82.5s0.833008 -54.5 1.5 -82.5l102 -2
c-1.33301 -19.333 -2 -39 -2 -59v-60c0 -16.667 0.5 -33.334 1.5 -50.001s3.16699 -33 6.5 -49l-359 -6c0 32.667 -0.333008 64.834 -1 96.501s-2 63.834 -4 96.501l65 1c-3.33301 62.667 -7.16602 124.667 -11.499 186l-13.5 185l-95 12c-1.33301 28 -2.5 55.833 -3.5 83.5
s-2.16699 55.5 -3.5 83.5c72.667 2.66699 144.834 5.83398 216.501 9.50098s144.167 8.16699 217.5 13.5zM410.996 937.998l-47.501 -38.5c-15 -11.667 -30.167 -22.5 -45.5 -32.5s-31.166 -19.667 -47.499 -29l-53.5 -30l-37 56l34.5 36c11 12 21.833 24.667 32.5 38
c14 18 29 35 45 51l48 48z" />
    <glyph glyph-name="Icircumflex" unicode="&#xce;" horiz-adv-x="521" 
d="M460 734c-3.33301 -40.667 -4.66992 -81.1689 -4.00293 -121.502s0.333984 -80.5 -0.999023 -120.5l-111 4c-0.666992 -23.333 -1.16699 -46.333 -1.5 -69s-0.5 -45.667 -0.5 -69c0 -28 0.166992 -55.5 0.5 -82.5s0.833008 -54.5 1.5 -82.5l102 -2
c-1.33301 -19.333 -2 -39 -2 -59v-60c0 -16.667 0.5 -33.334 1.5 -50.001s3.16699 -33 6.5 -49l-359 -6c0 32.667 -0.333008 64.834 -1 96.501s-2 63.834 -4 96.501l65 1c-3.33301 62.667 -7.16602 124.667 -11.499 186l-13.5 185l-95 12c-1.33301 28 -2.5 55.833 -3.5 83.5
s-2.16699 55.5 -3.5 83.5c72.667 2.66699 144.834 5.83398 216.501 9.50098s144.167 8.16699 217.5 13.5zM431.996 851.998l-94 -3.99902l-99 111l-98 -116l-105 -3l99.5 108.5l101.5 105.5c34 -32.667 66.833 -65.834 98.5 -99.501z" />
    <glyph glyph-name="Idieresis" unicode="&#xcf;" horiz-adv-x="521" 
d="M460 734c-3.33301 -40.667 -4.66992 -81.1689 -4.00293 -121.502s0.333984 -80.5 -0.999023 -120.5l-111 4c-0.666992 -23.333 -1.16699 -46.333 -1.5 -69s-0.5 -45.667 -0.5 -69c0 -28 0.166992 -55.5 0.5 -82.5s0.833008 -54.5 1.5 -82.5l102 -2
c-1.33301 -19.333 -2 -39 -2 -59v-60c0 -16.667 0.5 -33.334 1.5 -50.001s3.16699 -33 6.5 -49l-359 -6c0 32.667 -0.333008 64.834 -1 96.501s-2 63.834 -4 96.501l65 1c-3.33301 62.667 -7.16602 124.667 -11.499 186l-13.5 185l-95 12c-1.33301 28 -2.5 55.833 -3.5 83.5
s-2.16699 55.5 -3.5 83.5c72.667 2.66699 144.834 5.83398 216.501 9.50098s144.167 8.16699 217.5 13.5zM466.996 928.998c0 -12.667 -2.49805 -24.5 -7.49805 -35.5s-11.833 -20.667 -20.5 -29s-18.5 -14.833 -29.5 -19.5s-22.833 -7 -35.5 -7c-11.333 0 -22.333 2 -33 6
s-20.334 9.5 -29.001 16.5s-15.667 15.5 -21 25.5s-8 20.667 -8 32c0 14 2.5 27.167 7.5 39.5s12 23.333 21 33s19.667 17.167 32 22.5s25.833 8 40.5 8c12 0 23.167 -2.66699 33.5 -8s19.166 -12.333 26.499 -21s13 -18.5 17 -29.5s6 -22.167 6 -33.5zM225.998 930.998
c0 -25.333 -9.16602 -46.6689 -27.499 -64.002s-40.166 -26 -65.499 -26c-10.667 0 -21.334 2 -32.001 6s-20.334 9.5 -29.001 16.5s-15.667 15.333 -21 25s-8 20.167 -8 31.5c0 14 2.66699 27.333 8 40s12.5 23.834 21.5 33.501s19.667 17.167 32 22.5s25.5 8 39.5 8
c12 0 23 -2.66699 33 -8s18.667 -12.333 26 -21s13 -18.667 17 -30s6 -22.666 6 -33.999z" />
    <glyph glyph-name="Eth" unicode="&#xd0;" horiz-adv-x="870" 
d="M117 349l-75.9961 -0.00195312l4 81c11.333 0.666992 22.333 1 33 1s21.667 0.333008 33 1c-4 49.333 -7.66699 98.5 -11 147.5s-6 98.5 -8 148.5c56.667 -2 112.5 -4.16699 167.5 -6.5s110.833 -5.5 167.5 -9.5c14.667 -1.33301 36.167 -3 64.5 -5s58 -4.83301 89 -8.5
s60 -8.16699 87 -13.5s46.167 -12 57.5 -20c15.333 -11.333 29.166 -26.666 41.499 -45.999s21.166 -38.333 26.499 -57c2.66699 -8.66699 4.66699 -22.167 6 -40.5s2.33301 -37.833 3 -58.5s1.16699 -40.667 1.5 -60s0.5 -34 0.5 -44
c0 -19.333 -0.166992 -39.666 -0.5 -60.999s-2.5 -41.666 -6.5 -60.999c-3.33301 -14.667 -7 -27.5 -11 -38.5s-9 -21 -15 -30s-13.333 -17.333 -22 -25s-19.334 -15.167 -32.001 -22.5c-4 -2.66699 -14.667 -6.16699 -32 -10.5l-64.5 -15.5
c-25.667 -6 -54.334 -12.333 -86.001 -19s-64.167 -13.167 -97.5 -19.5l-98 -19l-88 -17l-67.5 -13c-18.333 -3.66699 -30.5 -5.83398 -36.5 -6.50098l-15.5 174zM426.004 348.998l-137.999 -0.000976562l4 -61l4 -61c12.667 0.666992 30.834 2.5 54.501 5.5s48 7 73 12
s48.167 11.333 69.5 19s36.666 16.834 45.999 27.501c7.33301 8 11.666 16.5 12.999 25.5s2 18.833 2 29.5c0 7.33301 -0.166992 15.166 -0.5 23.499s-0.833008 16.166 -1.5 23.499c-1.33301 10.667 -3 21.834 -5 33.501s-5 23 -9 34s-9 21.333 -15 31
s-13.333 18.167 -22 25.5c-4.66699 4 -16.167 7.16699 -34.5 9.5s-38 4 -59 5s-40.833 1.66699 -59.5 2s-31 0.5 -37 0.5h-41l6 -50.5c2 -16.333 3.66699 -33.166 5 -50.499h137z" />
    <glyph glyph-name="Ntilde" unicode="&#xd1;" horiz-adv-x="933" 
d="M851 322c0 -58.667 -0.166016 -116.499 -0.499023 -173.499s-0.833008 -114.833 -1.5 -173.5c-41.333 2 -82.333 3 -123 3c-20 0 -40.167 -1 -60.5 -3s-40.5 -4.66699 -60.5 -8l-76 164.5l-76 164.5c-18.667 40.667 -36.334 81.334 -53.001 122.001l-50 123l-18.5 -268.5
c-6.33301 -89 -11.5 -178.5 -15.5 -268.5l-216 6c-3.33301 128 -6.33301 255.333 -9 382s-7.33398 254 -14.001 382l391 2c13.333 -33.333 25.833 -66.833 37.5 -100.5s22.834 -67.834 33.501 -102.501c15.333 -52.667 32.666 -104.834 51.999 -156.501l58 -155.5
c-0.666992 83.333 -2.16699 166.333 -4.5 249s-4.16602 166 -5.49902 250l202 -24c2.66699 -69.333 5 -138.333 7 -207s3 -137.667 3 -207zM713.001 941.001c-7.33301 -5.33301 -18.001 -12.499 -32.001 -21.499s-28.5 -17.833 -43.5 -26.5s-29.667 -16.167 -44 -22.5
s-25.833 -9.5 -34.5 -9.5c-10 0 -21.167 3.5 -33.5 10.5s-24.833 14.667 -37.5 23l-36.5 23c-11.667 7 -21.834 10.5 -30.501 10.5c-7.33301 0 -15.666 -2.5 -24.999 -7.5s-18.666 -11.167 -27.999 -18.5s-18 -14.833 -26 -22.5l-19 -18.5l-59 65l30 20.5l44 29.5
c15.333 10 30 18.833 44 26.5s23.667 11.5 29 11.5c9.33301 0 20.333 -3.16699 33 -9.5l39.5 -20.5l40 -20.5c13 -6.33301 24.167 -9.5 33.5 -9.5c6.66699 0 14.5 2 23.5 6s18 8.66699 27 14s17.5 11.166 25.5 17.499l20 15.5z" />
    <glyph glyph-name="Ograve" unicode="&#xd2;" horiz-adv-x="956" 
d="M895 427l-0.00292969 -25.501c0 -8.33301 -0.333008 -16.5 -1 -24.5c-0.666992 -6.66699 -1.5 -18.334 -2.5 -35.001s-2.33301 -35.834 -4 -57.501s-3.66699 -44.5 -6 -68.5s-5 -46.167 -8 -66.5s-6.16699 -37.833 -9.5 -52.5s-6.66602 -23.667 -9.99902 -27
c-20 -20 -43.833 -34.833 -71.5 -44.5s-56.5 -16.167 -86.5 -19.5s-60 -4.66602 -90 -3.99902s-58 1 -84 1c-8.66699 0 -23.334 0.166992 -44.001 0.5s-44.167 0.833008 -70.5 1.5s-53.833 1.83398 -82.5 3.50098s-55.5 4 -80.5 7s-46.667 6.66699 -65 11
s-29.833 9.83301 -34.5 16.5c-5.33301 7.33301 -10 15.333 -14 24s-7.66699 17 -11 25c-8.66699 22 -16.667 45.5 -24 70.5s-13.5 50.667 -18.5 77s-9 52.5 -12 78.5s-4.5 50.667 -4.5 74c0 12.667 1 29.167 3 49.5s4.66699 42.333 8 66s7.33301 47.834 12 72.501
s9.83398 47.667 15.501 69s11.834 39.833 18.501 55.5s14 26.167 22 31.5c6.66699 4.66699 19 9 37 13s39 7.5 63 10.5s49.667 5.66699 77 8s53.333 4.33301 78 6s47 2.83398 67 3.50098s34.667 1 44 1c12.667 0 29.834 -0.666992 51.501 -2s45.167 -3.5 70.5 -6.5
s51 -6.66699 77 -11s50.167 -9.5 72.5 -15.5s41.5 -12.667 57.5 -20s26 -15.333 30 -24c3.33301 -7.33301 6.5 -17.833 9.5 -31.5s5.5 -29.167 7.5 -46.5s3.83301 -35.666 5.5 -54.999s3 -37.833 4 -55.5s1.83301 -33.834 2.5 -48.501s1 -26.334 1 -35.001zM715.997 393.999
c0 13.333 -0.670898 27.5 -2.00391 42.5s-5.66602 28.167 -12.999 39.5c-5.33301 8 -18.166 14.333 -38.499 19s-42.666 8 -66.999 10s-47.833 3.16699 -70.5 3.5s-38.667 0.5 -48 0.5c-7.33301 0 -20.166 -0.666992 -38.499 -2s-37.666 -3.5 -57.999 -6.5
s-39.166 -6.66699 -56.499 -11s-28 -9.5 -32 -15.5c-4 -4.66699 -7.16699 -13.5 -9.5 -26.5s-4.33301 -27 -6 -42s-2.83398 -29.333 -3.50098 -43s-1 -23.5 -1 -29.5c0 -5.33301 0.166992 -13.333 0.5 -24s1.16602 -21.667 2.49902 -33s2.83301 -22 4.5 -32
s4.16699 -17.333 7.5 -22c2 -3.33301 8 -6.33301 18 -9s22.167 -5.16699 36.5 -7.5s29.5 -4.16602 45.5 -5.49902s31.5 -2.5 46.5 -3.5s28.333 -1.66699 40 -2s19.834 -0.5 24.501 -0.5c8 0 21.833 0.666992 41.5 2s40.334 3.5 62.001 6.5s41.667 6.66699 60 11
s30.166 9.5 35.499 15.5c4 4.66699 7.33301 14.5 10 29.5s4.66699 31.333 6 49s2.16602 34.667 2.49902 51s0.5 28.166 0.5 35.499zM613.993 894.999l-36.002 -56l-53.5 30c-16.333 9.33301 -32.166 19 -47.499 29s-30.666 20.833 -45.999 32.5s-31.333 24.5 -48 38.5l72 99
l47 -48c16 -16 31.333 -33 46 -51c10.667 -13.333 21.5 -26 32.5 -38z" />
    <glyph glyph-name="Oacute" unicode="&#xd3;" horiz-adv-x="956" 
d="M895 427l-0.00292969 -25.501c0 -8.33301 -0.333008 -16.5 -1 -24.5c-0.666992 -6.66699 -1.5 -18.334 -2.5 -35.001s-2.33301 -35.834 -4 -57.501s-3.66699 -44.5 -6 -68.5s-5 -46.167 -8 -66.5s-6.16699 -37.833 -9.5 -52.5s-6.66602 -23.667 -9.99902 -27
c-20 -20 -43.833 -34.833 -71.5 -44.5s-56.5 -16.167 -86.5 -19.5s-60 -4.66602 -90 -3.99902s-58 1 -84 1c-8.66699 0 -23.334 0.166992 -44.001 0.5s-44.167 0.833008 -70.5 1.5s-53.833 1.83398 -82.5 3.50098s-55.5 4 -80.5 7s-46.667 6.66699 -65 11
s-29.833 9.83301 -34.5 16.5c-5.33301 7.33301 -10 15.333 -14 24s-7.66699 17 -11 25c-8.66699 22 -16.667 45.5 -24 70.5s-13.5 50.667 -18.5 77s-9 52.5 -12 78.5s-4.5 50.667 -4.5 74c0 12.667 1 29.167 3 49.5s4.66699 42.333 8 66s7.33301 47.834 12 72.501
s9.83398 47.667 15.501 69s11.834 39.833 18.501 55.5s14 26.167 22 31.5c6.66699 4.66699 19 9 37 13s39 7.5 63 10.5s49.667 5.66699 77 8s53.333 4.33301 78 6s47 2.83398 67 3.50098s34.667 1 44 1c12.667 0 29.834 -0.666992 51.501 -2s45.167 -3.5 70.5 -6.5
s51 -6.66699 77 -11s50.167 -9.5 72.5 -15.5s41.5 -12.667 57.5 -20s26 -15.333 30 -24c3.33301 -7.33301 6.5 -17.833 9.5 -31.5s5.5 -29.167 7.5 -46.5s3.83301 -35.666 5.5 -54.999s3 -37.833 4 -55.5s1.83301 -33.834 2.5 -48.501s1 -26.334 1 -35.001zM715.997 393.999
c0 13.333 -0.670898 27.5 -2.00391 42.5s-5.66602 28.167 -12.999 39.5c-5.33301 8 -18.166 14.333 -38.499 19s-42.666 8 -66.999 10s-47.833 3.16699 -70.5 3.5s-38.667 0.5 -48 0.5c-7.33301 0 -20.166 -0.666992 -38.499 -2s-37.666 -3.5 -57.999 -6.5
s-39.166 -6.66699 -56.499 -11s-28 -9.5 -32 -15.5c-4 -4.66699 -7.16699 -13.5 -9.5 -26.5s-4.33301 -27 -6 -42s-2.83398 -29.333 -3.50098 -43s-1 -23.5 -1 -29.5c0 -5.33301 0.166992 -13.333 0.5 -24s1.16602 -21.667 2.49902 -33s2.83301 -22 4.5 -32
s4.16699 -17.333 7.5 -22c2 -3.33301 8 -6.33301 18 -9s22.167 -5.16699 36.5 -7.5s29.5 -4.16602 45.5 -5.49902s31.5 -2.5 46.5 -3.5s28.333 -1.66699 40 -2s19.834 -0.5 24.501 -0.5c8 0 21.833 0.666992 41.5 2s40.334 3.5 62.001 6.5s41.667 6.66699 60 11
s30.166 9.5 35.499 15.5c4 4.66699 7.33301 14.5 10 29.5s4.66699 31.333 6 49s2.16602 34.667 2.49902 51s0.5 28.166 0.5 35.499zM665.993 978.999l-47.501 -38.5c-15 -11.667 -30.167 -22.5 -45.5 -32.5s-31.166 -19.667 -47.499 -29l-53.5 -30l-37 56l34.5 36
c11 12 21.833 24.667 32.5 38c14 18 29 35 45 51l48 48z" />
    <glyph glyph-name="Ocircumflex" unicode="&#xd4;" horiz-adv-x="956" 
d="M895 427l-0.00292969 -25.501c0 -8.33301 -0.333008 -16.5 -1 -24.5c-0.666992 -6.66699 -1.5 -18.334 -2.5 -35.001s-2.33301 -35.834 -4 -57.501s-3.66699 -44.5 -6 -68.5s-5 -46.167 -8 -66.5s-6.16699 -37.833 -9.5 -52.5s-6.66602 -23.667 -9.99902 -27
c-20 -20 -43.833 -34.833 -71.5 -44.5s-56.5 -16.167 -86.5 -19.5s-60 -4.66602 -90 -3.99902s-58 1 -84 1c-8.66699 0 -23.334 0.166992 -44.001 0.5s-44.167 0.833008 -70.5 1.5s-53.833 1.83398 -82.5 3.50098s-55.5 4 -80.5 7s-46.667 6.66699 -65 11
s-29.833 9.83301 -34.5 16.5c-5.33301 7.33301 -10 15.333 -14 24s-7.66699 17 -11 25c-8.66699 22 -16.667 45.5 -24 70.5s-13.5 50.667 -18.5 77s-9 52.5 -12 78.5s-4.5 50.667 -4.5 74c0 12.667 1 29.167 3 49.5s4.66699 42.333 8 66s7.33301 47.834 12 72.501
s9.83398 47.667 15.501 69s11.834 39.833 18.501 55.5s14 26.167 22 31.5c6.66699 4.66699 19 9 37 13s39 7.5 63 10.5s49.667 5.66699 77 8s53.333 4.33301 78 6s47 2.83398 67 3.50098s34.667 1 44 1c12.667 0 29.834 -0.666992 51.501 -2s45.167 -3.5 70.5 -6.5
s51 -6.66699 77 -11s50.167 -9.5 72.5 -15.5s41.5 -12.667 57.5 -20s26 -15.333 30 -24c3.33301 -7.33301 6.5 -17.833 9.5 -31.5s5.5 -29.167 7.5 -46.5s3.83301 -35.666 5.5 -54.999s3 -37.833 4 -55.5s1.83301 -33.834 2.5 -48.501s1 -26.334 1 -35.001zM715.997 393.999
c0 13.333 -0.670898 27.5 -2.00391 42.5s-5.66602 28.167 -12.999 39.5c-5.33301 8 -18.166 14.333 -38.499 19s-42.666 8 -66.999 10s-47.833 3.16699 -70.5 3.5s-38.667 0.5 -48 0.5c-7.33301 0 -20.166 -0.666992 -38.499 -2s-37.666 -3.5 -57.999 -6.5
s-39.166 -6.66699 -56.499 -11s-28 -9.5 -32 -15.5c-4 -4.66699 -7.16699 -13.5 -9.5 -26.5s-4.33301 -27 -6 -42s-2.83398 -29.333 -3.50098 -43s-1 -23.5 -1 -29.5c0 -5.33301 0.166992 -13.333 0.5 -24s1.16602 -21.667 2.49902 -33s2.83301 -22 4.5 -32
s4.16699 -17.333 7.5 -22c2 -3.33301 8 -6.33301 18 -9s22.167 -5.16699 36.5 -7.5s29.5 -4.16602 45.5 -5.49902s31.5 -2.5 46.5 -3.5s28.333 -1.66699 40 -2s19.834 -0.5 24.501 -0.5c8 0 21.833 0.666992 41.5 2s40.334 3.5 62.001 6.5s41.667 6.66699 60 11
s30.166 9.5 35.499 15.5c4 4.66699 7.33301 14.5 10 29.5s4.66699 31.333 6 49s2.16602 34.667 2.49902 51s0.5 28.166 0.5 35.499zM707.993 871.999l-94 -3.99902l-99 111l-98 -116l-105 -3l99.5 108.5l101.5 105.5c34 -32.667 66.833 -65.834 98.5 -99.501z" />
    <glyph glyph-name="Otilde" unicode="&#xd5;" horiz-adv-x="956" 
d="M895 427l-0.00292969 -25.501c0 -8.33301 -0.333008 -16.5 -1 -24.5c-0.666992 -6.66699 -1.5 -18.334 -2.5 -35.001s-2.33301 -35.834 -4 -57.501s-3.66699 -44.5 -6 -68.5s-5 -46.167 -8 -66.5s-6.16699 -37.833 -9.5 -52.5s-6.66602 -23.667 -9.99902 -27
c-20 -20 -43.833 -34.833 -71.5 -44.5s-56.5 -16.167 -86.5 -19.5s-60 -4.66602 -90 -3.99902s-58 1 -84 1c-8.66699 0 -23.334 0.166992 -44.001 0.5s-44.167 0.833008 -70.5 1.5s-53.833 1.83398 -82.5 3.50098s-55.5 4 -80.5 7s-46.667 6.66699 -65 11
s-29.833 9.83301 -34.5 16.5c-5.33301 7.33301 -10 15.333 -14 24s-7.66699 17 -11 25c-8.66699 22 -16.667 45.5 -24 70.5s-13.5 50.667 -18.5 77s-9 52.5 -12 78.5s-4.5 50.667 -4.5 74c0 12.667 1 29.167 3 49.5s4.66699 42.333 8 66s7.33301 47.834 12 72.501
s9.83398 47.667 15.501 69s11.834 39.833 18.501 55.5s14 26.167 22 31.5c6.66699 4.66699 19 9 37 13s39 7.5 63 10.5s49.667 5.66699 77 8s53.333 4.33301 78 6s47 2.83398 67 3.50098s34.667 1 44 1c12.667 0 29.834 -0.666992 51.501 -2s45.167 -3.5 70.5 -6.5
s51 -6.66699 77 -11s50.167 -9.5 72.5 -15.5s41.5 -12.667 57.5 -20s26 -15.333 30 -24c3.33301 -7.33301 6.5 -17.833 9.5 -31.5s5.5 -29.167 7.5 -46.5s3.83301 -35.666 5.5 -54.999s3 -37.833 4 -55.5s1.83301 -33.834 2.5 -48.501s1 -26.334 1 -35.001zM715.997 393.999
c0 13.333 -0.670898 27.5 -2.00391 42.5s-5.66602 28.167 -12.999 39.5c-5.33301 8 -18.166 14.333 -38.499 19s-42.666 8 -66.999 10s-47.833 3.16699 -70.5 3.5s-38.667 0.5 -48 0.5c-7.33301 0 -20.166 -0.666992 -38.499 -2s-37.666 -3.5 -57.999 -6.5
s-39.166 -6.66699 -56.499 -11s-28 -9.5 -32 -15.5c-4 -4.66699 -7.16699 -13.5 -9.5 -26.5s-4.33301 -27 -6 -42s-2.83398 -29.333 -3.50098 -43s-1 -23.5 -1 -29.5c0 -5.33301 0.166992 -13.333 0.5 -24s1.16602 -21.667 2.49902 -33s2.83301 -22 4.5 -32
s4.16699 -17.333 7.5 -22c2 -3.33301 8 -6.33301 18 -9s22.167 -5.16699 36.5 -7.5s29.5 -4.16602 45.5 -5.49902s31.5 -2.5 46.5 -3.5s28.333 -1.66699 40 -2s19.834 -0.5 24.501 -0.5c8 0 21.833 0.666992 41.5 2s40.334 3.5 62.001 6.5s41.667 6.66699 60 11
s30.166 9.5 35.499 15.5c4 4.66699 7.33301 14.5 10 29.5s4.66699 31.333 6 49s2.16602 34.667 2.49902 51s0.5 28.166 0.5 35.499zM733.993 940.999c-7.33301 -5.33301 -18.001 -12.499 -32.001 -21.499s-28.5 -17.833 -43.5 -26.5s-29.667 -16.167 -44 -22.5
s-25.833 -9.5 -34.5 -9.5c-10 0 -21.167 3.5 -33.5 10.5s-24.833 14.667 -37.5 23l-36.5 23c-11.667 7 -21.834 10.5 -30.501 10.5c-7.33301 0 -15.666 -2.5 -24.999 -7.5s-18.666 -11.167 -27.999 -18.5s-18 -14.833 -26 -22.5l-19 -18.5l-59 65l30 20.5l44 29.5
c15.333 10 30 18.833 44 26.5s23.667 11.5 29 11.5c9.33301 0 20.333 -3.16699 33 -9.5l39.5 -20.5l40 -20.5c13 -6.33301 24.167 -9.5 33.5 -9.5c6.66699 0 14.5 2 23.5 6s18 8.66699 27 14s17.5 11.166 25.5 17.499l20 15.5z" />
    <glyph glyph-name="Odieresis" unicode="&#xd6;" horiz-adv-x="956" 
d="M895 427l-0.00292969 -25.501c0 -8.33301 -0.333008 -16.5 -1 -24.5c-0.666992 -6.66699 -1.5 -18.334 -2.5 -35.001s-2.33301 -35.834 -4 -57.501s-3.66699 -44.5 -6 -68.5s-5 -46.167 -8 -66.5s-6.16699 -37.833 -9.5 -52.5s-6.66602 -23.667 -9.99902 -27
c-20 -20 -43.833 -34.833 -71.5 -44.5s-56.5 -16.167 -86.5 -19.5s-60 -4.66602 -90 -3.99902s-58 1 -84 1c-8.66699 0 -23.334 0.166992 -44.001 0.5s-44.167 0.833008 -70.5 1.5s-53.833 1.83398 -82.5 3.50098s-55.5 4 -80.5 7s-46.667 6.66699 -65 11
s-29.833 9.83301 -34.5 16.5c-5.33301 7.33301 -10 15.333 -14 24s-7.66699 17 -11 25c-8.66699 22 -16.667 45.5 -24 70.5s-13.5 50.667 -18.5 77s-9 52.5 -12 78.5s-4.5 50.667 -4.5 74c0 12.667 1 29.167 3 49.5s4.66699 42.333 8 66s7.33301 47.834 12 72.501
s9.83398 47.667 15.501 69s11.834 39.833 18.501 55.5s14 26.167 22 31.5c6.66699 4.66699 19 9 37 13s39 7.5 63 10.5s49.667 5.66699 77 8s53.333 4.33301 78 6s47 2.83398 67 3.50098s34.667 1 44 1c12.667 0 29.834 -0.666992 51.501 -2s45.167 -3.5 70.5 -6.5
s51 -6.66699 77 -11s50.167 -9.5 72.5 -15.5s41.5 -12.667 57.5 -20s26 -15.333 30 -24c3.33301 -7.33301 6.5 -17.833 9.5 -31.5s5.5 -29.167 7.5 -46.5s3.83301 -35.666 5.5 -54.999s3 -37.833 4 -55.5s1.83301 -33.834 2.5 -48.501s1 -26.334 1 -35.001zM715.997 393.999
c0 13.333 -0.670898 27.5 -2.00391 42.5s-5.66602 28.167 -12.999 39.5c-5.33301 8 -18.166 14.333 -38.499 19s-42.666 8 -66.999 10s-47.833 3.16699 -70.5 3.5s-38.667 0.5 -48 0.5c-7.33301 0 -20.166 -0.666992 -38.499 -2s-37.666 -3.5 -57.999 -6.5
s-39.166 -6.66699 -56.499 -11s-28 -9.5 -32 -15.5c-4 -4.66699 -7.16699 -13.5 -9.5 -26.5s-4.33301 -27 -6 -42s-2.83398 -29.333 -3.50098 -43s-1 -23.5 -1 -29.5c0 -5.33301 0.166992 -13.333 0.5 -24s1.16602 -21.667 2.49902 -33s2.83301 -22 4.5 -32
s4.16699 -17.333 7.5 -22c2 -3.33301 8 -6.33301 18 -9s22.167 -5.16699 36.5 -7.5s29.5 -4.16602 45.5 -5.49902s31.5 -2.5 46.5 -3.5s28.333 -1.66699 40 -2s19.834 -0.5 24.501 -0.5c8 0 21.833 0.666992 41.5 2s40.334 3.5 62.001 6.5s41.667 6.66699 60 11
s30.166 9.5 35.499 15.5c4 4.66699 7.33301 14.5 10 29.5s4.66699 31.333 6 49s2.16602 34.667 2.49902 51s0.5 28.166 0.5 35.499zM721.993 948.999c0 -12.667 -2.49805 -24.5 -7.49805 -35.5s-11.833 -20.667 -20.5 -29s-18.5 -14.833 -29.5 -19.5s-22.833 -7 -35.5 -7
c-11.333 0 -22.333 2 -33 6s-20.334 9.5 -29.001 16.5s-15.667 15.5 -21 25.5s-8 20.667 -8 32c0 14 2.5 27.167 7.5 39.5s12 23.333 21 33s19.667 17.167 32 22.5s25.833 8 40.5 8c12 0 23.167 -2.66699 33.5 -8s19.166 -12.333 26.499 -21s13 -18.5 17 -29.5
s6 -22.167 6 -33.5zM480.995 950.999c0 -25.333 -9.16602 -46.6689 -27.499 -64.002s-40.166 -26 -65.499 -26c-10.667 0 -21.334 2 -32.001 6s-20.334 9.5 -29.001 16.5s-15.667 15.333 -21 25s-8 20.167 -8 31.5c0 14 2.66699 27.333 8 40s12.5 23.834 21.5 33.501
s19.667 17.167 32 22.5s25.5 8 39.5 8c12 0 23 -2.66699 33 -8s18.667 -12.333 26 -21s13 -18.667 17 -30s6 -22.666 6 -33.999z" />
    <glyph glyph-name="multiply" unicode="&#xd7;" horiz-adv-x="462" 
d="M431 242l-64.998 -66.001l-68 79l-69 77c-23.333 -26.667 -45.833 -54 -67.5 -82l-64.5 -85l-66 55l75 81.5l74 82.5c-22 30.667 -45.333 60 -70 88l-73 85l69 54l63 -84c9.33301 -13.333 20.166 -26.166 32.499 -38.499l36.5 -35.5l58 81.5l56 83.5l67 -59l-37 -40
l-33 -38l-31.5 -39l-33.5 -43c23.333 -28 47.166 -54.667 71.499 -80z" />
    <glyph glyph-name="Oslash" unicode="&#xd8;" horiz-adv-x="734" 
d="M765 748l-97.0039 -107.998c3.33301 -46 5.5 -91.667 6.5 -137s1.5 -91 1.5 -137c0 -13.333 -0.333008 -31.333 -1 -54s-2.16699 -45.834 -4.5 -69.501s-6 -46 -11 -67s-11.5 -36.5 -19.5 -46.5c-26.667 -33.333 -52.167 -58.333 -76.5 -75s-49.666 -28.667 -75.999 -36
s-54.833 -11.166 -85.5 -11.499s-66 -0.5 -106 -0.5h-25.5c-11 0 -22.5 0.5 -34.5 1.5s-23.167 2.16699 -33.5 3.5s-18.166 3.66602 -23.499 6.99902c-9.33301 6 -18.5 14.833 -27.5 26.5s-15.167 22.5 -18.5 32.5l-108 -109c-7.33301 6 -13.666 11.667 -18.999 17
s-10.166 10.666 -14.499 15.999s-8.16602 11.333 -11.499 18l-11 23l132 134c-3.33301 19.333 -6.33301 40.166 -9 62.499s-5.16699 45 -7.5 68s-4.16602 45.667 -5.49902 68s-2 43.5 -2 63.5c0 12 0.666992 28.833 2 50.5s3.5 44.167 6.5 67.5s6.83301 45.166 11.5 65.499
s10.667 35.5 18 45.5c16.667 22.667 35.667 40.5 57 53.5s44.166 22.833 68.499 29.5s49.666 10.834 75.999 12.501s52.833 2.5 79.5 2.5c12 0 27.167 -0.5 45.5 -1.5s37 -3 56 -6s36.833 -7 53.5 -12s29 -11.5 37 -19.5l90 95c20.667 -8.66699 37 -18.667 49 -30
s24.667 -25.666 38 -42.999zM474.996 595.002c0 12.667 -2.00098 22.667 -6.00098 30s-9.5 12.833 -16.5 16.5s-15 5.83398 -24 6.50098s-18.833 1 -29.5 1c-8.66699 0 -18.5 -0.333008 -29.5 -1s-22 -2 -33 -4s-21.667 -4.66699 -32 -8s-19.166 -8 -26.499 -14
c-5.33301 -4 -9.5 -13.667 -12.5 -29s-5.16699 -31.833 -6.5 -49.5s-2.33301 -34.334 -3 -50.001s-1 -26.167 -1 -31.5c0 -22.667 0.5 -45.167 1.5 -67.5s2.16699 -44.5 3.5 -66.5zM493.995 454.002l-228 -275.997c0 -2 0.166992 -5.66699 0.5 -11
s1.16602 -10.833 2.49902 -16.5s3.16602 -10.834 5.49902 -15.501s5.16602 -7.66699 8.49902 -9s8.5 -2.33301 15.5 -3s14.5 -1.33398 22.5 -2.00098s15.667 -1 23 -1h17h19.5c7.66699 0 15.334 0.5 23.001 1.5s15.167 2.16699 22.5 3.5s13 3.66602 17 6.99902
c6 4.66699 11.5 14.667 16.5 30s9.33301 33.5 13 54.5s6.83398 43.5 9.50098 67.5s4.83398 47.167 6.50098 69.5s3 42.5 4 60.5s1.5 31.333 1.5 40z" />
    <glyph glyph-name="Ugrave" unicode="&#xd9;" horiz-adv-x="890" 
d="M818 330c0 -38 -0.831055 -75.668 -2.49805 -113.001s-5.16699 -75 -10.5 -113c-10.667 -8 -21.334 -15.5 -32.001 -22.5l-33 -22.5l-30.5 -20.5c-11 -7.66699 -22.5 -15.167 -34.5 -22.5s-24.167 -13.833 -36.5 -19.5s-23.833 -9.5 -34.5 -11.5
c-10 -2.66699 -23.333 -3.83398 -40 -3.50098s-30.667 0.5 -42 0.5c-28 -1.33301 -56 -2.33301 -84 -3s-56.667 -1 -86 -1c-13.333 0 -28.666 -0.166992 -45.999 -0.5s-33 1.16699 -47 4.5c-4 0.666992 -10.667 3.83398 -20 9.50098s-19.833 12.667 -31.5 21l-36.5 27
l-36.5 28l-30 24l-17.5 14.5c-3.33301 35.333 -5.83301 70.5 -7.5 105.5s-2.5 70.167 -2.5 105.5c0 68.667 2.5 136.667 7.5 204s10.5 135 16.5 203l206 5c-6.66699 -42.667 -11.334 -87.834 -14.001 -135.501s-4 -93.5 -4 -137.5c0 -7.33301 0.333008 -20.166 1 -38.499
s2 -37.833 4 -58.5s4.5 -39.667 7.5 -57s6.83301 -28.666 11.5 -33.999c2 -2 7.16699 -3.83301 15.5 -5.5s18.333 -3.16699 30 -4.5s24.167 -2.33301 37.5 -3s26 -1.16699 38 -1.5s22.667 -0.666016 32 -0.999023s16 -0.5 20 -0.5h17c8 0 16.167 0.166992 24.5 0.5
s16.166 0.833008 23.499 1.5s12.333 2 15 4c8 5.33301 14 18.333 18 39s7 43.334 9 68.001s3 48.334 3 71.001v49c0 15.333 0.166992 30.666 0.5 45.999s0.5 30.666 0.5 45.999c0 31.333 -0.333008 62.166 -1 92.499s-1.66699 61.166 -3 92.499
c14 -1.33301 27.833 -2.16602 41.5 -2.49902s27.5 -0.5 41.5 -0.5c16.667 0 33.167 0.333008 49.5 1s32.5 2.66699 48.5 6c14 -71.333 24.833 -143.5 32.5 -216.5s11.5 -146.167 11.5 -219.5zM523.002 853.999l-36.002 -56l-53.5 30c-16.333 9.33301 -32.166 19 -47.499 29
s-30.666 20.833 -45.999 32.5s-31.333 24.5 -48 38.5l72 99l47 -48c16 -16 31.333 -33 46 -51c10.667 -13.333 21.5 -26 32.5 -38z" />
    <glyph glyph-name="Uacute" unicode="&#xda;" horiz-adv-x="890" 
d="M818 330c0 -38 -0.831055 -75.668 -2.49805 -113.001s-5.16699 -75 -10.5 -113c-10.667 -8 -21.334 -15.5 -32.001 -22.5l-33 -22.5l-30.5 -20.5c-11 -7.66699 -22.5 -15.167 -34.5 -22.5s-24.167 -13.833 -36.5 -19.5s-23.833 -9.5 -34.5 -11.5
c-10 -2.66699 -23.333 -3.83398 -40 -3.50098s-30.667 0.5 -42 0.5c-28 -1.33301 -56 -2.33301 -84 -3s-56.667 -1 -86 -1c-13.333 0 -28.666 -0.166992 -45.999 -0.5s-33 1.16699 -47 4.5c-4 0.666992 -10.667 3.83398 -20 9.50098s-19.833 12.667 -31.5 21l-36.5 27
l-36.5 28l-30 24l-17.5 14.5c-3.33301 35.333 -5.83301 70.5 -7.5 105.5s-2.5 70.167 -2.5 105.5c0 68.667 2.5 136.667 7.5 204s10.5 135 16.5 203l206 5c-6.66699 -42.667 -11.334 -87.834 -14.001 -135.501s-4 -93.5 -4 -137.5c0 -7.33301 0.333008 -20.166 1 -38.499
s2 -37.833 4 -58.5s4.5 -39.667 7.5 -57s6.83301 -28.666 11.5 -33.999c2 -2 7.16699 -3.83301 15.5 -5.5s18.333 -3.16699 30 -4.5s24.167 -2.33301 37.5 -3s26 -1.16699 38 -1.5s22.667 -0.666016 32 -0.999023s16 -0.5 20 -0.5h17c8 0 16.167 0.166992 24.5 0.5
s16.166 0.833008 23.499 1.5s12.333 2 15 4c8 5.33301 14 18.333 18 39s7 43.334 9 68.001s3 48.334 3 71.001v49c0 15.333 0.166992 30.666 0.5 45.999s0.5 30.666 0.5 45.999c0 31.333 -0.333008 62.166 -1 92.499s-1.66699 61.166 -3 92.499
c14 -1.33301 27.833 -2.16602 41.5 -2.49902s27.5 -0.5 41.5 -0.5c16.667 0 33.167 0.333008 49.5 1s32.5 2.66699 48.5 6c14 -71.333 24.833 -143.5 32.5 -216.5s11.5 -146.167 11.5 -219.5zM625.002 917.999l-47.501 -38.5c-15 -11.667 -30.167 -22.5 -45.5 -32.5
s-31.166 -19.667 -47.499 -29l-53.5 -30l-37 56l34.5 36c11 12 21.833 24.667 32.5 38c14 18 29 35 45 51l48 48z" />
    <glyph glyph-name="Ucircumflex" unicode="&#xdb;" horiz-adv-x="890" 
d="M818 330c0 -38 -0.831055 -75.668 -2.49805 -113.001s-5.16699 -75 -10.5 -113c-10.667 -8 -21.334 -15.5 -32.001 -22.5l-33 -22.5l-30.5 -20.5c-11 -7.66699 -22.5 -15.167 -34.5 -22.5s-24.167 -13.833 -36.5 -19.5s-23.833 -9.5 -34.5 -11.5
c-10 -2.66699 -23.333 -3.83398 -40 -3.50098s-30.667 0.5 -42 0.5c-28 -1.33301 -56 -2.33301 -84 -3s-56.667 -1 -86 -1c-13.333 0 -28.666 -0.166992 -45.999 -0.5s-33 1.16699 -47 4.5c-4 0.666992 -10.667 3.83398 -20 9.50098s-19.833 12.667 -31.5 21l-36.5 27
l-36.5 28l-30 24l-17.5 14.5c-3.33301 35.333 -5.83301 70.5 -7.5 105.5s-2.5 70.167 -2.5 105.5c0 68.667 2.5 136.667 7.5 204s10.5 135 16.5 203l206 5c-6.66699 -42.667 -11.334 -87.834 -14.001 -135.501s-4 -93.5 -4 -137.5c0 -7.33301 0.333008 -20.166 1 -38.499
s2 -37.833 4 -58.5s4.5 -39.667 7.5 -57s6.83301 -28.666 11.5 -33.999c2 -2 7.16699 -3.83301 15.5 -5.5s18.333 -3.16699 30 -4.5s24.167 -2.33301 37.5 -3s26 -1.16699 38 -1.5s22.667 -0.666016 32 -0.999023s16 -0.5 20 -0.5h17c8 0 16.167 0.166992 24.5 0.5
s16.166 0.833008 23.499 1.5s12.333 2 15 4c8 5.33301 14 18.333 18 39s7 43.334 9 68.001s3 48.334 3 71.001v49c0 15.333 0.166992 30.666 0.5 45.999s0.5 30.666 0.5 45.999c0 31.333 -0.333008 62.166 -1 92.499s-1.66699 61.166 -3 92.499
c14 -1.33301 27.833 -2.16602 41.5 -2.49902s27.5 -0.5 41.5 -0.5c16.667 0 33.167 0.333008 49.5 1s32.5 2.66699 48.5 6c14 -71.333 24.833 -143.5 32.5 -216.5s11.5 -146.167 11.5 -219.5zM627.002 851.999l-94 -3.99902l-99 111l-98 -116l-105 -3l99.5 108.5
l101.5 105.5c34 -32.667 66.833 -65.834 98.5 -99.501z" />
    <glyph glyph-name="Udieresis" unicode="&#xdc;" horiz-adv-x="890" 
d="M818 330c0 -38 -0.831055 -75.668 -2.49805 -113.001s-5.16699 -75 -10.5 -113c-10.667 -8 -21.334 -15.5 -32.001 -22.5l-33 -22.5l-30.5 -20.5c-11 -7.66699 -22.5 -15.167 -34.5 -22.5s-24.167 -13.833 -36.5 -19.5s-23.833 -9.5 -34.5 -11.5
c-10 -2.66699 -23.333 -3.83398 -40 -3.50098s-30.667 0.5 -42 0.5c-28 -1.33301 -56 -2.33301 -84 -3s-56.667 -1 -86 -1c-13.333 0 -28.666 -0.166992 -45.999 -0.5s-33 1.16699 -47 4.5c-4 0.666992 -10.667 3.83398 -20 9.50098s-19.833 12.667 -31.5 21l-36.5 27
l-36.5 28l-30 24l-17.5 14.5c-3.33301 35.333 -5.83301 70.5 -7.5 105.5s-2.5 70.167 -2.5 105.5c0 68.667 2.5 136.667 7.5 204s10.5 135 16.5 203l206 5c-6.66699 -42.667 -11.334 -87.834 -14.001 -135.501s-4 -93.5 -4 -137.5c0 -7.33301 0.333008 -20.166 1 -38.499
s2 -37.833 4 -58.5s4.5 -39.667 7.5 -57s6.83301 -28.666 11.5 -33.999c2 -2 7.16699 -3.83301 15.5 -5.5s18.333 -3.16699 30 -4.5s24.167 -2.33301 37.5 -3s26 -1.16699 38 -1.5s22.667 -0.666016 32 -0.999023s16 -0.5 20 -0.5h17c8 0 16.167 0.166992 24.5 0.5
s16.166 0.833008 23.499 1.5s12.333 2 15 4c8 5.33301 14 18.333 18 39s7 43.334 9 68.001s3 48.334 3 71.001v49c0 15.333 0.166992 30.666 0.5 45.999s0.5 30.666 0.5 45.999c0 31.333 -0.333008 62.166 -1 92.499s-1.66699 61.166 -3 92.499
c14 -1.33301 27.833 -2.16602 41.5 -2.49902s27.5 -0.5 41.5 -0.5c16.667 0 33.167 0.333008 49.5 1s32.5 2.66699 48.5 6c14 -71.333 24.833 -143.5 32.5 -216.5s11.5 -146.167 11.5 -219.5zM661.002 928.999c0 -12.667 -2.49805 -24.5 -7.49805 -35.5
s-11.833 -20.667 -20.5 -29s-18.5 -14.833 -29.5 -19.5s-22.833 -7 -35.5 -7c-11.333 0 -22.333 2 -33 6s-20.334 9.5 -29.001 16.5s-15.667 15.5 -21 25.5s-8 20.667 -8 32c0 14 2.5 27.167 7.5 39.5s12 23.333 21 33s19.667 17.167 32 22.5s25.833 8 40.5 8
c12 0 23.167 -2.66699 33.5 -8s19.166 -12.333 26.499 -21s13 -18.5 17 -29.5s6 -22.167 6 -33.5zM420.004 930.999c0 -25.333 -9.16602 -46.6689 -27.499 -64.002s-40.166 -26 -65.499 -26c-10.667 0 -21.334 2 -32.001 6s-20.334 9.5 -29.001 16.5s-15.667 15.333 -21 25
s-8 20.167 -8 31.5c0 14 2.66699 27.333 8 40s12.5 23.834 21.5 33.501s19.667 17.167 32 22.5s25.5 8 39.5 8c12 0 23 -2.66699 33 -8s18.667 -12.333 26 -21s13 -18.667 17 -30s6 -22.666 6 -33.999z" />
    <glyph glyph-name="Yacute" unicode="&#xdd;" horiz-adv-x="824" 
d="M758 249c0 -24 -3.66406 -49.1621 -10.9971 -75.4951s-18 -51 -32 -74s-31.167 -43 -51.5 -60s-43.166 -28.167 -68.499 -33.5c-10 -2 -21.833 -3.66699 -35.5 -5s-27.834 -2.33301 -42.501 -3l-43.5 -2c-14.333 -0.666992 -26.5 -1 -36.5 -1
c-57.333 -2.66699 -114.666 -4.16699 -171.999 -4.5s-115 -0.5 -173 -0.5c-2.66699 27.333 -5.16699 54.333 -7.5 81s-5.5 54 -9.5 82c46 2 91.833 4.16699 137.5 6.5s91.5 5.16602 137.5 8.49902c10 0.666992 21.167 1 33.5 1s25 0.333008 38 1s25.667 1.5 38 2.5
s23.166 2.5 32.499 4.5c4 0.666992 8.83301 1.83398 14.5 3.50098s10.834 4 15.501 7s8.66699 6.5 12 10.5s5 9 5 15c0 14 -1.5 29.5 -4.5 46.5s-5.16699 32.167 -6.5 45.5l-150.5 -13.5c-50.333 -4.33301 -100.833 -6.5 -151.5 -6.5
c-34.667 0 -62.334 9.83301 -83.001 29.5s-35.667 45.5 -45 77.5c-2 7.33301 -3.83301 16.166 -5.5 26.499s-3 21 -4 32s-1.83301 21.833 -2.5 32.5s-1.33398 19.667 -2.00098 27c-3.33301 44 -5.83301 87.333 -7.5 130s-3.16699 86 -4.5 130
c32 -3.33301 64.167 -6.33301 96.5 -9s64.5 -5 96.5 -7c0 -31.333 0.833008 -64.5 2.5 -99.5s5.83398 -67.5 12.501 -97.5c3.33301 -16 9.66602 -29.833 18.999 -41.5s20.5 -21.334 33.5 -29.001s27 -13.334 42 -17.001s30.167 -5.5 45.5 -5.5c18 0 36 1.83301 54 5.5
s35.333 8.16699 52 13.5c-2.66699 50 -4.83398 99.333 -6.50098 148s-4.83398 97.667 -9.50098 147c20 0.666992 40 1.5 60 2.5s40 1.5 60 1.5c31.333 0 63 -3 95 -9c0 -28.667 0.5 -57.334 1.5 -86.001s2.16699 -57.334 3.5 -86.001c1.33301 -13.333 2.5 -26.833 3.5 -40.5
s1.83301 -27.167 2.5 -40.5c2.66699 -45.333 7 -90.5 13 -135.5s9 -90.167 9 -135.5zM554.003 969.005l-47.501 -38.5c-15 -11.667 -30.167 -22.5 -45.5 -32.5s-31.166 -19.667 -47.499 -29l-53.5 -30l-37 56l34.5 36c11 12 21.833 24.667 32.5 38c14 18 29 35 45 51l48 48z
" />
    <glyph glyph-name="Thorn" unicode="&#xde;" horiz-adv-x="862" 
d="M806 364c0 -29.333 -2.5 -56.0039 -7.5 -80.0039s-13.5 -45 -25.5 -63s-28.333 -33 -49 -45s-46.667 -20.333 -78 -25c-21.333 -3.33301 -43 -5.83301 -65 -7.5s-44 -2.5 -66 -2.5c-38 0 -76.333 2 -115 6s-77 9 -115 15l-6 -209c-19.333 -1.33301 -38.166 -2 -56.499 -2
h-56.5h-32.5c-10.333 0 -21.166 -0.666992 -32.499 -2c2 57.333 4.33301 114.333 7 171s4 114 4 172v11c0 32.667 -1 65 -3 97s-3.66699 64.333 -5 97c-1.33301 54.667 -3.16602 109.334 -5.49902 164.001s-4.5 109 -6.5 163c30 2.66699 59.167 4.83398 87.5 6.50098
s57.166 2.83398 86.499 3.50098l15 -196c50 5.33301 100.5 10.333 151.5 15s102.167 7 153.5 7c18 0 37.167 -2 57.5 -6s39.666 -10.333 57.999 -19s34.666 -19.667 48.999 -33s24.5 -29.333 30.5 -48c4.66699 -13.333 8.5 -28.166 11.5 -44.499s5.5 -33 7.5 -50
s3.5 -33.667 4.5 -50s1.5 -31.5 1.5 -45.5zM608 381.996c0 7.33301 -0.668945 15.667 -2.00195 25s-4.66602 17.333 -9.99902 24c-13.333 15.333 -29.833 27 -49.5 35s-39.5 12 -59.5 12c-32.667 0 -67.5 -2.66699 -104.5 -8s-71.5 -11.333 -103.5 -18l5 -159
c25.333 -7.33301 52 -14.166 80 -20.499s55 -9.5 81 -9.5h31c14 0 28.5 0.333008 43.5 1s28.833 2.16699 41.5 4.5s21 6.16602 25 11.499c4 4.66699 7.33301 11.5 10 20.5s4.83398 18.5 6.50098 28.5s3 19.833 4 29.5s1.5 17.5 1.5 23.5z" />
    <glyph glyph-name="germandbls" unicode="&#xdf;" horiz-adv-x="1014" 
d="M973 205c0 -10.667 -0.668945 -23.3213 -2.00195 -37.9883s-3.83301 -29.334 -7.5 -44.001s-8.5 -28.5 -14.5 -41.5s-13.333 -22.833 -22 -29.5c-10 -8 -26.333 -14.667 -49 -20s-46.834 -9.66602 -72.501 -12.999s-50.334 -5.66602 -74.001 -6.99902
s-41.834 -2 -54.501 -2c-44 0 -88 2.5 -132 7.5s-88 10.5 -132 16.5v191c32 -6.66699 64.5 -11.334 97.5 -14.001s65.5 -4.66699 97.5 -6c19.333 -1.33301 38.333 -2.5 57 -3.5s37.667 -1.5 57 -1.5c4 0 11.833 0.333008 23.5 1s23.834 1.83398 36.501 3.50098
s24.5 4 35.5 7s17.5 6.83301 19.5 11.5c1.33301 5.33301 2 10 2 14c0 4.66699 -0.833008 11.5 -2.5 20.5s-4.16699 15.167 -7.5 18.5c-0.666992 0.666992 -3.5 1.16699 -8.5 1.5s-10.667 0.666016 -17 0.999023s-12.333 0.666016 -18 0.999023s-9.16699 0.5 -10.5 0.5
c-20.667 0.666992 -43 1.16699 -67 1.5s-48.167 1.16602 -72.5 2.49902s-48.166 3.16602 -71.499 5.49902s-45 5.83301 -65 10.5c-13.333 2.66699 -25.166 5.66699 -35.499 9s-19.333 7.66602 -27 12.999s-14.167 12.166 -19.5 20.499s-9 19.5 -11 33.5
c-1.33301 6 -2.16602 11.833 -2.49902 17.5s-0.5 11.5 -0.5 17.5c0 10 0.833008 21.5 2.5 34.5s4.5 25.833 8.5 38.5s9.33301 24.167 16 34.5s15.334 17.5 26.001 21.5c4.66699 2 11.334 3.5 20.001 4.5l27 3c9.33301 1 18 2.16699 26 3.5s14 3 18 5c6 3.33301 9 9 9 17
c0 2 -0.166992 4.5 -0.5 7.5s-1.16602 5.16699 -2.49902 6.5s-6.33301 2.66602 -15 3.99902s-18.334 2.5 -29.001 3.5s-21 1.66699 -31 2s-16.333 0.5 -19 0.5c-22.667 0 -46.5 -2.33301 -71.5 -7s-45.833 -15.334 -62.5 -32.001c-8 -7.33301 -15.5 -17.833 -22.5 -31.5
s-10.5 -26.167 -10.5 -37.5c0 -2 0.166992 -4 0.5 -6s0.5 -4 0.5 -6l49 -493c-42 1.33301 -83.833 0.666016 -125.5 -2.00098s-83.5 -4.33398 -125.5 -5.00098l9 331l-74 -4v27c0 23.333 1.16699 46.333 3.5 69s4.16602 45.667 5.49902 69l71 2
c0 10.667 0.333008 23.667 1 39s2 30.833 4 46.5s4.83301 31 8.5 46s8.16699 27.5 13.5 37.5c14.667 28 31.334 50.167 50.001 66.5s39 28.833 61 37.5s45.833 14.334 71.5 17.001s52.834 4 81.501 4c24 0 49.5 -1.33301 76.5 -4s54 -7 81 -13s52.833 -14.167 77.5 -24.5
s46 -23.5 64 -39.5c5.33301 -4.66699 9.83301 -11.334 13.5 -20.001s6.5 -18 8.5 -28s3.5 -19.667 4.5 -29s1.5 -17 1.5 -23c0 -8 -0.833008 -17.667 -2.5 -29s-4.33398 -22.833 -8.00098 -34.5s-8.33398 -22.167 -14.001 -31.5s-12.5 -16 -20.5 -20
c-4.66699 -2 -12.5 -3.83301 -23.5 -5.5s-22.167 -3 -33.5 -4s-21.833 -1.83301 -31.5 -2.5s-15.167 -1.33398 -16.5 -2.00098c-4.66699 -3.33301 -7.66699 -7.83301 -9 -13.5s-2 -11.167 -2 -16.5c0 -7.33301 1.33301 -13.333 4 -18c1.33301 -2 8.83301 -3.66699 22.5 -5
s30.167 -2.5 49.5 -3.5s40.5 -1.66699 63.5 -2l66.5 -1c21.333 -0.333008 40.166 -0.833008 56.499 -1.5s27.5 -1.33398 33.5 -2.00098c17.333 -2 33.333 -6 48 -12s26.667 -16.667 36 -32c5.33301 -9.33301 9.83301 -20 13.5 -32s6.83398 -24.5 9.50098 -37.5
s4.5 -25.833 5.5 -38.5s1.5 -24.334 1.5 -35.001z" />
    <glyph glyph-name="agrave" unicode="&#xe0;" horiz-adv-x="811" 
d="M755 451c0 -56 -2 -111.665 -6 -166.998l-12 -166c-74.667 -6.66699 -149 -12.334 -223 -17.001s-148.333 -7 -223 -7c-6.66699 0 -19 0.166992 -37 0.5s-37 1 -57 2s-39 2.33301 -57 4s-30 4.16699 -36 7.5c-22 12 -37.333 27.167 -46 45.5s-13 39.166 -13 62.499
c0 8 0.333008 18.667 1 32s2 27.333 4 42s4.66699 28.334 8 41.001s7.33301 22 12 28c6 8 19.667 14.833 41 20.5s46.833 10.167 76.5 13.5s61.667 6 96 8s67.166 3.5 98.499 4.5s59.333 1.5 84 1.5h53c2 14.667 3 29 3 43v10.5c0 5.66699 -0.333008 9.16699 -1 10.5
c-2 4 -8.33301 7.33301 -19 10s-23.834 4.66699 -39.501 6s-32.667 2.5 -51 3.5s-36.166 1.5 -53.499 1.5h-46h-29c-42 0 -84 -0.833008 -126 -2.5s-84 -3.16699 -126 -4.5c2.66699 25.333 4.83398 51 6.50098 77s1.83398 51.667 0.500977 77
c48.667 8.66699 97.5 14.834 146.5 18.501s98.5 5.5 148.5 5.5c18 0 37.667 -0.166992 59 -0.5s42.666 -1 63.999 -2s42.5 -2.5 63.5 -4.5s40.5 -4.66699 58.5 -8c18.667 -3.33301 37.167 -9.33301 55.5 -18s35.5 -19.334 51.5 -32.001s30 -27.167 42 -43.5
s20.667 -33.833 26 -52.5c0.666992 -2 1.16699 -5.33301 1.5 -10s0.5 -9.83398 0.5 -15.501v-15.5v-10zM532 216.002l-0.000976562 127.998c-19.333 0.666992 -38.666 1.16699 -57.999 1.5s-38.666 0.5 -57.999 0.5c-4 0 -15.167 -0.166992 -33.5 -0.5
s-38 -1.16602 -59 -2.49902s-40.167 -3 -57.5 -5s-27.333 -5 -30 -9c-3.33301 -5.33301 -5.5 -10.833 -6.5 -16.5s-1.5 -11.5 -1.5 -17.5c0 -4.66699 0.333008 -11 1 -19s1.83398 -16.333 3.50098 -25s3.5 -16.667 5.5 -24s4.66699 -12.666 8 -15.999
c2.66699 -3.33301 7.16699 -5.83301 13.5 -7.5s13.166 -3 20.499 -4s14.666 -1.66699 21.999 -2s13 -0.5 17 -0.5c16 0 33.167 0.666992 51.5 2s37 2.83301 56 4.5s37.5 3.66699 55.5 6zM481.999 792l-36.002 -56l-53.5 30c-16.333 9.33301 -32.166 19 -47.499 29
s-30.666 20.833 -45.999 32.5s-31.333 24.5 -48 38.5l72 99l47 -48c16 -16 31.333 -33 46 -51c10.667 -13.333 21.5 -26 32.5 -38z" />
    <glyph glyph-name="aacute" unicode="&#xe1;" horiz-adv-x="811" 
d="M755 451c0 -56 -2 -111.665 -6 -166.998l-12 -166c-74.667 -6.66699 -149 -12.334 -223 -17.001s-148.333 -7 -223 -7c-6.66699 0 -19 0.166992 -37 0.5s-37 1 -57 2s-39 2.33301 -57 4s-30 4.16699 -36 7.5c-22 12 -37.333 27.167 -46 45.5s-13 39.166 -13 62.499
c0 8 0.333008 18.667 1 32s2 27.333 4 42s4.66699 28.334 8 41.001s7.33301 22 12 28c6 8 19.667 14.833 41 20.5s46.833 10.167 76.5 13.5s61.667 6 96 8s67.166 3.5 98.499 4.5s59.333 1.5 84 1.5h53c2 14.667 3 29 3 43v10.5c0 5.66699 -0.333008 9.16699 -1 10.5
c-2 4 -8.33301 7.33301 -19 10s-23.834 4.66699 -39.501 6s-32.667 2.5 -51 3.5s-36.166 1.5 -53.499 1.5h-46h-29c-42 0 -84 -0.833008 -126 -2.5s-84 -3.16699 -126 -4.5c2.66699 25.333 4.83398 51 6.50098 77s1.83398 51.667 0.500977 77
c48.667 8.66699 97.5 14.834 146.5 18.501s98.5 5.5 148.5 5.5c18 0 37.667 -0.166992 59 -0.5s42.666 -1 63.999 -2s42.5 -2.5 63.5 -4.5s40.5 -4.66699 58.5 -8c18.667 -3.33301 37.167 -9.33301 55.5 -18s35.5 -19.334 51.5 -32.001s30 -27.167 42 -43.5
s20.667 -33.833 26 -52.5c0.666992 -2 1.16699 -5.33301 1.5 -10s0.5 -9.83398 0.5 -15.501v-15.5v-10zM532 216.002l-0.000976562 127.998c-19.333 0.666992 -38.666 1.16699 -57.999 1.5s-38.666 0.5 -57.999 0.5c-4 0 -15.167 -0.166992 -33.5 -0.5
s-38 -1.16602 -59 -2.49902s-40.167 -3 -57.5 -5s-27.333 -5 -30 -9c-3.33301 -5.33301 -5.5 -10.833 -6.5 -16.5s-1.5 -11.5 -1.5 -17.5c0 -4.66699 0.333008 -11 1 -19s1.83398 -16.333 3.50098 -25s3.5 -16.667 5.5 -24s4.66699 -12.666 8 -15.999
c2.66699 -3.33301 7.16699 -5.83301 13.5 -7.5s13.166 -3 20.499 -4s14.666 -1.66699 21.999 -2s13 -0.5 17 -0.5c16 0 33.167 0.666992 51.5 2s37 2.83301 56 4.5s37.5 3.66699 55.5 6zM563.999 856l-47.501 -38.5c-15 -11.667 -30.167 -22.5 -45.5 -32.5
s-31.166 -19.667 -47.499 -29l-53.5 -30l-37 56l34.5 36c11 12 21.833 24.667 32.5 38c14 18 29 35 45 51l48 48z" />
    <glyph glyph-name="acircumflex" unicode="&#xe2;" horiz-adv-x="811" 
d="M755 451c0 -56 -2 -111.665 -6 -166.998l-12 -166c-74.667 -6.66699 -149 -12.334 -223 -17.001s-148.333 -7 -223 -7c-6.66699 0 -19 0.166992 -37 0.5s-37 1 -57 2s-39 2.33301 -57 4s-30 4.16699 -36 7.5c-22 12 -37.333 27.167 -46 45.5s-13 39.166 -13 62.499
c0 8 0.333008 18.667 1 32s2 27.333 4 42s4.66699 28.334 8 41.001s7.33301 22 12 28c6 8 19.667 14.833 41 20.5s46.833 10.167 76.5 13.5s61.667 6 96 8s67.166 3.5 98.499 4.5s59.333 1.5 84 1.5h53c2 14.667 3 29 3 43v10.5c0 5.66699 -0.333008 9.16699 -1 10.5
c-2 4 -8.33301 7.33301 -19 10s-23.834 4.66699 -39.501 6s-32.667 2.5 -51 3.5s-36.166 1.5 -53.499 1.5h-46h-29c-42 0 -84 -0.833008 -126 -2.5s-84 -3.16699 -126 -4.5c2.66699 25.333 4.83398 51 6.50098 77s1.83398 51.667 0.500977 77
c48.667 8.66699 97.5 14.834 146.5 18.501s98.5 5.5 148.5 5.5c18 0 37.667 -0.166992 59 -0.5s42.666 -1 63.999 -2s42.5 -2.5 63.5 -4.5s40.5 -4.66699 58.5 -8c18.667 -3.33301 37.167 -9.33301 55.5 -18s35.5 -19.334 51.5 -32.001s30 -27.167 42 -43.5
s20.667 -33.833 26 -52.5c0.666992 -2 1.16699 -5.33301 1.5 -10s0.5 -9.83398 0.5 -15.501v-15.5v-10zM532 216.002l-0.000976562 127.998c-19.333 0.666992 -38.666 1.16699 -57.999 1.5s-38.666 0.5 -57.999 0.5c-4 0 -15.167 -0.166992 -33.5 -0.5
s-38 -1.16602 -59 -2.49902s-40.167 -3 -57.5 -5s-27.333 -5 -30 -9c-3.33301 -5.33301 -5.5 -10.833 -6.5 -16.5s-1.5 -11.5 -1.5 -17.5c0 -4.66699 0.333008 -11 1 -19s1.83398 -16.333 3.50098 -25s3.5 -16.667 5.5 -24s4.66699 -12.666 8 -15.999
c2.66699 -3.33301 7.16699 -5.83301 13.5 -7.5s13.166 -3 20.499 -4s14.666 -1.66699 21.999 -2s13 -0.5 17 -0.5c16 0 33.167 0.666992 51.5 2s37 2.83301 56 4.5s37.5 3.66699 55.5 6zM595.999 760l-94 -3.99902l-99 111l-98 -116l-105 -3l99.5 108.5l101.5 105.5
c34 -32.667 66.833 -65.834 98.5 -99.501z" />
    <glyph glyph-name="atilde" unicode="&#xe3;" horiz-adv-x="811" 
d="M755 451c0 -56 -2 -111.665 -6 -166.998l-12 -166c-74.667 -6.66699 -149 -12.334 -223 -17.001s-148.333 -7 -223 -7c-6.66699 0 -19 0.166992 -37 0.5s-37 1 -57 2s-39 2.33301 -57 4s-30 4.16699 -36 7.5c-22 12 -37.333 27.167 -46 45.5s-13 39.166 -13 62.499
c0 8 0.333008 18.667 1 32s2 27.333 4 42s4.66699 28.334 8 41.001s7.33301 22 12 28c6 8 19.667 14.833 41 20.5s46.833 10.167 76.5 13.5s61.667 6 96 8s67.166 3.5 98.499 4.5s59.333 1.5 84 1.5h53c2 14.667 3 29 3 43v10.5c0 5.66699 -0.333008 9.16699 -1 10.5
c-2 4 -8.33301 7.33301 -19 10s-23.834 4.66699 -39.501 6s-32.667 2.5 -51 3.5s-36.166 1.5 -53.499 1.5h-46h-29c-42 0 -84 -0.833008 -126 -2.5s-84 -3.16699 -126 -4.5c2.66699 25.333 4.83398 51 6.50098 77s1.83398 51.667 0.500977 77
c48.667 8.66699 97.5 14.834 146.5 18.501s98.5 5.5 148.5 5.5c18 0 37.667 -0.166992 59 -0.5s42.666 -1 63.999 -2s42.5 -2.5 63.5 -4.5s40.5 -4.66699 58.5 -8c18.667 -3.33301 37.167 -9.33301 55.5 -18s35.5 -19.334 51.5 -32.001s30 -27.167 42 -43.5
s20.667 -33.833 26 -52.5c0.666992 -2 1.16699 -5.33301 1.5 -10s0.5 -9.83398 0.5 -15.501v-15.5v-10zM532 216.002l-0.000976562 127.998c-19.333 0.666992 -38.666 1.16699 -57.999 1.5s-38.666 0.5 -57.999 0.5c-4 0 -15.167 -0.166992 -33.5 -0.5
s-38 -1.16602 -59 -2.49902s-40.167 -3 -57.5 -5s-27.333 -5 -30 -9c-3.33301 -5.33301 -5.5 -10.833 -6.5 -16.5s-1.5 -11.5 -1.5 -17.5c0 -4.66699 0.333008 -11 1 -19s1.83398 -16.333 3.50098 -25s3.5 -16.667 5.5 -24s4.66699 -12.666 8 -15.999
c2.66699 -3.33301 7.16699 -5.83301 13.5 -7.5s13.166 -3 20.499 -4s14.666 -1.66699 21.999 -2s13 -0.5 17 -0.5c16 0 33.167 0.666992 51.5 2s37 2.83301 56 4.5s37.5 3.66699 55.5 6zM631.999 818c-7.33301 -5.33301 -18.001 -12.499 -32.001 -21.499
s-28.5 -17.833 -43.5 -26.5s-29.667 -16.167 -44 -22.5s-25.833 -9.5 -34.5 -9.5c-10 0 -21.167 3.5 -33.5 10.5s-24.833 14.667 -37.5 23l-36.5 23c-11.667 7 -21.834 10.5 -30.501 10.5c-7.33301 0 -15.666 -2.5 -24.999 -7.5s-18.666 -11.167 -27.999 -18.5
s-18 -14.833 -26 -22.5l-19 -18.5l-59 65l30 20.5l44 29.5c15.333 10 30 18.833 44 26.5s23.667 11.5 29 11.5c9.33301 0 20.333 -3.16699 33 -9.5l39.5 -20.5l40 -20.5c13 -6.33301 24.167 -9.5 33.5 -9.5c6.66699 0 14.5 2 23.5 6s18 8.66699 27 14
s17.5 11.166 25.5 17.499l20 15.5z" />
    <glyph glyph-name="adieresis" unicode="&#xe4;" horiz-adv-x="811" 
d="M755 451c0 -56 -2 -111.665 -6 -166.998l-12 -166c-74.667 -6.66699 -149 -12.334 -223 -17.001s-148.333 -7 -223 -7c-6.66699 0 -19 0.166992 -37 0.5s-37 1 -57 2s-39 2.33301 -57 4s-30 4.16699 -36 7.5c-22 12 -37.333 27.167 -46 45.5s-13 39.166 -13 62.499
c0 8 0.333008 18.667 1 32s2 27.333 4 42s4.66699 28.334 8 41.001s7.33301 22 12 28c6 8 19.667 14.833 41 20.5s46.833 10.167 76.5 13.5s61.667 6 96 8s67.166 3.5 98.499 4.5s59.333 1.5 84 1.5h53c2 14.667 3 29 3 43v10.5c0 5.66699 -0.333008 9.16699 -1 10.5
c-2 4 -8.33301 7.33301 -19 10s-23.834 4.66699 -39.501 6s-32.667 2.5 -51 3.5s-36.166 1.5 -53.499 1.5h-46h-29c-42 0 -84 -0.833008 -126 -2.5s-84 -3.16699 -126 -4.5c2.66699 25.333 4.83398 51 6.50098 77s1.83398 51.667 0.500977 77
c48.667 8.66699 97.5 14.834 146.5 18.501s98.5 5.5 148.5 5.5c18 0 37.667 -0.166992 59 -0.5s42.666 -1 63.999 -2s42.5 -2.5 63.5 -4.5s40.5 -4.66699 58.5 -8c18.667 -3.33301 37.167 -9.33301 55.5 -18s35.5 -19.334 51.5 -32.001s30 -27.167 42 -43.5
s20.667 -33.833 26 -52.5c0.666992 -2 1.16699 -5.33301 1.5 -10s0.5 -9.83398 0.5 -15.501v-15.5v-10zM532 216.002l-0.000976562 127.998c-19.333 0.666992 -38.666 1.16699 -57.999 1.5s-38.666 0.5 -57.999 0.5c-4 0 -15.167 -0.166992 -33.5 -0.5
s-38 -1.16602 -59 -2.49902s-40.167 -3 -57.5 -5s-27.333 -5 -30 -9c-3.33301 -5.33301 -5.5 -10.833 -6.5 -16.5s-1.5 -11.5 -1.5 -17.5c0 -4.66699 0.333008 -11 1 -19s1.83398 -16.333 3.50098 -25s3.5 -16.667 5.5 -24s4.66699 -12.666 8 -15.999
c2.66699 -3.33301 7.16699 -5.83301 13.5 -7.5s13.166 -3 20.499 -4s14.666 -1.66699 21.999 -2s13 -0.5 17 -0.5c16 0 33.167 0.666992 51.5 2s37 2.83301 56 4.5s37.5 3.66699 55.5 6zM619.999 826c0 -12.667 -2.49805 -24.5 -7.49805 -35.5s-11.833 -20.667 -20.5 -29
s-18.5 -14.833 -29.5 -19.5s-22.833 -7 -35.5 -7c-11.333 0 -22.333 2 -33 6s-20.334 9.5 -29.001 16.5s-15.667 15.5 -21 25.5s-8 20.667 -8 32c0 14 2.5 27.167 7.5 39.5s12 23.333 21 33s19.667 17.167 32 22.5s25.833 8 40.5 8c12 0 23.167 -2.66699 33.5 -8
s19.166 -12.333 26.499 -21s13 -18.5 17 -29.5s6 -22.167 6 -33.5zM379.001 828c0 -25.333 -9.16602 -46.6689 -27.499 -64.002s-40.166 -26 -65.499 -26c-10.667 0 -21.334 2 -32.001 6s-20.334 9.5 -29.001 16.5s-15.667 15.333 -21 25s-8 20.167 -8 31.5
c0 14 2.66699 27.333 8 40s12.5 23.834 21.5 33.501s19.667 17.167 32 22.5s25.5 8 39.5 8c12 0 23 -2.66699 33 -8s18.667 -12.333 26 -21s13 -18.667 17 -30s6 -22.666 6 -33.999z" />
    <glyph glyph-name="aring" unicode="&#xe5;" horiz-adv-x="811" 
d="M532 216l-0.000976562 127.998c-19.333 0.666992 -38.666 1.16699 -57.999 1.5s-38.666 0.5 -57.999 0.5c-4 0 -15.167 -0.166992 -33.5 -0.5s-38 -1.16602 -59 -2.49902s-40.167 -3 -57.5 -5s-27.333 -5 -30 -9c-3.33301 -5.33301 -5.5 -10.833 -6.5 -16.5
s-1.5 -11.5 -1.5 -17.5c0 -4.66699 0.333008 -11 1 -19s1.83398 -16.333 3.50098 -25s3.5 -16.667 5.5 -24s4.66699 -12.666 8 -15.999c2.66699 -3.33301 7.16699 -5.83301 13.5 -7.5s13.166 -3 20.499 -4s14.666 -1.66699 21.999 -2s13 -0.5 17 -0.5
c16 0 33.167 0.666992 51.5 2s37 2.83301 56 4.5s37.5 3.66699 55.5 6zM532.999 762.998c0 -25.333 -7.33398 -46.498 -22.001 -63.498s-32.667 -30.167 -54 -39.5c21.333 -1.33301 42.333 -2.83301 63 -4.5s40 -4.16699 58 -7.5c18.667 -3.33301 37.167 -9.33301 55.5 -18
s35.5 -19.334 51.5 -32.001s30 -27.167 42 -43.5s20.667 -33.833 26 -52.5c0.666992 -2 1.16699 -5.33301 1.5 -10s0.5 -9.83398 0.5 -15.501v-15.5v-10c0 -56 -2 -111.667 -6 -167l-12 -166c-74.667 -6.66699 -149 -12.334 -223 -17.001s-148.333 -7 -223 -7
c-6.66699 0 -19 0.166992 -37 0.5s-37 1 -57 2s-39 2.33301 -57 4s-30 4.16699 -36 7.5c-22 12 -37.333 27.167 -46 45.5s-13 39.166 -13 62.499c0 8 0.333008 18.667 1 32s2 27.333 4 42s4.66699 28.334 8 41.001s7.33301 22 12 28c6 8 19.667 14.833 41 20.5
s46.833 10.167 76.5 13.5s61.667 6 96 8s67.166 3.5 98.499 4.5s59.333 1.5 84 1.5h53c2 14.667 3 29 3 43v10.5c0 5.66699 -0.333008 9.16699 -1 10.5c-2 4 -8.33301 7.33301 -19 10s-23.834 4.66699 -39.501 6s-32.667 2.5 -51 3.5s-36.166 1.5 -53.499 1.5h-46h-29
c-42 0 -84 -0.833008 -126 -2.5s-84 -3.16699 -126 -4.5c2.66699 25.333 4.83398 51 6.50098 77s1.83398 51.667 0.500977 77c45.333 8 90.833 13.833 136.5 17.5s91.5 5.83398 137.5 6.50098c-19.333 8.66699 -36.166 19.667 -50.499 33s-21.5 29.333 -21.5 48v4
c0 1.33301 0.333008 2.66602 1 3.99902c3.33301 18 10 34.167 20 48.5s22.167 26.333 36.5 36s30 17.167 47 22.5s34.5 8 52.5 8c15.333 0 31 -2.16699 47 -6.5s30.667 -10.666 44 -18.999s24.166 -19 32.499 -32s12.5 -28.5 12.5 -46.5zM463.998 750
c0 14 -0.833008 25.3301 -2.5 33.9971s-4.83398 15.167 -9.50098 19.5s-11.167 7.33301 -19.5 9s-19.5 2.5 -33.5 2.5c-3.33301 0 -7.66602 -0.166992 -12.999 -0.5l-16.5 -1c-5.66699 -0.333008 -11 -1 -16 -2s-8.83301 -2.5 -11.5 -4.5c-3.33301 -2 -6 -5.66699 -8 -11
s-3.66699 -11.166 -5 -17.499s-2.16602 -12.666 -2.49902 -18.999s-0.5 -11.166 -0.5 -14.499c0 -19.333 3.16699 -31.5 9.5 -36.5s19.166 -7.5 38.499 -7.5c4 0 10 0.333008 18 1s16.167 1.5 24.5 2.5s16.166 2.33301 23.499 4s12.333 3.5 15 5.5
c4.66699 3.33301 7.33398 8.83301 8.00098 16.5s1 14.167 1 19.5z" />
    </font>
</defs>
</svg>
